<svg width="86" height="29" viewBox="0 0 86 29" fill="none" xmlns="http://www.w3.org/2000/svg">
<path d="M16.381 22.7857V6.21429C16.381 2.78223 19.1312 0 22.5238 0C25.9164 0 28.6667 2.78223 28.6667 6.21429V22.7857C28.6667 26.2178 25.9164 29 22.5238 29C19.1312 29 16.381 26.2178 16.381 22.7857Z" fill="#364958"/>
<path d="M0 22.7857V6.21429C0 2.78223 2.75025 0 6.14286 0C9.53546 0 12.2857 2.78223 12.2857 6.21429V22.7857C12.2857 26.2178 9.53546 29 6.14286 29C2.75025 29 0 26.2178 0 22.7857Z" fill="#1481BA"/>
<path fill-rule="evenodd" clip-rule="evenodd" d="M55.3909 0C54.4365 1.06152 53.8562 2.46329 53.8562 4V8.49998H50.8427C47.5141 8.49998 44.8157 11.1863 44.8157 14.5C44.8157 17.8137 47.5141 20.5 50.8427 20.5H53.8562V25C53.8562 26.5367 54.4365 27.9385 55.3909 29H42.5905C37.1623 29 32.7619 24.5484 32.7619 19.0571V9.94286C32.7619 4.45157 37.1623 0 42.5905 0H55.3909ZM64.3755 0H76.1714C81.5996 0 86 4.45157 86 9.94286V19.0571C86 24.5484 81.5996 29 76.1714 29H64.3755C65.3298 27.9385 65.9102 26.5367 65.9102 25V20.5H67.9191C71.2477 20.5 73.9461 17.8137 73.9461 14.5C73.9461 11.1863 71.2477 8.49998 67.9191 8.49998H65.9102V4C65.9102 2.46329 65.3299 1.06152 64.3755 0Z" fill="white"/>
</svg>
