<svg width="210" height="51" viewBox="0 0 210 51" fill="none" xmlns="http://www.w3.org/2000/svg">
<path d="M0.99292 20.1436C0.99292 18.952 1.22258 17.8341 1.68192 16.7898C2.14125 15.7455 2.7627 14.8351 3.54626 14.0586C4.34334 13.2686 5.26876 12.6461 6.32252 12.1909C7.37628 11.7357 8.50437 11.5081 9.70668 11.5081H23.0409V17.2718H9.70668C9.30146 17.2718 8.92313 17.3454 8.57185 17.4927C8.22064 17.64 7.90991 17.8475 7.63972 18.1153C7.38304 18.3696 7.18039 18.6709 7.03178 19.019C6.88317 19.3671 6.80887 19.7419 6.80887 20.1436C6.80887 20.5453 6.88317 20.9268 7.03178 21.2883C7.18039 21.6364 7.38304 21.9443 7.63972 22.2121C7.90991 22.4665 8.22064 22.6673 8.57185 22.8146C8.92313 22.9618 9.30146 23.0355 9.70668 23.0355H15.5227C16.725 23.0355 17.8531 23.2631 18.9068 23.7183C19.9741 24.1601 20.8995 24.776 21.6831 25.5659C22.4802 26.3424 23.1016 27.2595 23.5474 28.3172C24.0068 29.3614 24.2364 30.4794 24.2364 31.671C24.2364 32.8625 24.0068 33.9805 23.5474 35.0248C23.1016 36.069 22.4802 36.9861 21.6831 37.776C20.8995 38.5526 19.9741 39.1684 18.9068 39.6236C17.8531 40.0788 16.725 40.3065 15.5227 40.3065H2.61409V34.5428H15.5227C15.928 34.5428 16.3062 34.4691 16.6575 34.3219C17.0087 34.1746 17.3127 33.9737 17.5694 33.7194C17.8396 33.4516 18.049 33.1437 18.1976 32.7956C18.3462 32.4475 18.4205 32.0726 18.4205 31.671C18.4205 31.2693 18.3462 30.8944 18.1976 30.5464C18.049 30.1983 17.8396 29.897 17.5694 29.6426C17.3127 29.3749 17.0087 29.1673 16.6575 29.0201C16.3062 28.8728 15.928 28.7991 15.5227 28.7991H9.70668C8.50437 28.7991 7.37628 28.5715 6.32252 28.1164C5.26876 27.6612 4.34334 27.0453 3.54626 26.2688C2.7627 25.4789 2.14125 24.5618 1.68192 23.5174C1.22258 22.4597 0.99292 21.3351 0.99292 20.1436ZM33.8824 17.2718V28.7991H39.6983C40.4954 28.7991 41.2453 28.6519 41.9477 28.3573C42.6503 28.0494 43.2649 27.6344 43.7918 27.1123C44.3188 26.5901 44.7308 25.9809 45.0279 25.2847C45.3387 24.5752 45.4941 23.8254 45.4941 23.0355C45.4941 22.2455 45.3387 21.5025 45.0279 20.8063C44.7308 20.0967 44.3188 19.4809 43.7918 18.9588C43.2649 18.4366 42.6503 18.0283 41.9477 17.7337C41.2453 17.4257 40.4954 17.2718 39.6983 17.2718H33.8824ZM33.8824 40.3065H28.0665V11.5081H39.6983C40.7657 11.5081 41.7924 11.6487 42.7786 11.9298C43.7648 12.1976 44.6835 12.5859 45.5346 13.0946C46.3992 13.59 47.1828 14.1925 47.8853 14.902C48.6013 15.5983 49.2093 16.3748 49.7091 17.2316C50.2225 18.0885 50.6143 19.0056 50.8844 19.983C51.1682 20.9603 51.31 21.9778 51.31 23.0355C51.31 24.6153 51.006 26.1081 50.3981 27.5138C49.7902 28.9063 48.9593 30.1246 47.9055 31.1689C46.8518 32.2132 45.6157 33.0366 44.1971 33.639C42.7921 34.2416 41.2925 34.5428 39.6983 34.5428H33.8824V40.3065Z" fill="#364958"/>
<path d="M83.5717 40.3064H77.7757V19.7419C77.7757 19.3403 77.6946 18.9654 77.5325 18.6173C77.3839 18.2692 77.1745 17.968 76.9043 17.7136C76.6476 17.4459 76.3436 17.2383 75.9924 17.091C75.6412 16.9438 75.2628 16.8701 74.8575 16.8701C74.4523 16.8701 74.074 16.9438 73.7228 17.091C73.3715 17.2383 73.0607 17.4459 72.7906 17.7136C72.5339 17.968 72.3312 18.2692 72.1826 18.6173C72.0341 18.9654 71.9597 19.3403 71.9597 19.7419V40.3064H66.1438V19.7419C66.1438 19.3403 66.0695 18.9654 65.9208 18.6173C65.7723 18.2692 65.5628 17.968 65.2927 17.7136C65.036 17.4459 64.732 17.2383 64.3808 17.091C64.0295 16.9438 63.6513 16.8701 63.2459 16.8701C62.8406 16.8701 62.4624 16.9438 62.1111 17.091C61.7598 17.2383 61.4492 17.4459 61.179 17.7136C60.9222 17.968 60.7196 18.2692 60.571 18.6173C60.4224 18.9654 60.3481 19.3403 60.3481 19.7419V40.3064H54.5321V19.7419C54.5321 18.5503 54.7551 17.4325 55.2009 16.3882C55.6602 15.3304 56.2817 14.4133 57.0652 13.6368C57.8623 12.8469 58.7877 12.231 59.8415 11.7892C60.9087 11.334 62.0435 11.1065 63.2459 11.1065C64.3267 11.1065 65.3669 11.3006 66.3667 11.6889C67.3664 12.0637 68.2648 12.6126 69.0619 13.3356C69.859 12.6126 70.7506 12.0637 71.7368 11.6889C72.7365 11.3006 73.7768 11.1065 74.8575 11.1065C76.0599 11.1065 77.188 11.334 78.2418 11.7892C79.309 12.231 80.2344 12.8469 81.018 13.6368C81.8151 14.4133 82.4365 15.3304 82.8824 16.3882C83.3418 17.4325 83.5717 18.5503 83.5717 19.7419V40.3064ZM108.454 25.2944H115.717V37.2218C114.057 38.4008 112.147 39.3056 109.989 39.9363C107.831 40.567 105.673 40.8823 103.515 40.8823C100.471 40.8823 97.7322 40.2516 95.2977 38.9903C92.8632 37.7016 90.9541 35.9194 89.5704 33.6435C88.1867 31.3677 87.4953 28.7903 87.4953 25.9113C87.4953 23.0323 88.1867 20.4549 89.5704 18.179C90.9541 15.9032 92.8764 14.1346 95.3392 12.8734C97.8019 11.5846 100.583 10.9403 103.681 10.9403C106.393 10.9403 108.827 11.3927 110.985 12.2976C113.144 13.2024 114.942 14.5048 116.381 16.2048L111.151 20.8935C109.187 18.7548 106.835 17.6855 104.096 17.6855C101.606 17.6855 99.5998 18.4395 98.0783 19.9476C96.5568 21.4282 95.7957 23.4162 95.7957 25.9113C95.7957 27.5016 96.1418 28.9274 96.8332 30.1887C97.5247 31.4226 98.4933 32.3959 99.7384 33.1089C100.983 33.7943 102.409 34.1371 104.013 34.1371C105.59 34.1371 107.07 33.8218 108.454 33.1911V25.2944Z" fill="white"/>
<path d="M140.277 16.4516V35.371C140.277 38.5511 142.878 41.129 146.087 41.129C149.296 41.129 151.897 38.5511 151.897 35.371V16.4516C151.897 13.2715 149.296 10.6935 146.087 10.6935C142.878 10.6935 140.277 13.2715 140.277 16.4516Z" fill="#364958"/>
<path d="M124.506 16.4516V35.371C124.506 38.5511 127.107 41.129 130.316 41.129C133.525 41.129 136.126 38.5511 136.126 35.371V16.4516C136.126 13.2715 133.525 10.6935 130.316 10.6935C127.107 10.6935 124.506 13.2715 124.506 16.4516Z" fill="#1481BA"/>
<path fill-rule="evenodd" clip-rule="evenodd" d="M178.98 41.129C178.013 40.015 177.425 38.5438 177.425 36.9311V32.2083H174.371C170.997 32.2083 168.263 29.389 168.263 25.9113C168.263 22.4336 170.997 19.6143 174.371 19.6143H177.425V14.8916C177.425 13.2787 178.013 11.8076 178.98 10.6935H164.348C159.764 10.6935 156.047 14.3764 156.047 18.9193V32.9032C156.047 37.4462 159.764 41.129 164.348 41.129H178.98ZM188.085 41.129H201.7C206.284 41.129 210 37.4462 210 32.9032V18.9193C210 14.3764 206.284 10.6935 201.7 10.6935H188.085C189.052 11.8076 189.641 13.2787 189.641 14.8916V19.6143H191.676C195.049 19.6143 197.784 22.4336 197.784 25.9113C197.784 29.389 195.049 32.2083 191.676 32.2083H189.641V36.9311C189.641 38.5438 189.052 40.015 188.085 41.129Z" fill="white"/>
</svg>
