<svg width="227" height="113" viewBox="0 0 227 113" fill="none" xmlns="http://www.w3.org/2000/svg">
<g filter="url(#filter0_d)">
<rect x="41.0511" y="104.723" width="65.1325" height="29.5688" rx="14.7844" transform="rotate(-90 41.0511 104.723)" fill="#364958"/>
<rect x="6.5542" y="104.723" width="65.1325" height="29.5688" rx="14.7844" transform="rotate(-90 6.5542 104.723)" fill="#39A0ED"/>
<path fill-rule="evenodd" clip-rule="evenodd" d="M140.914 104.723C138.573 102.339 137.15 99.1904 137.15 95.7391V85.6323H129.758C121.592 85.6323 114.973 79.599 114.973 72.1566C114.973 64.7142 121.592 58.6809 129.758 58.6809H137.15V48.5741C137.15 45.1228 138.573 41.9744 140.914 39.5903H104.561C93.9811 39.5903 85.4044 48.167 85.4044 58.7469V85.5662C85.4044 96.1461 93.9811 104.723 104.561 104.723H140.914ZM162.954 104.723H196.843C207.423 104.723 216 96.1462 216 85.5662V58.747C216 48.167 207.423 39.5903 196.843 39.5903H162.954C165.295 41.9744 166.719 45.1228 166.719 48.5741V58.6809H171.647C179.812 58.6809 186.431 64.7142 186.431 72.1566C186.431 79.599 179.812 85.6323 171.647 85.6323H166.719V95.7391C166.719 99.1904 165.295 102.339 162.954 104.723Z" fill="#1E907C"/>
<path d="M4.61112 13.1169C4.61112 12.3769 4.75246 11.6826 5.03516 11.0341C5.31785 10.3856 5.70032 9.8202 6.18256 9.33796C6.67311 8.8474 7.24266 8.46078 7.89119 8.17808C8.53972 7.89539 9.23398 7.75404 9.97397 7.75404H18.1804V11.3334H9.97397C9.72454 11.3334 9.49173 11.3792 9.27556 11.4706C9.05938 11.5621 8.86814 11.691 8.70185 11.8573C8.54388 12.0152 8.41916 12.2023 8.3277 12.4185C8.23624 12.6347 8.19051 12.8675 8.19051 13.1169C8.19051 13.3663 8.23624 13.6033 8.3277 13.8278C8.41916 14.044 8.54388 14.2352 8.70185 14.4015C8.86814 14.5595 9.05938 14.6842 9.27556 14.7756C9.49173 14.8671 9.72454 14.9128 9.97397 14.9128H13.5534C14.2934 14.9128 14.9876 15.0542 15.6362 15.3369C16.293 15.6113 16.8625 15.9937 17.3448 16.4843C17.8353 16.9665 18.2178 17.5361 18.4922 18.1929C18.7749 18.8414 18.9162 19.5357 18.9162 20.2757C18.9162 21.0157 18.7749 21.7099 18.4922 22.3585C18.2178 23.007 17.8353 23.5766 17.3448 24.0671C16.8625 24.5493 16.293 24.9318 15.6362 25.2145C14.9876 25.4972 14.2934 25.6385 13.5534 25.6385H5.60886V22.0592H13.5534C13.8028 22.0592 14.0356 22.0134 14.2518 21.922C14.468 21.8305 14.655 21.7058 14.813 21.5478C14.9793 21.3815 15.1082 21.1903 15.1996 20.9741C15.2911 20.7579 15.3368 20.5251 15.3368 20.2757C15.3368 20.0263 15.2911 19.7935 15.1996 19.5773C15.1082 19.3611 14.9793 19.174 14.813 19.016C14.655 18.8498 14.468 18.7209 14.2518 18.6294C14.0356 18.538 13.8028 18.4922 13.5534 18.4922H9.97397C9.23398 18.4922 8.53972 18.3509 7.89119 18.0682C7.24266 17.7855 6.67311 17.403 6.18256 16.9208C5.70032 16.4302 5.31785 15.8607 5.03516 15.2122C4.75246 14.5553 4.61112 13.8569 4.61112 13.1169ZM24.8528 11.3334V18.4922H28.4322C28.9227 18.4922 29.3842 18.4008 29.8165 18.2179C30.2489 18.0266 30.6272 17.7689 30.9515 17.4446C31.2757 17.1203 31.5293 16.742 31.7123 16.3097C31.9035 15.869 31.9991 15.4034 31.9991 14.9128C31.9991 14.4223 31.9035 13.9608 31.7123 13.5285C31.5293 13.0878 31.2757 12.7053 30.9515 12.3811C30.6272 12.0568 30.2489 11.8032 29.8165 11.6203C29.3842 11.4291 28.9227 11.3334 28.4322 11.3334H24.8528ZM24.8528 25.6385H21.2734V7.75404H28.4322C29.089 7.75404 29.7209 7.84135 30.3279 8.01595C30.9348 8.18224 31.5002 8.42336 32.024 8.73931C32.5562 9.04695 33.0384 9.4211 33.4708 9.86177C33.9114 10.2941 34.2856 10.7764 34.5932 11.3085C34.9092 11.8406 35.1503 12.4102 35.3166 13.0171C35.4912 13.6241 35.5785 14.256 35.5785 14.9128C35.5785 15.8939 35.3914 16.821 35.0173 17.694C34.6431 18.5587 34.1318 19.3154 33.4832 19.9639C32.8347 20.6124 32.0739 21.1238 31.2009 21.4979C30.3362 21.8721 29.4133 22.0592 28.4322 22.0592H24.8528V25.6385ZM62.5923 25.6385H59.0254V12.8675C59.0254 12.618 58.9755 12.3852 58.8758 12.169C58.7843 11.9529 58.6554 11.7658 58.4891 11.6078C58.3312 11.4415 58.1441 11.3127 57.9279 11.2212C57.7117 11.1297 57.4789 11.084 57.2295 11.084C56.98 11.084 56.7472 11.1297 56.5311 11.2212C56.3149 11.3127 56.1236 11.4415 55.9574 11.6078C55.7994 11.7658 55.6747 11.9529 55.5832 12.169C55.4917 12.3852 55.446 12.618 55.446 12.8675V25.6385H51.8666V12.8675C51.8666 12.618 51.8209 12.3852 51.7294 12.169C51.638 11.9529 51.5091 11.7658 51.3428 11.6078C51.1848 11.4415 50.9978 11.3127 50.7816 11.2212C50.5654 11.1297 50.3326 11.084 50.0832 11.084C49.8337 11.084 49.6009 11.1297 49.3847 11.2212C49.1686 11.3127 48.9773 11.4415 48.811 11.6078C48.6531 11.7658 48.5283 11.9529 48.4369 12.169C48.3454 12.3852 48.2997 12.618 48.2997 12.8675V25.6385H44.7203V12.8675C44.7203 12.1275 44.8575 11.4332 45.1319 10.7847C45.4146 10.1278 45.797 9.55829 46.2793 9.07605C46.7698 8.58549 47.3394 8.20303 47.9879 7.92865C48.6447 7.64596 49.3432 7.50461 50.0832 7.50461C50.7483 7.50461 51.3885 7.62517 52.0038 7.86629C52.6191 8.0991 53.172 8.43999 53.6626 8.88897C54.1531 8.43999 54.7019 8.0991 55.3088 7.86629C55.9241 7.62517 56.5643 7.50461 57.2295 7.50461C57.9695 7.50461 58.6637 7.64596 59.3123 7.92865C59.9691 8.20303 60.5387 8.58549 61.0209 9.07605C61.5115 9.55829 61.8939 10.1278 62.1683 10.7847C62.451 11.4332 62.5923 12.1275 62.5923 12.8675V25.6385ZM70.5992 22.3709C70.7322 22.4125 70.8653 22.4416 70.9983 22.4583C71.1313 22.4666 71.2644 22.4707 71.3974 22.4707C71.73 22.4707 72.0501 22.425 72.3577 22.3335C72.6654 22.2421 72.9522 22.1132 73.2183 21.9469C73.4927 21.7723 73.7338 21.5644 73.9416 21.3233C74.1578 21.0739 74.3324 20.7995 74.4655 20.5002L76.9598 23.007C76.6439 23.456 76.278 23.8592 75.8623 24.2168C75.4549 24.5743 75.0101 24.8778 74.5278 25.1272C74.0539 25.3766 73.5509 25.5637 73.0187 25.6884C72.4949 25.8215 71.9545 25.888 71.3974 25.888C70.4579 25.888 69.5724 25.7134 68.7409 25.3642C67.9178 25.015 67.1944 24.5286 66.5708 23.905C65.9556 23.2814 65.4692 22.5414 65.1116 21.685C64.7541 20.8203 64.5753 19.8724 64.5753 18.8414C64.5753 17.7855 64.7541 16.821 65.1116 15.948C65.4692 15.075 65.9556 14.3308 66.5708 13.7155C67.1944 13.1003 67.9178 12.6222 68.7409 12.2813C69.5724 11.9404 70.4579 11.77 71.3974 11.77C71.9545 11.77 72.4991 11.8365 73.0312 11.9695C73.5633 12.1025 74.0664 12.2938 74.5403 12.5432C75.0225 12.7926 75.4715 13.1003 75.8872 13.4661C76.303 13.8236 76.6688 14.2269 76.9847 14.6759L70.5992 22.3709ZM72.3453 15.3493C72.1873 15.2911 72.0293 15.2537 71.8713 15.2371C71.7217 15.2205 71.5637 15.2122 71.3974 15.2122C70.9318 15.2122 70.4911 15.2995 70.0754 15.4741C69.668 15.6404 69.3105 15.8815 69.0028 16.1974C68.7035 16.5134 68.4665 16.8958 68.2919 17.3448C68.1173 17.7855 68.03 18.2844 68.03 18.8414C68.03 18.9662 68.0342 19.1075 68.0425 19.2655C68.0591 19.4235 68.0799 19.5856 68.1049 19.7519C68.1381 19.9099 68.1755 20.0637 68.2171 20.2133C68.2587 20.363 68.3127 20.496 68.3792 20.6124L72.3453 15.3493ZM91.5143 25.6385H90.6912L89.3692 23.8052C89.0449 24.0962 88.6999 24.3706 88.3341 24.6283C87.9765 24.8778 87.5982 25.0981 87.1991 25.2893C86.8 25.4723 86.3885 25.6178 85.9644 25.7259C85.5487 25.8339 85.1247 25.888 84.6923 25.888C83.7528 25.888 82.8673 25.7134 82.0358 25.3642C81.2127 25.0066 80.4893 24.5161 79.8657 23.8925C79.2505 23.2606 78.7641 22.5165 78.4065 21.6601C78.049 20.7953 77.8702 19.8558 77.8702 18.8414C77.8702 17.8354 78.049 16.9 78.4065 16.0353C78.7641 15.1706 79.2505 14.4223 79.8657 13.7904C80.4893 13.1585 81.2127 12.6638 82.0358 12.3062C82.8673 11.9487 83.7528 11.77 84.6923 11.77C84.9916 11.77 85.2993 11.7949 85.6152 11.8448C85.9395 11.8947 86.2513 11.9778 86.5506 12.0942C86.8582 12.2023 87.1451 12.3478 87.4111 12.5307C87.6772 12.7136 87.9017 12.9381 88.0846 13.2042V6.96832H91.5143V25.6385ZM88.0846 18.8414C88.0846 18.3758 87.9932 17.9268 87.8102 17.4945C87.6356 17.0538 87.3945 16.6672 87.0869 16.3346C86.7792 15.9937 86.4176 15.7235 86.0018 15.524C85.5944 15.3161 85.1579 15.2122 84.6923 15.2122C84.2267 15.2122 83.786 15.2953 83.3703 15.4616C82.9629 15.6279 82.6054 15.869 82.2977 16.185C81.9984 16.4926 81.7614 16.8709 81.5868 17.3199C81.4122 17.7689 81.3249 18.2761 81.3249 18.8414C81.3249 19.332 81.4122 19.7976 81.5868 20.2383C81.7614 20.6789 81.9984 21.0656 82.2977 21.3982C82.6054 21.7307 82.9629 21.9926 83.3703 22.1839C83.786 22.3751 84.2267 22.4707 84.6923 22.4707C85.1579 22.4707 85.5944 22.3709 86.0018 22.1714C86.4176 21.9635 86.7792 21.6933 87.0869 21.3607C87.3945 21.0198 87.6356 20.6332 87.8102 20.2009C87.9932 19.7602 88.0846 19.3071 88.0846 18.8414ZM98.1369 8.65201C98.1369 8.96796 98.0745 9.26313 97.9498 9.53751C97.8334 9.81188 97.6712 10.053 97.4634 10.2609C97.2555 10.4604 97.0102 10.6225 96.7275 10.7473C96.4532 10.8637 96.158 10.9219 95.842 10.9219C95.5261 10.9219 95.2268 10.8637 94.9441 10.7473C94.6697 10.6225 94.4286 10.4604 94.2207 10.2609C94.0212 10.053 93.859 9.81188 93.7343 9.53751C93.6179 9.26313 93.5597 8.96796 93.5597 8.65201C93.5597 8.34437 93.6179 8.05337 93.7343 7.77899C93.859 7.49629 94.0212 7.25517 94.2207 7.05563C94.4286 6.84776 94.6697 6.68563 94.9441 6.56923C95.2268 6.44451 95.5261 6.38215 95.842 6.38215C96.158 6.38215 96.4532 6.44451 96.7275 6.56923C97.0102 6.68563 97.2555 6.84776 97.4634 7.05563C97.6712 7.25517 97.8334 7.49629 97.9498 7.77899C98.0745 8.05337 98.1369 8.34437 98.1369 8.65201ZM97.5507 25.6385H94.1209V12.2813H97.5507V25.6385ZM111.831 14.9378L109.336 17.4446C109.212 17.0954 109.041 16.7836 108.825 16.5092C108.609 16.2265 108.364 15.9896 108.089 15.7983C107.823 15.6071 107.532 15.4616 107.216 15.3618C106.9 15.262 106.576 15.2122 106.243 15.2122C105.778 15.2122 105.337 15.3078 104.921 15.499C104.514 15.6902 104.157 15.9605 103.849 16.3097C103.55 16.6506 103.313 17.058 103.138 17.5319C102.963 18.0058 102.876 18.5296 102.876 19.1033C102.876 19.569 102.963 20.0055 103.138 20.4129C103.313 20.8203 103.55 21.1778 103.849 21.4855C104.157 21.7931 104.514 22.0342 104.921 22.2088C105.337 22.3834 105.778 22.4707 106.243 22.4707C106.576 22.4707 106.896 22.425 107.204 22.3335C107.511 22.2421 107.798 22.1132 108.064 21.9469C108.339 21.7723 108.58 21.5644 108.788 21.3233C109.004 21.0739 109.179 20.7995 109.312 20.5002L111.806 23.007C111.49 23.456 111.124 23.8592 110.708 24.2168C110.301 24.5743 109.856 24.8778 109.374 25.1272C108.9 25.3766 108.397 25.5637 107.865 25.6884C107.341 25.8215 106.801 25.888 106.243 25.888C105.304 25.888 104.418 25.7134 103.587 25.3642C102.764 25.0066 102.041 24.5202 101.417 23.905C100.802 23.2897 100.315 22.5705 99.9577 21.7474C99.6002 20.9242 99.4214 20.0429 99.4214 19.1033C99.4214 18.0807 99.6002 17.1245 99.9577 16.2348C100.315 15.3452 100.802 14.5719 101.417 13.9151C102.041 13.2499 102.764 12.7261 103.587 12.3437C104.418 11.9612 105.304 11.77 106.243 11.77C106.801 11.77 107.345 11.8406 107.877 11.982C108.418 12.1233 108.929 12.3312 109.411 12.6056C109.902 12.8716 110.351 13.2 110.758 13.5908C111.174 13.9816 111.532 14.4306 111.831 14.9378ZM126.236 25.6385H125.413L124.091 23.8052C123.766 24.0962 123.421 24.3706 123.055 24.6283C122.698 24.8778 122.32 25.0981 121.921 25.2893C121.521 25.4723 121.11 25.6178 120.686 25.7259C120.27 25.8339 119.846 25.888 119.414 25.888C118.474 25.888 117.589 25.73 116.757 25.4141C115.934 25.0981 115.211 24.6408 114.587 24.0422C113.972 23.4352 113.485 22.6952 113.128 21.8222C112.77 20.9492 112.592 19.9556 112.592 18.8414C112.592 17.8021 112.77 16.8501 113.128 15.9854C113.485 15.1124 113.972 14.3641 114.587 13.7405C115.211 13.1169 115.934 12.6347 116.757 12.2938C117.589 11.9446 118.474 11.77 119.414 11.77C119.846 11.77 120.274 11.824 120.698 11.9321C121.122 12.0402 121.534 12.1898 121.933 12.3811C122.332 12.5723 122.71 12.7968 123.068 13.0545C123.434 13.3123 123.775 13.5908 124.091 13.8902L125.413 12.3062H126.236V25.6385ZM122.806 18.8414C122.806 18.3758 122.715 17.9268 122.532 17.4945C122.357 17.0538 122.116 16.6672 121.808 16.3346C121.501 15.9937 121.139 15.7235 120.723 15.524C120.316 15.3161 119.879 15.2122 119.414 15.2122C118.948 15.2122 118.507 15.2911 118.092 15.4491C117.684 15.6071 117.327 15.8399 117.019 16.1475C116.72 16.4552 116.483 16.8376 116.308 17.2949C116.134 17.7439 116.046 18.2594 116.046 18.8414C116.046 19.4235 116.134 19.9431 116.308 20.4004C116.483 20.8494 116.72 21.2277 117.019 21.5353C117.327 21.843 117.684 22.0758 118.092 22.2338C118.507 22.3917 118.948 22.4707 119.414 22.4707C119.879 22.4707 120.316 22.3709 120.723 22.1714C121.139 21.9635 121.501 21.6933 121.808 21.3607C122.116 21.0198 122.357 20.6332 122.532 20.2009C122.715 19.7602 122.806 19.3071 122.806 18.8414ZM132.272 25.6385H128.842V6.96832H132.272V25.6385Z" fill="#364958"/>
<path d="M155.449 11.1561V22.4713C155.449 25.0426 154.751 26.9667 153.355 28.2439C151.958 29.538 149.949 30.1851 147.327 30.1851C145.964 30.1851 144.687 30.0318 143.495 29.7253C142.303 29.4188 141.29 28.9676 140.456 28.3716L142.218 24.9745C142.78 25.4342 143.487 25.7918 144.338 26.0472C145.207 26.3197 146.058 26.4559 146.893 26.4559C148.17 26.4559 149.106 26.1749 149.702 25.613C150.298 25.0511 150.596 24.2167 150.596 23.1099V22.6501C149.66 23.7399 148.289 24.2848 146.484 24.2848C145.258 24.2848 144.125 24.0124 143.087 23.4675C142.048 22.9055 141.222 22.1222 140.609 21.1176C139.996 20.0959 139.69 18.921 139.69 17.5928C139.69 16.2816 139.996 15.1237 140.609 14.119C141.222 13.0973 142.048 12.3141 143.087 11.7692C144.125 11.2072 145.258 10.9263 146.484 10.9263C148.459 10.9263 149.907 11.5648 150.826 12.8419V11.1561H155.449ZM147.633 20.428C148.502 20.428 149.217 20.164 149.779 19.6361C150.358 19.1083 150.647 18.4271 150.647 17.5928C150.647 16.7584 150.366 16.0858 149.804 15.5749C149.242 15.0471 148.519 14.7831 147.633 14.7831C146.748 14.7831 146.016 15.0471 145.437 15.5749C144.875 16.0858 144.594 16.7584 144.594 17.5928C144.594 18.4271 144.883 19.1083 145.462 19.6361C146.041 20.164 146.765 20.428 147.633 20.428ZM162.169 12.8164C162.663 12.1863 163.301 11.7181 164.084 11.4116C164.885 11.088 165.796 10.9263 166.817 10.9263V15.294C166.375 15.2429 166.009 15.2173 165.719 15.2173C164.68 15.2173 163.863 15.4983 163.267 16.0602C162.688 16.6222 162.399 17.4821 162.399 18.64V25H157.546V11.1561H162.169V12.8164ZM174.621 25.2299C173.14 25.2299 171.803 24.9234 170.611 24.3104C169.419 23.6973 168.483 22.8459 167.801 21.7561C167.137 20.6663 166.805 19.4318 166.805 18.0525C166.805 16.6903 167.137 15.4643 167.801 14.3745C168.483 13.2847 169.411 12.4418 170.585 11.8458C171.777 11.2328 173.123 10.9263 174.621 10.9263C176.12 10.9263 177.465 11.2328 178.657 11.8458C179.849 12.4418 180.777 13.2847 181.441 14.3745C182.105 15.4472 182.437 16.6733 182.437 18.0525C182.437 19.4318 182.105 20.6663 181.441 21.7561C180.777 22.8459 179.849 23.6973 178.657 24.3104C177.465 24.9234 176.12 25.2299 174.621 25.2299ZM174.621 21.373C175.473 21.373 176.171 21.0835 176.716 20.5046C177.261 19.9086 177.533 19.0912 177.533 18.0525C177.533 17.0308 177.261 16.2305 176.716 15.6516C176.171 15.0726 175.473 14.7831 174.621 14.7831C173.77 14.7831 173.072 15.0726 172.527 15.6516C171.982 16.2305 171.709 17.0308 171.709 18.0525C171.709 19.0912 171.982 19.9086 172.527 20.5046C173.072 21.0835 173.77 21.373 174.621 21.373ZM198.223 11.1561V25H193.599V23.5186C193.089 24.0805 192.476 24.5062 191.76 24.7957C191.045 25.0851 190.287 25.2299 189.487 25.2299C187.699 25.2299 186.269 24.702 185.196 23.6463C184.14 22.5905 183.612 21.0069 183.612 18.8954V11.1561H188.465V18.1036C188.465 19.1423 188.661 19.9001 189.053 20.3769C189.445 20.8537 190.015 21.092 190.764 21.092C191.53 21.092 192.152 20.8281 192.629 20.3002C193.123 19.7553 193.369 18.9295 193.369 17.8227V11.1561H198.223ZM209.037 10.9263C210.297 10.9263 211.438 11.2243 212.459 11.8202C213.498 12.3992 214.315 13.2336 214.911 14.3234C215.524 15.3961 215.831 16.6477 215.831 18.0781C215.831 19.5084 215.524 20.7685 214.911 21.8583C214.315 22.9311 213.498 23.7655 212.459 24.3614C211.438 24.9404 210.297 25.2299 209.037 25.2299C207.419 25.2299 206.133 24.7446 205.18 23.774V29.9552H200.327V11.1561H204.95V12.5354C205.852 11.4627 207.215 10.9263 209.037 10.9263ZM208.015 21.373C208.866 21.373 209.564 21.0835 210.109 20.5046C210.654 19.9086 210.927 19.0998 210.927 18.0781C210.927 17.0564 210.654 16.2561 210.109 15.6771C209.564 15.0811 208.866 14.7831 208.015 14.7831C207.164 14.7831 206.465 15.0811 205.92 15.6771C205.376 16.2561 205.103 17.0564 205.103 18.0781C205.103 19.0998 205.376 19.9086 205.92 20.5046C206.465 21.0835 207.164 21.373 208.015 21.373Z" fill="#364958"/>
</g>
<defs>
<filter id="filter0_d" x="0.611145" y="6.3822" width="219.389" height="106.341" filterUnits="userSpaceOnUse" color-interpolation-filters="sRGB">
<feFlood flood-opacity="0" result="BackgroundImageFix"/>
<feColorMatrix in="SourceAlpha" type="matrix" values="0 0 0 0 0 0 0 0 0 0 0 0 0 0 0 0 0 0 127 0"/>
<feOffset dy="4"/>
<feGaussianBlur stdDeviation="2"/>
<feColorMatrix type="matrix" values="0 0 0 0 0 0 0 0 0 0 0 0 0 0 0 0 0 0 0.25 0"/>
<feBlend mode="normal" in2="BackgroundImageFix" result="effect1_dropShadow"/>
<feBlend mode="normal" in="SourceGraphic" in2="effect1_dropShadow" result="shape"/>
</filter>
</defs>
</svg>
