<svg width="64" height="68" viewBox="0 0 64 68" fill="none" xmlns="http://www.w3.org/2000/svg">
<path d="M26.9751 57.1486L14.0927 44.0573L19.0127 39.0561L26.9891 47.1675L45.393 28.4601L50.313 33.4612L26.9751 57.1486ZM63.491 14.736V60.683C63.491 62.5578 62.7584 64.3557 61.4542 65.6814C60.1501 67.007 58.3813 67.7518 56.5369 67.7518H7.85838C6.01404 67.7518 4.24524 67.007 2.9411 65.6814C1.63696 64.3557 0.904297 62.5578 0.904297 60.683V14.736C0.904297 12.8613 1.63696 11.0633 2.9411 9.73767C4.24524 8.41202 6.01404 7.66728 7.85838 7.66728H11.3354V0.598511H18.2895V7.66728H46.1058V0.598511H53.0599V7.66728H56.5369C58.3813 7.66728 60.1501 8.41202 61.4542 9.73767C62.7584 11.0633 63.491 12.8613 63.491 14.736ZM56.5369 21.8048H7.85838V60.683H56.5369V21.8048Z" fill="white"/>
</svg>
