<svg width="59" height="61" viewBox="0 0 59 61" fill="none" xmlns="http://www.w3.org/2000/svg">
<path d="M43.0866 0.437988C46.0897 0.437988 48.9698 1.65063 51.0933 3.80916C53.2168 5.96768 54.4098 8.89527 54.4098 11.9479V20.037C49.9512 16.288 44.3437 14.2409 38.5574 14.2499H49.8805V11.9479C49.8805 10.1163 49.1648 8.35976 47.8907 7.06465C46.6165 5.76953 44.8885 5.04195 43.0866 5.04195H11.3818C9.57991 5.04195 7.85185 5.76953 6.57775 7.06465C5.30365 8.35976 4.58786 10.1163 4.58786 11.9479V14.2499H38.5574C33.2264 14.2499 28.285 15.9533 24.2313 18.8538H4.58786V44.1756C4.58786 46.0072 5.30365 47.7637 6.57775 49.0588C7.85185 50.3539 9.57991 51.0815 11.3818 51.0815H16.364C17.1928 52.7298 18.1938 54.2721 19.3397 55.6855H11.3818C8.37867 55.6855 5.49858 54.4728 3.37507 52.3143C1.25157 50.1558 0.0585938 47.2282 0.0585938 44.1756V11.9479C0.0585938 8.89527 1.25157 5.96768 3.37507 3.80916C5.49858 1.65063 8.37867 0.437988 11.3818 0.437988H43.0866Z" fill="white"/>
<path d="M58.9416 39.5742C58.9416 42.2949 58.4144 44.989 57.3901 47.5026C56.3659 50.0162 54.8646 52.3001 52.9719 54.2239C51.0793 56.1478 48.8325 57.6738 46.3596 58.715C43.8868 59.7562 41.2365 60.2921 38.5599 60.2921C35.8834 60.2921 33.233 59.7562 30.7602 58.715C28.2874 57.6738 26.0405 56.1478 24.1479 54.2239C22.2553 52.3001 20.754 50.0162 19.7297 47.5026C18.7054 44.989 18.1782 42.2949 18.1782 39.5742C18.1782 34.0795 20.3256 28.8099 24.1479 24.9245C27.9702 21.0392 33.1544 18.8564 38.5599 18.8564C43.9655 18.8564 49.1496 21.0392 52.9719 24.9245C56.7943 28.8099 58.9416 34.0795 58.9416 39.5742V39.5742ZM46.9572 34.2981C47.1677 34.0841 47.3347 33.83 47.4487 33.5504C47.5627 33.2707 47.6213 32.971 47.6213 32.6683C47.6213 32.3656 47.5627 32.0659 47.4487 31.7863C47.3347 31.5066 47.1677 31.2525 46.9572 31.0385C46.7466 30.8245 46.4966 30.6547 46.2215 30.5389C45.9464 30.423 45.6516 30.3634 45.3538 30.3634C45.056 30.3634 44.7612 30.423 44.4861 30.5389C44.211 30.6547 43.961 30.8245 43.7504 31.0385L38.5599 36.3193L33.3694 31.0385C32.9441 30.6063 32.3674 30.3634 31.766 30.3634C31.1646 30.3634 30.5879 30.6063 30.1627 31.0385C29.7374 31.4708 29.4985 32.057 29.4985 32.6683C29.4985 33.2796 29.7374 33.8659 30.1627 34.2981L35.3577 39.5742L30.1627 44.8504C29.7374 45.2826 29.4985 45.8689 29.4985 46.4802C29.4985 47.0915 29.7374 47.6777 30.1627 48.11C30.5879 48.5422 31.1646 48.7851 31.766 48.7851C32.3674 48.7851 32.9441 48.5422 33.3694 48.11L38.5599 42.8292L43.7504 48.11C44.1757 48.5422 44.7524 48.7851 45.3538 48.7851C45.9552 48.7851 46.5319 48.5422 46.9572 48.11C47.3824 47.6777 47.6213 47.0915 47.6213 46.4802C47.6213 45.8689 47.3824 45.2826 46.9572 44.8504L41.7621 39.5742L46.9572 34.2981V34.2981Z" fill="white"/>
</svg>
