<svg width="179" height="94" viewBox="0 0 179 94" fill="none" xmlns="http://www.w3.org/2000/svg">
<g filter="url(#filter0_d)">
<rect x="33.1719" y="85.6493" width="56.3018" height="25.1479" rx="12.574" transform="rotate(-90 33.1719 85.6493)" fill="#364958"/>
<rect x="4" y="85.6493" width="56.3018" height="26.1538" rx="13.0769" transform="rotate(-90 4 85.6493)" fill="#39A0ED"/>
<path fill-rule="evenodd" clip-rule="evenodd" d="M111.538 86C109.59 83.9136 108.406 81.1583 108.406 78.1378V69.293H102.257C95.4643 69.293 89.958 64.0131 89.958 57.4999C89.958 50.9868 95.4643 45.7068 102.257 45.7068H108.406V36.862C108.406 33.8416 109.59 31.0864 111.538 29H84.5175C73.9376 29 65.3608 37.5767 65.3608 48.1566V66.8434C65.3608 77.4233 73.9375 86 84.5174 86H111.538ZM129.872 86H154.843C165.423 86 174 77.4233 174 66.8434V48.1566C174 37.5767 165.423 29 154.843 29H129.872C131.82 31.0864 133.004 33.8416 133.004 36.862V45.7068H137.103C143.896 45.7068 149.402 50.9868 149.402 57.4999C149.402 64.0131 143.896 69.293 137.103 69.293H133.004V78.1378C133.004 81.1583 131.819 83.9136 129.872 86Z" fill="white"/>
<path d="M4.47852 12.1953C4.47852 11.6159 4.58919 11.0723 4.81055 10.5645C5.0319 10.0566 5.33138 9.61393 5.70898 9.23633C6.0931 8.85221 6.53906 8.54948 7.04688 8.32812C7.55469 8.10677 8.09831 7.99609 8.67773 7.99609H15.1035V10.7988H8.67773C8.48242 10.7988 8.30013 10.8346 8.13086 10.9062C7.96159 10.9779 7.81185 11.0788 7.68164 11.209C7.55794 11.3327 7.46029 11.4792 7.38867 11.6484C7.31706 11.8177 7.28125 12 7.28125 12.1953C7.28125 12.3906 7.31706 12.5762 7.38867 12.752C7.46029 12.9212 7.55794 13.071 7.68164 13.2012C7.81185 13.3249 7.96159 13.4225 8.13086 13.4941C8.30013 13.5658 8.48242 13.6016 8.67773 13.6016H11.4805C12.0599 13.6016 12.6035 13.7122 13.1113 13.9336C13.6257 14.1484 14.0716 14.4479 14.4492 14.832C14.8333 15.2096 15.1328 15.6556 15.3477 16.1699C15.569 16.6777 15.6797 17.2214 15.6797 17.8008C15.6797 18.3802 15.569 18.9238 15.3477 19.4316C15.1328 19.9395 14.8333 20.3854 14.4492 20.7695C14.0716 21.1471 13.6257 21.4466 13.1113 21.668C12.6035 21.8893 12.0599 22 11.4805 22H5.25977V19.1973H11.4805C11.6758 19.1973 11.8581 19.1615 12.0273 19.0898C12.1966 19.0182 12.3431 18.9206 12.4668 18.7969C12.597 18.6667 12.6979 18.5169 12.7695 18.3477C12.8411 18.1784 12.877 17.9961 12.877 17.8008C12.877 17.6055 12.8411 17.4232 12.7695 17.2539C12.6979 17.0846 12.597 16.9382 12.4668 16.8145C12.3431 16.6842 12.1966 16.5833 12.0273 16.5117C11.8581 16.4401 11.6758 16.4043 11.4805 16.4043H8.67773C8.09831 16.4043 7.55469 16.2936 7.04688 16.0723C6.53906 15.8509 6.0931 15.5514 5.70898 15.1738C5.33138 14.7897 5.0319 14.3438 4.81055 13.8359C4.58919 13.3216 4.47852 12.7747 4.47852 12.1953ZM20.3281 10.7988V16.4043H23.1309C23.515 16.4043 23.8763 16.3327 24.2148 16.1895C24.5534 16.0397 24.8496 15.8379 25.1035 15.584C25.3574 15.3301 25.556 15.0339 25.6992 14.6953C25.849 14.3503 25.9238 13.9857 25.9238 13.6016C25.9238 13.2174 25.849 12.8561 25.6992 12.5176C25.556 12.1725 25.3574 11.873 25.1035 11.6191C24.8496 11.3652 24.5534 11.1667 24.2148 11.0234C23.8763 10.8737 23.515 10.7988 23.1309 10.7988H20.3281ZM20.3281 22H17.5254V7.99609H23.1309C23.6452 7.99609 24.14 8.06445 24.6152 8.20117C25.0905 8.33138 25.5332 8.52018 25.9434 8.76758C26.36 9.00846 26.7376 9.30143 27.0762 9.64648C27.4212 9.98503 27.7142 10.3626 27.9551 10.7793C28.2025 11.196 28.3913 11.6419 28.5215 12.1172C28.6582 12.5924 28.7266 13.0872 28.7266 13.6016C28.7266 14.3698 28.5801 15.0957 28.2871 15.7793C27.9941 16.4564 27.5938 17.0488 27.0859 17.5566C26.5781 18.0645 25.9824 18.4648 25.2988 18.7578C24.6217 19.0508 23.8991 19.1973 23.1309 19.1973H20.3281V22Z" fill="#364958"/>
<path d="M49.8789 22H47.0859V12C47.0859 11.8047 47.0469 11.6224 46.9688 11.4531C46.8971 11.2839 46.7962 11.1374 46.666 11.0137C46.5423 10.8835 46.3958 10.7826 46.2266 10.7109C46.0573 10.6393 45.875 10.6035 45.6797 10.6035C45.4844 10.6035 45.3021 10.6393 45.1328 10.7109C44.9635 10.7826 44.8138 10.8835 44.6836 11.0137C44.5599 11.1374 44.4622 11.2839 44.3906 11.4531C44.319 11.6224 44.2832 11.8047 44.2832 12V22H41.4805V12C41.4805 11.8047 41.4447 11.6224 41.373 11.4531C41.3014 11.2839 41.2005 11.1374 41.0703 11.0137C40.9466 10.8835 40.8001 10.7826 40.6309 10.7109C40.4616 10.6393 40.2793 10.6035 40.084 10.6035C39.8887 10.6035 39.7064 10.6393 39.5371 10.7109C39.3678 10.7826 39.2181 10.8835 39.0879 11.0137C38.9642 11.1374 38.8665 11.2839 38.7949 11.4531C38.7233 11.6224 38.6875 11.8047 38.6875 12V22H35.8848V12C35.8848 11.4206 35.9922 10.877 36.207 10.3691C36.4284 9.85482 36.7279 9.40885 37.1055 9.03125C37.4896 8.64714 37.9355 8.34766 38.4434 8.13281C38.9577 7.91146 39.5046 7.80078 40.084 7.80078C40.6048 7.80078 41.1061 7.89518 41.5879 8.08398C42.0697 8.26628 42.5026 8.5332 42.8867 8.88477C43.2708 8.5332 43.7005 8.26628 44.1758 8.08398C44.6576 7.89518 45.1589 7.80078 45.6797 7.80078C46.2591 7.80078 46.8027 7.91146 47.3105 8.13281C47.8249 8.34766 48.2708 8.64714 48.6484 9.03125C49.0326 9.40885 49.332 9.85482 49.5469 10.3691C49.7682 10.877 49.8789 11.4206 49.8789 12V22ZM56.1484 19.4414C56.2526 19.474 56.3568 19.4967 56.4609 19.5098C56.5651 19.5163 56.6693 19.5195 56.7734 19.5195C57.0339 19.5195 57.2845 19.4837 57.5254 19.4121C57.7663 19.3405 57.9909 19.2396 58.1992 19.1094C58.4141 18.9727 58.6029 18.8099 58.7656 18.6211C58.9349 18.4258 59.0716 18.2109 59.1758 17.9766L61.1289 19.9395C60.8815 20.291 60.5951 20.6068 60.2695 20.8867C59.9505 21.1667 59.6022 21.4043 59.2246 21.5996C58.8535 21.7949 58.4596 21.9414 58.043 22.0391C57.6328 22.1432 57.2096 22.1953 56.7734 22.1953C56.0378 22.1953 55.3444 22.0586 54.6934 21.7852C54.0488 21.5117 53.4824 21.1309 52.9941 20.6426C52.5124 20.1543 52.1315 19.5749 51.8516 18.9043C51.5716 18.2272 51.4316 17.485 51.4316 16.6777C51.4316 15.8509 51.5716 15.0957 51.8516 14.4121C52.1315 13.7285 52.5124 13.1458 52.9941 12.6641C53.4824 12.1823 54.0488 11.8079 54.6934 11.541C55.3444 11.2741 56.0378 11.1406 56.7734 11.1406C57.2096 11.1406 57.6361 11.1927 58.0527 11.2969C58.4694 11.401 58.8633 11.5508 59.2344 11.7461C59.612 11.9414 59.9635 12.1823 60.2891 12.4688C60.6146 12.7487 60.901 13.0645 61.1484 13.416L56.1484 19.4414ZM57.5156 13.9434C57.3919 13.8978 57.2682 13.8685 57.1445 13.8555C57.0273 13.8424 56.9036 13.8359 56.7734 13.8359C56.4089 13.8359 56.0638 13.9043 55.7383 14.041C55.4193 14.1712 55.1393 14.36 54.8984 14.6074C54.6641 14.8548 54.4785 15.1543 54.3418 15.5059C54.2051 15.8509 54.1367 16.2415 54.1367 16.6777C54.1367 16.7754 54.14 16.8861 54.1465 17.0098C54.1595 17.1335 54.1758 17.2604 54.1953 17.3906C54.2214 17.5143 54.2507 17.6348 54.2832 17.752C54.3158 17.8691 54.3581 17.9733 54.4102 18.0645L57.5156 13.9434ZM72.5254 22H71.8809L70.8457 20.5645C70.5918 20.7923 70.3216 21.0072 70.0352 21.209C69.7552 21.4043 69.459 21.5768 69.1465 21.7266C68.834 21.8698 68.5117 21.9837 68.1797 22.0684C67.8542 22.153 67.5221 22.1953 67.1836 22.1953C66.4479 22.1953 65.7546 22.0586 65.1035 21.7852C64.459 21.5052 63.8926 21.1211 63.4043 20.6328C62.9225 20.138 62.5417 19.5553 62.2617 18.8848C61.9818 18.2077 61.8418 17.472 61.8418 16.6777C61.8418 15.89 61.9818 15.1576 62.2617 14.4805C62.5417 13.8034 62.9225 13.2174 63.4043 12.7227C63.8926 12.2279 64.459 11.8405 65.1035 11.5605C65.7546 11.2806 66.4479 11.1406 67.1836 11.1406C67.418 11.1406 67.6589 11.1602 67.9062 11.1992C68.1602 11.2383 68.4043 11.3034 68.6387 11.3945C68.8796 11.4792 69.1042 11.5931 69.3125 11.7363C69.5208 11.8796 69.6966 12.0553 69.8398 12.2637V7.38086H72.5254V22ZM69.8398 16.6777C69.8398 16.3132 69.7682 15.9616 69.625 15.623C69.4883 15.278 69.2995 14.9753 69.0586 14.7148C68.8177 14.4479 68.5345 14.2363 68.209 14.0801C67.89 13.9173 67.5482 13.8359 67.1836 13.8359C66.819 13.8359 66.474 13.901 66.1484 14.0312C65.8294 14.1615 65.5495 14.3503 65.3086 14.5977C65.0742 14.8385 64.8887 15.1348 64.752 15.4863C64.6152 15.8379 64.5469 16.235 64.5469 16.6777C64.5469 17.0618 64.6152 17.4264 64.752 17.7715C64.8887 18.1165 65.0742 18.4193 65.3086 18.6797C65.5495 18.9401 65.8294 19.1452 66.1484 19.2949C66.474 19.4447 66.819 19.5195 67.1836 19.5195C67.5482 19.5195 67.89 19.4414 68.209 19.2852C68.5345 19.1224 68.8177 18.9108 69.0586 18.6504C69.2995 18.3835 69.4883 18.0807 69.625 17.7422C69.7682 17.3971 69.8398 17.0423 69.8398 16.6777ZM77.7109 8.69922C77.7109 8.94661 77.6621 9.17773 77.5645 9.39258C77.4733 9.60742 77.3464 9.79622 77.1836 9.95898C77.0208 10.1152 76.8288 10.2422 76.6074 10.3398C76.3926 10.431 76.1615 10.4766 75.9141 10.4766C75.6667 10.4766 75.4323 10.431 75.2109 10.3398C74.9961 10.2422 74.8073 10.1152 74.6445 9.95898C74.4883 9.79622 74.3613 9.60742 74.2637 9.39258C74.1725 9.17773 74.127 8.94661 74.127 8.69922C74.127 8.45833 74.1725 8.23047 74.2637 8.01562C74.3613 7.79427 74.4883 7.60547 74.6445 7.44922C74.8073 7.28646 74.9961 7.15951 75.2109 7.06836C75.4323 6.9707 75.6667 6.92188 75.9141 6.92188C76.1615 6.92188 76.3926 6.9707 76.6074 7.06836C76.8288 7.15951 77.0208 7.28646 77.1836 7.44922C77.3464 7.60547 77.4733 7.79427 77.5645 8.01562C77.6621 8.23047 77.7109 8.45833 77.7109 8.69922ZM77.252 22H74.5664V11.541H77.252V22ZM88.4336 13.6211L86.4805 15.584C86.3828 15.3105 86.2493 15.0664 86.0801 14.8516C85.9108 14.6302 85.7188 14.4447 85.5039 14.2949C85.2956 14.1452 85.0677 14.0312 84.8203 13.9531C84.5729 13.875 84.319 13.8359 84.0586 13.8359C83.694 13.8359 83.349 13.9108 83.0234 14.0605C82.7044 14.2103 82.4245 14.4219 82.1836 14.6953C81.9492 14.9622 81.7637 15.2812 81.627 15.6523C81.4902 16.0234 81.4219 16.4336 81.4219 16.8828C81.4219 17.2474 81.4902 17.5892 81.627 17.9082C81.7637 18.2272 81.9492 18.5072 82.1836 18.748C82.4245 18.9889 82.7044 19.1777 83.0234 19.3145C83.349 19.4512 83.694 19.5195 84.0586 19.5195C84.319 19.5195 84.5697 19.4837 84.8105 19.4121C85.0514 19.3405 85.276 19.2396 85.4844 19.1094C85.6992 18.9727 85.888 18.8099 86.0508 18.6211C86.2201 18.4258 86.3568 18.2109 86.4609 17.9766L88.4141 19.9395C88.1667 20.291 87.8802 20.6068 87.5547 20.8867C87.2357 21.1667 86.8874 21.4043 86.5098 21.5996C86.1387 21.7949 85.7448 21.9414 85.3281 22.0391C84.918 22.1432 84.4948 22.1953 84.0586 22.1953C83.3229 22.1953 82.6296 22.0586 81.9785 21.7852C81.334 21.5052 80.7676 21.1243 80.2793 20.6426C79.7975 20.1608 79.4167 19.5977 79.1367 18.9531C78.8568 18.3086 78.7168 17.6185 78.7168 16.8828C78.7168 16.082 78.8568 15.3333 79.1367 14.6367C79.4167 13.9401 79.7975 13.3346 80.2793 12.8203C80.7676 12.2995 81.334 11.8893 81.9785 11.5898C82.6296 11.2904 83.3229 11.1406 84.0586 11.1406C84.4948 11.1406 84.9212 11.196 85.3379 11.3066C85.7611 11.4173 86.1615 11.5801 86.5391 11.7949C86.9232 12.0033 87.2747 12.2604 87.5938 12.5664C87.9193 12.8724 88.1992 13.224 88.4336 13.6211ZM99.7129 22H99.0684L98.0332 20.5645C97.7793 20.7923 97.5091 21.0072 97.2227 21.209C96.9427 21.4043 96.6465 21.5768 96.334 21.7266C96.0215 21.8698 95.6992 21.9837 95.3672 22.0684C95.0417 22.153 94.7096 22.1953 94.3711 22.1953C93.6354 22.1953 92.9421 22.0716 92.291 21.8242C91.6465 21.5768 91.0801 21.2188 90.5918 20.75C90.11 20.2747 89.7292 19.6953 89.4492 19.0117C89.1693 18.3281 89.0293 17.5501 89.0293 16.6777C89.0293 15.8639 89.1693 15.1185 89.4492 14.4414C89.7292 13.7578 90.11 13.1719 90.5918 12.6836C91.0801 12.1953 91.6465 11.8177 92.291 11.5508C92.9421 11.2773 93.6354 11.1406 94.3711 11.1406C94.7096 11.1406 95.0449 11.1829 95.377 11.2676C95.709 11.3522 96.0312 11.4694 96.3438 11.6191C96.6562 11.7689 96.9525 11.9447 97.2324 12.1465C97.5189 12.3483 97.7858 12.5664 98.0332 12.8008L99.0684 11.5605H99.7129V22ZM97.0273 16.6777C97.0273 16.3132 96.9557 15.9616 96.8125 15.623C96.6758 15.278 96.487 14.9753 96.2461 14.7148C96.0052 14.4479 95.722 14.2363 95.3965 14.0801C95.0775 13.9173 94.7357 13.8359 94.3711 13.8359C94.0065 13.8359 93.6615 13.8978 93.3359 14.0215C93.0169 14.1452 92.737 14.3275 92.4961 14.5684C92.2617 14.8092 92.0762 15.1087 91.9395 15.4668C91.8027 15.8184 91.7344 16.222 91.7344 16.6777C91.7344 17.1335 91.8027 17.5404 91.9395 17.8984C92.0762 18.25 92.2617 18.5462 92.4961 18.7871C92.737 19.028 93.0169 19.2103 93.3359 19.334C93.6615 19.4577 94.0065 19.5195 94.3711 19.5195C94.7357 19.5195 95.0775 19.4414 95.3965 19.2852C95.722 19.1224 96.0052 18.9108 96.2461 18.6504C96.487 18.3835 96.6758 18.0807 96.8125 17.7422C96.9557 17.3971 97.0273 17.0423 97.0273 16.6777ZM104.439 22H101.754V7.38086H104.439V22Z" fill="white"/>
<path d="M125.88 10.16V19.02C125.88 21.0333 125.333 22.54 124.24 23.54C123.147 24.5533 121.573 25.06 119.52 25.06C118.453 25.06 117.453 24.94 116.52 24.7C115.587 24.46 114.793 24.1067 114.14 23.64L115.52 20.98C115.96 21.34 116.513 21.62 117.18 21.82C117.86 22.0333 118.527 22.14 119.18 22.14C120.18 22.14 120.913 21.92 121.38 21.48C121.847 21.04 122.08 20.3867 122.08 19.52V19.16C121.347 20.0133 120.273 20.44 118.86 20.44C117.9 20.44 117.013 20.2267 116.2 19.8C115.387 19.36 114.74 18.7467 114.26 17.96C113.78 17.16 113.54 16.24 113.54 15.2C113.54 14.1733 113.78 13.2667 114.26 12.48C114.74 11.68 115.387 11.0667 116.2 10.64C117.013 10.2 117.9 9.98 118.86 9.98C120.407 9.98 121.54 10.48 122.26 11.48V10.16H125.88ZM119.76 17.42C120.44 17.42 121 17.2133 121.44 16.8C121.893 16.3867 122.12 15.8533 122.12 15.2C122.12 14.5467 121.9 14.02 121.46 13.62C121.02 13.2067 120.453 13 119.76 13C119.067 13 118.493 13.2067 118.04 13.62C117.6 14.02 117.38 14.5467 117.38 15.2C117.38 15.8533 117.607 16.3867 118.06 16.8C118.513 17.2133 119.08 17.42 119.76 17.42ZM131.142 11.46C131.528 10.9667 132.028 10.6 132.642 10.36C133.268 10.1067 133.982 9.98 134.782 9.98V13.4C134.435 13.36 134.148 13.34 133.922 13.34C133.108 13.34 132.468 13.56 132.002 14C131.548 14.44 131.322 15.1133 131.322 16.02V21H127.522V10.16H131.142V11.46ZM141.029 21.18C139.869 21.18 138.822 20.94 137.889 20.46C136.955 19.98 136.222 19.3133 135.689 18.46C135.169 17.6067 134.909 16.64 134.909 15.56C134.909 14.4933 135.169 13.5333 135.689 12.68C136.222 11.8267 136.949 11.1667 137.869 10.7C138.802 10.22 139.855 9.98 141.029 9.98C142.202 9.98 143.255 10.22 144.189 10.7C145.122 11.1667 145.849 11.8267 146.369 12.68C146.889 13.52 147.149 14.48 147.149 15.56C147.149 16.64 146.889 17.6067 146.369 18.46C145.849 19.3133 145.122 19.98 144.189 20.46C143.255 20.94 142.202 21.18 141.029 21.18ZM141.029 18.16C141.695 18.16 142.242 17.9333 142.669 17.48C143.095 17.0133 143.309 16.3733 143.309 15.56C143.309 14.76 143.095 14.1333 142.669 13.68C142.242 13.2267 141.695 13 141.029 13C140.362 13 139.815 13.2267 139.389 13.68C138.962 14.1333 138.749 14.76 138.749 15.56C138.749 16.3733 138.962 17.0133 139.389 17.48C139.815 17.9333 140.362 18.16 141.029 18.16ZM160.309 10.16V21H156.689V19.84C156.289 20.28 155.809 20.6133 155.249 20.84C154.689 21.0667 154.096 21.18 153.469 21.18C152.069 21.18 150.949 20.7667 150.109 19.94C149.282 19.1133 148.869 17.8733 148.869 16.22V10.16H152.669V15.6C152.669 16.4133 152.822 17.0067 153.129 17.38C153.436 17.7533 153.882 17.94 154.469 17.94C155.069 17.94 155.556 17.7333 155.929 17.32C156.316 16.8933 156.509 16.2467 156.509 15.38V10.16H160.309ZM168.777 9.98C169.763 9.98 170.657 10.2133 171.457 10.68C172.27 11.1333 172.91 11.7867 173.377 12.64C173.857 13.48 174.097 14.46 174.097 15.58C174.097 16.7 173.857 17.6867 173.377 18.54C172.91 19.38 172.27 20.0333 171.457 20.5C170.657 20.9533 169.763 21.18 168.777 21.18C167.51 21.18 166.503 20.8 165.757 20.04V24.88H161.957V10.16H165.577V11.24C166.283 10.4 167.35 9.98 168.777 9.98ZM167.977 18.16C168.643 18.16 169.19 17.9333 169.617 17.48C170.043 17.0133 170.257 16.38 170.257 15.58C170.257 14.78 170.043 14.1533 169.617 13.7C169.19 13.2333 168.643 13 167.977 13C167.31 13 166.763 13.2333 166.337 13.7C165.91 14.1533 165.697 14.78 165.697 15.58C165.697 16.38 165.91 17.0133 166.337 17.48C166.763 17.9333 167.31 18.16 167.977 18.16Z" fill="white"/>
</g>
<defs>
<filter id="filter0_d" x="0" y="6.92188" width="178.097" height="87.0781" filterUnits="userSpaceOnUse" color-interpolation-filters="sRGB">
<feFlood flood-opacity="0" result="BackgroundImageFix"/>
<feColorMatrix in="SourceAlpha" type="matrix" values="0 0 0 0 0 0 0 0 0 0 0 0 0 0 0 0 0 0 127 0"/>
<feOffset dy="4"/>
<feGaussianBlur stdDeviation="2"/>
<feColorMatrix type="matrix" values="0 0 0 0 0 0 0 0 0 0 0 0 0 0 0 0 0 0 0.25 0"/>
<feBlend mode="normal" in2="BackgroundImageFix" result="effect1_dropShadow"/>
<feBlend mode="normal" in="SourceGraphic" in2="effect1_dropShadow" result="shape"/>
</filter>
</defs>
</svg>
