<svg width="38" height="40" viewBox="0 0 38 40" fill="none" xmlns="http://www.w3.org/2000/svg">
<path d="M19.2656 39.9141C18.4766 39.8438 17.3672 39.4766 16.625 39.0469C15.8906 38.625 14.75 37.4844 14.3281 36.75C13.875 35.961 13.5469 34.9297 13.4531 34.0078C13.4141 33.5859 13.375 32.5 13.375 31.5859V29.9375L13.0469 29.8828C11.3125 29.5938 9.60156 28.2266 8.86719 26.5547C8.42969 25.5703 8.41406 25.3828 8.41406 21.6797V18.2422L8.61719 17.8125C8.72656 17.5703 8.9375 17.25 9.07031 17.0859C9.42969 16.6875 10.1797 16.3281 10.7031 16.3203C11.2188 16.3047 11.4219 16.4609 11.4219 16.875C11.4219 17.2422 11.2422 17.4062 10.7734 17.4688C10.3203 17.5312 9.98438 17.7344 9.78125 18.0625C9.63281 18.3125 9.625 18.4688 9.625 21.6797C9.625 24.4063 9.64844 25.1328 9.74219 25.4922C10.125 26.9766 11.3984 28.25 12.8828 28.6328C13.4531 28.7813 14.5469 28.7813 15.1172 28.6328C16.6016 28.25 17.875 26.9766 18.2578 25.4922C18.3516 25.1328 18.375 24.4063 18.375 21.6797C18.375 18.4688 18.3672 18.3125 18.2188 18.0625C18.0156 17.7344 17.6797 17.5312 17.2266 17.4688C16.7578 17.4062 16.5781 17.2422 16.5781 16.875C16.5781 16.4609 16.7812 16.3047 17.2969 16.3203C17.8203 16.3281 18.5703 16.6875 18.9297 17.0859C19.0625 17.25 19.2734 17.5703 19.3828 17.8125L19.5859 18.2422L19.6094 21.1094C19.6406 24.3359 19.5781 25.3203 19.2656 26.1797C18.7031 27.7734 17.4062 29.0703 15.8359 29.6328C15.5391 29.7344 15.1406 29.8516 14.9609 29.8828L14.625 29.9375V32.1016C14.625 34.5391 14.6875 34.9219 15.2344 35.9766C15.6328 36.7344 16.6562 37.7578 17.4141 38.1485C18.9766 38.961 20.9062 38.9531 22.4609 38.1485C23.2266 37.7578 24.25 36.7344 24.6406 35.9766C25.2031 34.8985 25.2578 34.5313 25.2344 32.0703L25.2109 29.9063L24.7656 29.7656C24.1562 29.5781 23.7266 29.3125 23.2344 28.8125C21.4609 27.0313 22.0078 24.0391 24.3125 22.9063C24.8906 22.6172 24.9062 22.6172 25.875 22.6172C26.8438 22.6172 26.8594 22.6172 27.4375 22.9063C28.2188 23.2891 28.8438 23.9141 29.2188 24.6875C29.4688 25.2109 29.5078 25.3516 29.5312 26.0391C29.5859 27.2188 29.2812 28.0469 28.5078 28.8281C28.0234 29.3125 27.5938 29.5781 26.9844 29.7656L26.5391 29.9063L26.4844 32.1172C26.4297 34.5 26.375 34.8984 25.9297 36C25.4766 37.1172 24.3281 38.4141 23.2344 39.0547C22.5547 39.4531 21.4375 39.8281 20.7812 39.8906C20.5078 39.9141 20.2031 39.9375 20.0938 39.9531C19.9844 39.961 19.6094 39.9453 19.2656 39.9141ZM25.25 27.9844C25.25 27.375 25.2266 27.2734 25.0859 27.1406C24.1875 26.3281 25 24.7734 26.1641 25.0938C27.0781 25.3359 27.3594 26.5078 26.6641 27.1406C26.5234 27.2734 26.5 27.375 26.5 27.9844C26.5 28.4609 26.5312 28.6719 26.5938 28.6719C26.8281 28.6719 27.3906 28.3047 27.7422 27.9297C28.1953 27.4219 28.375 26.9609 28.375 26.25C28.375 25.4688 28.1953 25.0469 27.6406 24.4844C27.0781 23.9297 26.6562 23.75 25.875 23.75C25.0938 23.75 24.6719 23.9297 24.1094 24.4844C23.5547 25.0469 23.375 25.4688 23.375 26.25C23.375 26.9609 23.5547 27.4219 24.0078 27.9219C24.3594 28.3125 24.9141 28.6719 25.1562 28.6719C25.2266 28.6719 25.25 28.4844 25.25 27.9844Z" fill="white"/>
<path d="M2.39062 33.6719C1.89062 33.6016 1.25 33.2578 0.9375 32.8984C0.804687 32.75 0.601563 32.4297 0.492188 32.1875L0.289062 31.7578V4.49219L0.492188 4.0625C0.78125 3.4375 1.125 3.08594 1.71875 2.79688L2.24219 2.53906L4.04688 2.50781L5.85938 2.48438L5.91406 1.92188C6.01562 0.765625 6.70312 0.078125 7.75 0.078125C8.79688 0.078125 9.48438 0.765625 9.58594 1.92969L9.64062 2.5H28.3594L28.4141 1.92969C28.5156 0.765625 29.2031 0.078125 30.25 0.078125C31.2969 0.078125 31.9844 0.765625 32.0859 1.92188L32.1406 2.48438L33.9531 2.50781L35.7578 2.53906L36.2812 2.79688C36.875 3.08594 37.2188 3.4375 37.5078 4.0625L37.7109 4.49219V31.7578L37.4531 32.2812C37.1641 32.875 36.8125 33.2188 36.1875 33.5078L35.7578 33.7109H31.9609C28.3281 33.7109 28.1484 33.7031 27.9922 33.5625C27.7656 33.3594 27.7656 32.8906 27.9922 32.6875C28.1484 32.5469 28.3594 32.5391 31.9609 32.5C36.1797 32.4531 36.0156 32.4766 36.3438 31.9297C36.5 31.6875 36.5 31.4453 36.5 20.8438V10H1.5V20.8438C1.5 31.4453 1.5 31.6875 1.65625 31.9297C1.99219 32.4844 1.71094 32.4531 6.97656 32.5C11.5 32.5391 11.7266 32.5469 11.8828 32.6875C12.1094 32.8906 12.1094 33.3594 11.8828 33.5625C11.7266 33.7031 11.5234 33.7109 7.25 33.7188C4.79688 33.7266 2.60938 33.7031 2.39062 33.6719ZM36.5 6.66406C36.5 4.71094 36.4922 4.55469 36.3438 4.3125C36.2578 4.17188 36.0781 3.99219 35.9375 3.90625C35.7031 3.76562 35.5391 3.75 33.9141 3.75H32.1484L32.1016 4.61719C32.0625 5.375 32.0312 5.52344 31.8281 5.88281C31.1406 7.11719 29.3594 7.11719 28.6719 5.88281C28.4688 5.52344 28.4375 5.375 28.3984 4.61719L28.3516 3.75H9.64844L9.60156 4.61719C9.5625 5.375 9.53125 5.52344 9.32812 5.88281C8.64062 7.11719 6.85938 7.11719 6.17188 5.88281C5.96875 5.52344 5.9375 5.375 5.89844 4.61719L5.85156 3.75H4.08594C2.46094 3.75 2.29688 3.76562 2.0625 3.90625C1.92188 3.99219 1.74219 4.17188 1.65625 4.3125C1.50781 4.55469 1.5 4.71094 1.5 6.66406V8.75H36.5V6.66406ZM8.19531 5.45312C8.375 5.28906 8.375 5.26562 8.375 3.42188C8.375 1.66406 8.36719 1.55469 8.21875 1.40625C8.00781 1.19531 7.49219 1.19531 7.28125 1.40625C7.13281 1.55469 7.125 1.66406 7.125 3.4375C7.125 5.21094 7.13281 5.32031 7.28125 5.46875C7.5 5.6875 7.96094 5.67969 8.19531 5.45312ZM30.6953 5.45312C30.875 5.28906 30.875 5.26562 30.875 3.42188C30.875 1.66406 30.8672 1.55469 30.7188 1.40625C30.5078 1.19531 29.9922 1.19531 29.7812 1.40625C29.6328 1.55469 29.625 1.66406 29.625 3.4375C29.625 5.21094 29.6328 5.32031 29.7812 5.46875C30 5.6875 30.4609 5.67969 30.6953 5.45312Z" fill="white"/>
</svg>
