<svg width="31" height="30" viewBox="0 0 31 30" fill="none" xmlns="http://www.w3.org/2000/svg">
<path d="M11.4518 13.6378L16.6372 18.8239L27.4809 7.98172L22.2955 2.79558L11.4518 13.6378Z" fill="white"/>
<path d="M29.3913 2.35117L27.7286 0.6885C26.8106 -0.2295 25.322 -0.2295 24.404 0.6885L23.2373 1.85383L28.4226 7.03917L29.5886 5.87317C30.5073 4.95583 30.31 3.26917 29.3913 2.35117Z" fill="white"/>
<path d="M10.6665 14.7132V19.8938H15.4972L10.6665 14.7132Z" fill="white"/>
<path d="M19.3333 26.5605H3.33333V10.5605H11.7033L15.0367 7.22717H2.33333C1.22867 7.22717 0 7.78917 0 8.89384V27.5605C0 28.6645 1.22867 29.8938 2.33333 29.8938H21C22.104 29.8938 22.6667 28.6645 22.6667 27.5605V15.6245L19.3333 18.9578V26.5605Z" fill="white"/>
</svg>
