<svg width="105" height="35" viewBox="0 0 105 35" fill="none" xmlns="http://www.w3.org/2000/svg">
<rect width="35" height="15" rx="7.5" transform="matrix(0 1 1 0 20 0)" fill="#364958"/>
<rect width="35" height="15" rx="7.5" transform="matrix(0 1 1 0 0 0)" fill="#1481BA"/>
<path fill-rule="evenodd" clip-rule="evenodd" d="M67.6284 0C66.4632 1.28114 65.7547 2.97294 65.7547 4.82759V10.2586H62.0754C58.0114 10.2586 54.7169 13.5007 54.7169 17.5C54.7169 21.4993 58.0114 24.7414 62.0754 24.7414H65.7547V30.1724C65.7547 32.0271 66.4632 33.7189 67.6284 35H52C45.3726 35 40 29.6274 40 23V12C40 5.37258 45.3726 0 52 0H67.6284ZM78.598 0H93C99.6274 0 105 5.37258 105 12V23C105 29.6274 99.6274 35 93 35H78.598C79.7631 33.7189 80.4717 32.0271 80.4717 30.1724V24.7414H82.9245C86.9885 24.7414 90.283 21.4993 90.283 17.5C90.283 13.5007 86.9885 10.2586 82.9245 10.2586H80.4717V4.82759C80.4717 2.97294 79.7632 1.28114 78.598 0Z" fill="white"/>
</svg>
