<svg width="359" height="129" viewBox="0 0 359 129" fill="none" xmlns="http://www.w3.org/2000/svg">
<path d="M2.6748 34.6836C2.6748 32.6556 3.06217 30.7529 3.83691 28.9756C4.61165 27.1982 5.65983 25.6488 6.98145 24.3271C8.32585 22.9827 9.88672 21.9232 11.6641 21.1484C13.4414 20.3737 15.3441 19.9863 17.3721 19.9863H39.8623V29.7959H17.3721C16.6885 29.7959 16.0505 29.9212 15.458 30.1719C14.8656 30.4225 14.3415 30.7757 13.8857 31.2314C13.4528 31.6644 13.111 32.1771 12.8604 32.7695C12.6097 33.362 12.4844 34 12.4844 34.6836C12.4844 35.3672 12.6097 36.0166 12.8604 36.6318C13.111 37.2243 13.4528 37.7484 13.8857 38.2041C14.3415 38.637 14.8656 38.9788 15.458 39.2295C16.0505 39.4801 16.6885 39.6055 17.3721 39.6055H27.1816C29.2096 39.6055 31.1123 39.9928 32.8896 40.7676C34.6898 41.5195 36.2507 42.5677 37.5723 43.9121C38.9167 45.2337 39.9648 46.7946 40.7168 48.5947C41.4915 50.3721 41.8789 52.2747 41.8789 54.3027C41.8789 56.3307 41.4915 58.2334 40.7168 60.0107C39.9648 61.7881 38.9167 63.349 37.5723 64.6934C36.2507 66.015 34.6898 67.0632 32.8896 67.8379C31.1123 68.6126 29.2096 69 27.1816 69H5.40918V59.1904H27.1816C27.8652 59.1904 28.5033 59.0651 29.0957 58.8145C29.6882 58.5638 30.2008 58.222 30.6338 57.7891C31.0895 57.3333 31.4427 56.8092 31.6934 56.2168C31.944 55.6243 32.0693 54.9863 32.0693 54.3027C32.0693 53.6191 31.944 52.9811 31.6934 52.3887C31.4427 51.7962 31.0895 51.2835 30.6338 50.8506C30.2008 50.3949 29.6882 50.0417 29.0957 49.791C28.5033 49.5404 27.8652 49.415 27.1816 49.415H17.3721C15.3441 49.415 13.4414 49.0277 11.6641 48.2529C9.88672 47.4782 8.32585 46.43 6.98145 45.1084C5.65983 43.764 4.61165 42.2031 3.83691 40.4258C3.06217 38.6257 2.6748 36.7116 2.6748 34.6836ZM58.1484 29.7959V49.415H67.958C69.3024 49.415 70.5671 49.1644 71.752 48.6631C72.9368 48.139 73.9736 47.4326 74.8623 46.5439C75.751 45.6553 76.446 44.6185 76.9473 43.4336C77.4714 42.2259 77.7334 40.9499 77.7334 39.6055C77.7334 38.2611 77.4714 36.9964 76.9473 35.8115C76.446 34.6038 75.751 33.5557 74.8623 32.667C73.9736 31.7783 72.9368 31.0833 71.752 30.582C70.5671 30.0579 69.3024 29.7959 67.958 29.7959H58.1484ZM58.1484 69H48.3389V19.9863H67.958C69.7581 19.9863 71.4899 20.2256 73.1533 20.7041C74.8167 21.1598 76.3662 21.8206 77.8018 22.6865C79.2601 23.5296 80.5817 24.555 81.7666 25.7627C82.9743 26.9476 83.9997 28.2692 84.8428 29.7275C85.7087 31.1859 86.3695 32.7467 86.8252 34.4102C87.3037 36.0736 87.543 37.8053 87.543 39.6055C87.543 42.2943 87.0303 44.835 86.0049 47.2275C84.9795 49.5973 83.5781 51.6709 81.8008 53.4482C80.0234 55.2256 77.9385 56.627 75.5459 57.6523C73.1761 58.6777 70.6468 59.1904 67.958 59.1904H58.1484V69Z" fill="#364958"/>
<path d="M161.576 69H151.801V34C151.801 33.3164 151.664 32.6784 151.391 32.0859C151.14 31.4935 150.787 30.9808 150.331 30.5479C149.898 30.0921 149.385 29.7389 148.793 29.4883C148.201 29.2376 147.562 29.1123 146.879 29.1123C146.195 29.1123 145.557 29.2376 144.965 29.4883C144.372 29.7389 143.848 30.0921 143.393 30.5479C142.96 30.9808 142.618 31.4935 142.367 32.0859C142.117 32.6784 141.991 33.3164 141.991 34V69H132.182V34C132.182 33.3164 132.056 32.6784 131.806 32.0859C131.555 31.4935 131.202 30.9808 130.746 30.5479C130.313 30.0921 129.8 29.7389 129.208 29.4883C128.616 29.2376 127.978 29.1123 127.294 29.1123C126.61 29.1123 125.972 29.2376 125.38 29.4883C124.787 29.7389 124.263 30.0921 123.808 30.5479C123.375 30.9808 123.033 31.4935 122.782 32.0859C122.532 32.6784 122.406 33.3164 122.406 34V69H112.597V34C112.597 31.972 112.973 30.0693 113.725 28.292C114.499 26.4919 115.548 24.931 116.869 23.6094C118.214 22.265 119.774 21.2168 121.552 20.4648C123.352 19.6901 125.266 19.3027 127.294 19.3027C129.117 19.3027 130.871 19.6331 132.558 20.2939C134.244 20.932 135.759 21.8662 137.104 23.0967C138.448 21.8662 139.952 20.932 141.615 20.2939C143.301 19.6331 145.056 19.3027 146.879 19.3027C148.907 19.3027 150.81 19.6901 152.587 20.4648C154.387 21.2168 155.948 22.265 157.27 23.6094C158.614 24.931 159.662 26.4919 160.414 28.292C161.189 30.0693 161.576 31.972 161.576 34V69ZM183.52 60.0449C183.884 60.1589 184.249 60.2386 184.613 60.2842C184.978 60.307 185.342 60.3184 185.707 60.3184C186.618 60.3184 187.496 60.193 188.339 59.9424C189.182 59.6917 189.968 59.3385 190.697 58.8828C191.449 58.4043 192.11 57.8346 192.68 57.1738C193.272 56.4902 193.751 55.7383 194.115 54.918L200.951 61.7881C200.085 63.0186 199.083 64.1237 197.943 65.1035C196.827 66.0833 195.608 66.915 194.286 67.5986C192.987 68.2822 191.609 68.7949 190.15 69.1367C188.715 69.5013 187.234 69.6836 185.707 69.6836C183.132 69.6836 180.705 69.2051 178.427 68.248C176.171 67.291 174.188 65.958 172.479 64.249C170.793 62.54 169.46 60.512 168.48 58.165C167.501 55.7952 167.011 53.1976 167.011 50.3721C167.011 47.4782 167.501 44.835 168.48 42.4424C169.46 40.0498 170.793 38.0104 172.479 36.3242C174.188 34.638 176.171 33.3278 178.427 32.3936C180.705 31.4593 183.132 30.9922 185.707 30.9922C187.234 30.9922 188.726 31.1745 190.185 31.5391C191.643 31.9036 193.021 32.4277 194.32 33.1113C195.642 33.7949 196.872 34.638 198.012 35.6406C199.151 36.6204 200.154 37.7256 201.02 38.9561L183.52 60.0449ZM188.305 40.8018C187.872 40.6423 187.439 40.5397 187.006 40.4941C186.596 40.4486 186.163 40.4258 185.707 40.4258C184.431 40.4258 183.223 40.665 182.084 41.1436C180.967 41.5993 179.988 42.2601 179.145 43.126C178.324 43.9919 177.675 45.04 177.196 46.2705C176.718 47.4782 176.479 48.8454 176.479 50.3721C176.479 50.7139 176.49 51.1012 176.513 51.5342C176.558 51.9671 176.615 52.4115 176.684 52.8672C176.775 53.3001 176.877 53.7217 176.991 54.1318C177.105 54.542 177.253 54.9066 177.436 55.2256L188.305 40.8018ZM240.839 69H238.583L234.96 63.9756C234.071 64.7731 233.126 65.5251 232.123 66.2314C231.143 66.915 230.106 67.5189 229.013 68.043C227.919 68.5443 226.791 68.943 225.629 69.2393C224.49 69.5355 223.327 69.6836 222.143 69.6836C219.568 69.6836 217.141 69.2051 214.862 68.248C212.606 67.2682 210.624 65.9238 208.915 64.2148C207.229 62.4831 205.896 60.4437 204.916 58.0967C203.936 55.7269 203.446 53.152 203.446 50.3721C203.446 47.6149 203.936 45.0514 204.916 42.6816C205.896 40.3118 207.229 38.2611 208.915 36.5293C210.624 34.7975 212.606 33.4417 214.862 32.4619C217.141 31.4821 219.568 30.9922 222.143 30.9922C222.963 30.9922 223.806 31.0605 224.672 31.1973C225.561 31.334 226.415 31.5618 227.235 31.8809C228.078 32.1771 228.865 32.5758 229.594 33.0771C230.323 33.5785 230.938 34.1937 231.439 34.9229V17.833H240.839V69ZM231.439 50.3721C231.439 49.096 231.189 47.8656 230.688 46.6807C230.209 45.473 229.548 44.4134 228.705 43.502C227.862 42.5677 226.871 41.8271 225.731 41.2803C224.615 40.7106 223.419 40.4258 222.143 40.4258C220.867 40.4258 219.659 40.6536 218.52 41.1094C217.403 41.5651 216.423 42.2259 215.58 43.0918C214.76 43.9349 214.11 44.9717 213.632 46.2021C213.153 47.4326 212.914 48.8226 212.914 50.3721C212.914 51.7165 213.153 52.9925 213.632 54.2002C214.11 55.4079 214.76 56.4674 215.58 57.3789C216.423 58.2904 217.403 59.0081 218.52 59.5322C219.659 60.0563 220.867 60.3184 222.143 60.3184C223.419 60.3184 224.615 60.0449 225.731 59.498C226.871 58.9284 227.862 58.1878 228.705 57.2764C229.548 56.3421 230.209 55.2826 230.688 54.0977C231.189 52.89 231.439 51.6481 231.439 50.3721ZM258.988 22.4473C258.988 23.3132 258.817 24.1221 258.476 24.874C258.157 25.626 257.712 26.2868 257.143 26.8564C256.573 27.4033 255.901 27.8477 255.126 28.1895C254.374 28.5085 253.565 28.668 252.699 28.668C251.833 28.668 251.013 28.5085 250.238 28.1895C249.486 27.8477 248.826 27.4033 248.256 26.8564C247.709 26.2868 247.265 25.626 246.923 24.874C246.604 24.1221 246.444 23.3132 246.444 22.4473C246.444 21.6042 246.604 20.8066 246.923 20.0547C247.265 19.2799 247.709 18.6191 248.256 18.0723C248.826 17.5026 249.486 17.0583 250.238 16.7393C251.013 16.3975 251.833 16.2266 252.699 16.2266C253.565 16.2266 254.374 16.3975 255.126 16.7393C255.901 17.0583 256.573 17.5026 257.143 18.0723C257.712 18.6191 258.157 19.2799 258.476 20.0547C258.817 20.8066 258.988 21.6042 258.988 22.4473ZM257.382 69H247.982V32.3936H257.382V69ZM296.518 39.6738L289.682 46.5439C289.34 45.5869 288.873 44.7324 288.28 43.9805C287.688 43.2057 287.016 42.5563 286.264 42.0322C285.535 41.5081 284.737 41.1094 283.871 40.8359C283.005 40.5625 282.117 40.4258 281.205 40.4258C279.929 40.4258 278.721 40.6878 277.582 41.2119C276.465 41.736 275.486 42.4766 274.643 43.4336C273.822 44.3678 273.173 45.4844 272.694 46.7832C272.216 48.082 271.977 49.5176 271.977 51.0898C271.977 52.3659 272.216 53.5622 272.694 54.6787C273.173 55.7952 273.822 56.7751 274.643 57.6182C275.486 58.4613 276.465 59.1221 277.582 59.6006C278.721 60.0791 279.929 60.3184 281.205 60.3184C282.117 60.3184 282.994 60.193 283.837 59.9424C284.68 59.6917 285.466 59.3385 286.195 58.8828C286.947 58.4043 287.608 57.8346 288.178 57.1738C288.77 56.4902 289.249 55.7383 289.613 54.918L296.449 61.7881C295.583 63.0186 294.581 64.1237 293.441 65.1035C292.325 66.0833 291.106 66.915 289.784 67.5986C288.485 68.2822 287.107 68.7949 285.648 69.1367C284.213 69.5013 282.732 69.6836 281.205 69.6836C278.63 69.6836 276.203 69.2051 273.925 68.248C271.669 67.2682 269.687 65.9352 267.978 64.249C266.291 62.5628 264.958 60.5918 263.979 58.3359C262.999 56.0801 262.509 53.6647 262.509 51.0898C262.509 48.2871 262.999 45.6667 263.979 43.2285C264.958 40.7904 266.291 38.6712 267.978 36.8711C269.687 35.0482 271.669 33.6126 273.925 32.5645C276.203 31.5163 278.63 30.9922 281.205 30.9922C282.732 30.9922 284.224 31.1859 285.683 31.5732C287.164 31.9606 288.565 32.5303 289.887 33.2822C291.231 34.0114 292.462 34.9115 293.578 35.9824C294.717 37.0534 295.697 38.2839 296.518 39.6738ZM335.995 69H333.739L330.116 63.9756C329.228 64.7731 328.282 65.5251 327.279 66.2314C326.299 66.915 325.263 67.5189 324.169 68.043C323.075 68.5443 321.947 68.943 320.785 69.2393C319.646 69.5355 318.484 69.6836 317.299 69.6836C314.724 69.6836 312.297 69.2507 310.019 68.3848C307.763 67.5189 305.78 66.2656 304.071 64.625C302.385 62.9616 301.052 60.9336 300.072 58.541C299.092 56.1484 298.603 53.4255 298.603 50.3721C298.603 47.5238 299.092 44.9147 300.072 42.5449C301.052 40.1523 302.385 38.1016 304.071 36.3926C305.78 34.6836 307.763 33.362 310.019 32.4277C312.297 31.4707 314.724 30.9922 317.299 30.9922C318.484 30.9922 319.657 31.1403 320.819 31.4365C321.981 31.7327 323.109 32.1429 324.203 32.667C325.297 33.1911 326.334 33.8063 327.313 34.5127C328.316 35.2191 329.25 35.9824 330.116 36.8027L333.739 32.4619H335.995V69ZM326.596 50.3721C326.596 49.096 326.345 47.8656 325.844 46.6807C325.365 45.473 324.704 44.4134 323.861 43.502C323.018 42.5677 322.027 41.8271 320.888 41.2803C319.771 40.7106 318.575 40.4258 317.299 40.4258C316.023 40.4258 314.815 40.6423 313.676 41.0752C312.559 41.5081 311.579 42.1462 310.736 42.9893C309.916 43.8324 309.267 44.8805 308.788 46.1338C308.31 47.3643 308.07 48.777 308.07 50.3721C308.07 51.9671 308.31 53.3913 308.788 54.6445C309.267 55.875 309.916 56.9118 310.736 57.7549C311.579 58.598 312.559 59.236 313.676 59.6689C314.815 60.1019 316.023 60.3184 317.299 60.3184C318.575 60.3184 319.771 60.0449 320.888 59.498C322.027 58.9284 323.018 58.1878 323.861 57.2764C324.704 56.3421 325.365 55.2826 325.844 54.0977C326.345 52.89 326.596 51.6481 326.596 50.3721ZM352.538 69H343.139V17.833H352.538V69Z" fill="white"/>
<path d="M41.86 79.77V108.565C41.86 115.108 40.0833 120.005 36.53 123.255C32.9767 126.548 27.8633 128.195 21.19 128.195C17.7233 128.195 14.4733 127.805 11.44 127.025C8.40667 126.245 5.82833 125.097 3.705 123.58L8.19 114.935C9.62 116.105 11.4183 117.015 13.585 117.665C15.795 118.358 17.9617 118.705 20.085 118.705C23.335 118.705 25.7183 117.99 27.235 116.56C28.7517 115.13 29.51 113.007 29.51 110.19V109.02C27.1267 111.793 23.6383 113.18 19.045 113.18C15.925 113.18 13.0433 112.487 10.4 111.1C7.75667 109.67 5.655 107.677 4.095 105.12C2.535 102.52 1.755 99.53 1.755 96.15C1.755 92.8133 2.535 89.8667 4.095 87.31C5.655 84.71 7.75667 82.7167 10.4 81.33C13.0433 79.9 15.925 79.185 19.045 79.185C24.0717 79.185 27.755 80.81 30.095 84.06V79.77H41.86ZM21.97 103.365C24.18 103.365 26 102.693 27.43 101.35C28.9033 100.007 29.64 98.2733 29.64 96.15C29.64 94.0267 28.925 92.315 27.495 91.015C26.065 89.6717 24.2233 89 21.97 89C19.7167 89 17.8533 89.6717 16.38 91.015C14.95 92.315 14.235 94.0267 14.235 96.15C14.235 98.2733 14.9717 100.007 16.445 101.35C17.9183 102.693 19.76 103.365 21.97 103.365ZM61.5601 83.995C62.8167 82.3917 64.4417 81.2 66.4351 80.42C68.4717 79.5967 70.7901 79.185 73.3901 79.185V90.3C72.2634 90.17 71.3317 90.105 70.5951 90.105C67.9517 90.105 65.8717 90.82 64.3551 92.25C62.8817 93.68 62.1451 95.8683 62.1451 98.815V115H49.7951V79.77H61.5601V83.995ZM95.8491 115.585C92.0791 115.585 88.6774 114.805 85.6441 113.245C82.6108 111.685 80.2274 109.518 78.4941 106.745C76.8041 103.972 75.9591 100.83 75.9591 97.32C75.9591 93.8533 76.8041 90.7333 78.4941 87.96C80.2274 85.1867 82.5891 83.0417 85.5791 81.525C88.6124 79.965 92.0358 79.185 95.8491 79.185C99.6624 79.185 103.086 79.965 106.119 81.525C109.152 83.0417 111.514 85.1867 113.204 87.96C114.894 90.69 115.739 93.81 115.739 97.32C115.739 100.83 114.894 103.972 113.204 106.745C111.514 109.518 109.152 111.685 106.119 113.245C103.086 114.805 99.6624 115.585 95.8491 115.585ZM95.8491 105.77C98.0158 105.77 99.7924 105.033 101.179 103.56C102.566 102.043 103.259 99.9633 103.259 97.32C103.259 94.72 102.566 92.6833 101.179 91.21C99.7924 89.7367 98.0158 89 95.8491 89C93.6824 89 91.9058 89.7367 90.5191 91.21C89.1324 92.6833 88.4391 94.72 88.4391 97.32C88.4391 99.9633 89.1324 102.043 90.5191 103.56C91.9058 105.033 93.6824 105.77 95.8491 105.77ZM158.51 79.77V115H146.745V111.23C145.445 112.66 143.885 113.743 142.065 114.48C140.245 115.217 138.317 115.585 136.28 115.585C131.73 115.585 128.09 114.242 125.36 111.555C122.673 108.868 121.33 104.838 121.33 99.465V79.77H133.68V97.45C133.68 100.093 134.178 102.022 135.175 103.235C136.172 104.448 137.623 105.055 139.53 105.055C141.48 105.055 143.062 104.383 144.275 103.04C145.532 101.653 146.16 99.5517 146.16 96.735V79.77H158.51ZM188.63 79.185C191.837 79.185 194.74 79.9433 197.34 81.46C199.983 82.9333 202.063 85.0567 203.58 87.83C205.14 90.56 205.92 93.745 205.92 97.385C205.92 101.025 205.14 104.232 203.58 107.005C202.063 109.735 199.983 111.858 197.34 113.375C194.74 114.848 191.837 115.585 188.63 115.585C184.513 115.585 181.242 114.35 178.815 111.88V127.61H166.465V79.77H178.23V83.28C180.527 80.55 183.993 79.185 188.63 79.185ZM186.03 105.77C188.197 105.77 189.973 105.033 191.36 103.56C192.747 102.043 193.44 99.985 193.44 97.385C193.44 94.785 192.747 92.7483 191.36 91.275C189.973 89.7583 188.197 89 186.03 89C183.863 89 182.087 89.7583 180.7 91.275C179.313 92.7483 178.62 94.785 178.62 97.385C178.62 99.985 179.313 102.043 180.7 103.56C182.087 105.033 183.863 105.77 186.03 105.77Z" fill="white"/>
<rect x="242.172" y="125.225" width="44.9663" height="19.4824" rx="9.74118" transform="rotate(-90 242.172 125.225)" fill="#364958"/>
<rect x="215" y="125.225" width="44.9663" height="19.4824" rx="9.74118" transform="rotate(-90 215 125.225)" fill="#1481BA"/>
<path fill-rule="evenodd" clip-rule="evenodd" d="M303.527 125.225C301.985 123.579 301.047 121.405 301.047 119.022V112.045H296.176C290.797 112.045 286.435 107.88 286.435 102.742C286.435 97.6035 290.797 93.4382 296.176 93.4382H301.047V86.4607C301.047 84.0779 301.985 81.9044 303.527 80.2584H284C274.585 80.2584 266.953 87.8905 266.953 97.305V108.178C266.953 117.593 274.585 125.225 284 125.225H303.527ZM318.049 125.225H335.953C345.368 125.225 353 117.593 353 108.178V97.305C353 87.8905 345.368 80.2584 335.953 80.2584H318.049C319.591 81.9044 320.529 84.0779 320.529 86.4607V93.4382H323.776C329.156 93.4382 333.518 97.6035 333.518 102.742C333.518 107.88 329.156 112.045 323.776 112.045H320.529V119.022C320.529 121.405 319.591 123.579 318.049 125.225Z" fill="white"/>
</svg>
