<svg width="63" height="83" viewBox="0 0 63 83" fill="none" xmlns="http://www.w3.org/2000/svg">
<path d="M56.7384 39.6061V25.74C56.7384 11.8226 45.4202 0.501678 31.5001 0.501678C17.5799 0.501678 6.26179 11.8198 6.26179 25.74V39.6061H0.338257V82.4983H62.6619V39.6061H56.7384ZM16.2149 25.74C16.2149 17.3111 23.0684 10.4548 31.5001 10.4548C39.9318 10.4548 46.7852 17.3082 46.7852 25.74V39.6061H16.2149V25.74ZM37.9611 72.6561H25.0362L28.5113 62.2281C27.3838 61.6742 26.4335 60.8162 25.7677 59.751C25.102 58.6857 24.7471 57.4556 24.7433 56.1993C24.7433 54.4081 25.4549 52.6902 26.7215 51.4236C27.9881 50.157 29.706 49.4454 31.4972 49.4454C33.2885 49.4454 35.0064 50.157 36.273 51.4236C37.5396 52.6902 38.2511 54.4081 38.2511 56.1993C38.2511 58.8497 36.7098 61.119 34.486 62.2281L37.9611 72.6533V72.6561Z" fill="#06D6A0"/>
</svg>
