<svg width="780" height="570" xmlns="http://www.w3.org/2000/svg">

 <g>
  <title>Layer 1</title>
  <g id="svg_259">
   <g id="svg_14">
    <path id="svg_16" fill="#f5f5f5" d="m631.53,568.21091c-24.12,-14.77 -31.18,-44.47 -31.89,-71.51c-0.12,-4.51 -0.9,-9.23 1,-13.31s6.74,-7.08 10.89,-5.43c3.44,1.37 5.13,5.18 7.19,8.28a26.37,26.37 0 0 0 11.18,9.45c3,1.32 6.56,2 9.29,0.28c3.76,-2.38 3.89,-7.77 3.59,-12.25q-0.82,-12.51 -1.66,-25c-0.3,-4.48 -0.59,-9.05 0.55,-13.39s4,-8.47 8.16,-9.92s9.61,0.69 10.77,5c0.49,1.8 0.23,3.72 0.47,5.57s1.22,3.85 3,4.27s3.54,-1 4.8,-2.36c4.35,-4.8 7.13,-10.81 9.71,-16.79s5.07,-12.07 9,-17.26s9.47,-9.44 15.86,-10.19s13.47,2.79 15.47,9s-1.29,12.85 -5,18.2a100.1,100.1 0 0 1 -19.62,21.1c-1.36,1.09 -2.82,2.27 -3.26,4c-0.79,3 2.21,5.84 5.22,6.64c3.41,0.91 7,0.35 10.53,0.55s7.39,1.51 8.91,4.73c2.11,4.47 -1.43,9.5 -5,12.87a85.83,85.83 0 0 1 -24.47,16.14c-3.22,1.41 -6.63,2.68 -9.14,5.15s-3.88,6.6 -2.09,9.66s6,3.82 9.39,3s6.39,-2.91 9.61,-4.35c6,-2.69 14,-2.75 18.25,2.33c2.8,3.34 3.33,8.2 2.27,12.45s-3.5,8 -6.13,11.48c-9.16,12.17 -21.23,22.25 -35.21,28.06s-27.13,8 -41.64,3.62"/>
    <path id="svg_17" fill="#e0e0e0" d="m637.48,550.88091a402.8,402.8 0 0 1 13.32,-44.18q2.07,-5.77 4.09,-11.4c1.35,-3.74 2.69,-7.44 4.22,-11a203.37,203.37 0 0 1 10,-19.87c3.48,-6.16 7,-11.89 10.34,-17.21s6.57,-10.23 9.69,-14.57a158.34,158.34 0 0 1 16.24,-19.38c2.09,-2.13 3.76,-3.73 4.91,-4.8l1.32,-1.21a4.59,4.59 0 0 1 0.46,-0.39s-0.12,0.16 -0.4,0.45l-1.26,1.27c-1.11,1.11 -2.75,2.74 -4.8,4.9a168.7,168.7 0 0 0 -16,19.5c-3.08,4.35 -6.26,9.26 -9.58,14.6s-6.81,11.07 -10.26,17.23a203.18,203.18 0 0 0 -9.9,19.81c-1.52,3.52 -2.84,7.2 -4.19,10.95s-2.7,7.55 -4.08,11.39a412,412 0 0 0 -13.36,44.07"/>
    <path id="svg_18" fill="#e0e0e0" d="m659.34,484.26091a9.64,9.64 0 0 1 -0.55,-1.88c-0.31,-1.22 -0.7,-3 -1.15,-5.22c-0.9,-4.42 -1.94,-10.57 -3.06,-17.35s-2.24,-12.91 -3.2,-17.3c-0.48,-2.2 -0.89,-4 -1.18,-5.2a9.39,9.39 0 0 1 -0.37,-1.93a8.73,8.73 0 0 1 0.68,1.84c0.39,1.2 0.88,3 1.43,5.15c1.12,4.38 2.34,10.5 3.46,17.3s2.07,12.75 2.82,17.38c0.35,2.09 0.65,3.85 0.89,5.26a8.77,8.77 0 0 1 0.23,1.95z"/>
    <path id="svg_19" fill="#e0e0e0" d="m716.29,470.03091a13.49,13.49 0 0 1 -2.29,0.41c-1.46,0.22 -3.59,0.53 -6.21,1c-5.24,0.89 -12.44,2.37 -20.3,4.35s-14.91,4.1 -20,5.78c-2.53,0.81 -4.56,1.53 -6,2a11.42,11.42 0 0 1 -2.22,0.68a13.18,13.18 0 0 1 2.11,-1c1.37,-0.58 3.38,-1.38 5.89,-2.27c5,-1.82 12.06,-4 20,-6a201.93,201.93 0 0 1 20.43,-4.1c2.64,-0.39 4.78,-0.61 6.27,-0.73a11.33,11.33 0 0 1 2.32,-0.12z"/>
    <path id="svg_20" fill="#e0e0e0" d="m638.12,549.77091a3.31,3.31 0 0 1 -0.44,-0.67c-0.3,-0.55 -0.66,-1.22 -1.11,-2c-1,-1.76 -2.27,-4.35 -3.86,-7.56c-3.17,-6.43 -7.28,-15.45 -11.68,-25.46s-8.42,-19.07 -11.46,-25.56l-3.6,-7.7l-1,-2.09a2.47,2.47 0 0 1 -0.29,-0.76a3.41,3.41 0 0 1 0.43,0.68l1.11,2c1,1.77 2.28,4.35 3.87,7.57c3.17,6.43 7.28,15.45 11.68,25.46s8.42,19.06 11.46,25.55l3.62,7.67l1,2.1a2.58,2.58 0 0 1 0.27,0.77z"/>
    <path id="svg_21" fill="#e0e0e0" d="m713.16,520.49091a3.07,3.07 0 0 1 -0.74,0.36l-2.18,0.88l-8,3.15c-6.79,2.66 -16.11,6.45 -26.41,10.64s-19.68,7.9 -26.52,10.42c-3.42,1.26 -6.2,2.25 -8.13,2.9l-2.23,0.73a2.77,2.77 0 0 1 -0.8,0.2a3.62,3.62 0 0 1 0.74,-0.36l2.18,-0.87l8,-3.15c6.79,-2.66 16.12,-6.45 26.42,-10.64s19.67,-7.87 26.48,-10.42c3.42,-1.27 6.2,-2.26 8.13,-2.91l2.23,-0.73a2.85,2.85 0 0 1 0.83,-0.2z"/>
    <path id="svg_22" fill="#f5f5f5" d="m643.51,261.15091c-4.12,10.3 -10.7,26.95 -13.73,34.6a4.4,4.4 0 0 0 2.47,5.7l28.14,11.21a4.39,4.39 0 0 0 5.71,-2.46l13.65,-34.32a9.76,9.76 0 0 0 -5.46,-12.69l0,0l2,-5l-18.42,-7.31l-1.9,4.74l-0.07,0a9.76,9.76 0 0 0 -12.39,5.53z"/>
    <polygon id="svg_23" fill="#e0e0e0" points="657.6199951171875,251.49090576171875 656.7099609375,253.78089904785156 674.8699951171875,261.7808837890625 676.0499877929688,258.8309020996094 657.6199951171875,251.49090576171875 "/>
    <path transform="rotate(21.72 106.52 -113.889)" id="svg_24" fill="#ebebeb" d="m754.41,13.3809l18.49,0a3,3 0 0 1 3,3l0,4.92a1.93,1.93 0 0 1 -1.93,1.93l-20.62,0a1.93,1.93 0 0 1 -1.93,-1.93l0,-4.92a3,3 0 0 1 3,-3l-0.01,0z"/>
    <path id="svg_25" fill="#e0e0e0" d="m657.81,253.31091a23.62,23.62 0 0 1 1.57,-4.64a24,24 0 0 1 2.06,-4.46a23.82,23.82 0 0 1 -1.57,4.67a22.32,22.32 0 0 1 -2.06,4.43z"/>
    <path id="svg_26" fill="#e0e0e0" d="m660.24,254.28091a23.82,23.82 0 0 1 1.57,-4.65a22.32,22.32 0 0 1 2.06,-4.45a23.82,23.82 0 0 1 -1.57,4.65a22.32,22.32 0 0 1 -2.06,4.45z"/>
    <path id="svg_27" fill="#e0e0e0" d="m662.67,255.25091a23.59,23.59 0 0 1 1.57,-4.65a22.59,22.59 0 0 1 2.06,-4.46a23.36,23.36 0 0 1 -1.57,4.65a24,24 0 0 1 -2.06,4.46z"/>
    <path id="svg_28" fill="#e0e0e0" d="m665.1,256.22091a22.61,22.61 0 0 1 1.57,-4.65a22.59,22.59 0 0 1 2.06,-4.46a23.49,23.49 0 0 1 -1.58,4.65a24,24 0 0 1 -2.05,4.46z"/>
    <path id="svg_29" fill="#e0e0e0" d="m667.53,257.18091a23,23 0 0 1 1.57,-4.65a23.35,23.35 0 0 1 2,-4.45a23,23 0 0 1 -1.57,4.65a23.35,23.35 0 0 1 -2,4.45z"/>
    <path id="svg_30" fill="#e0e0e0" d="m669.97,258.15091a23.49,23.49 0 0 1 1.58,-4.65a24,24 0 0 1 2.05,-4.46a22.61,22.61 0 0 1 -1.57,4.65a22.59,22.59 0 0 1 -2.06,4.46z"/>
    <path id="svg_31" fill="#e0e0e0" d="m672.38,259.12091a23.36,23.36 0 0 1 1.57,-4.65a24,24 0 0 1 2.06,-4.46a23.59,23.59 0 0 1 -1.57,4.65a22.59,22.59 0 0 1 -2.06,4.46z"/>
    <path id="svg_32" fill="#e0e0e0" d="m674.81,260.08091a23.62,23.62 0 0 1 1.57,-4.64a22.59,22.59 0 0 1 2.06,-4.46a23.82,23.82 0 0 1 -1.57,4.65a23,23 0 0 1 -2.06,4.45z"/>
    <rect transform="rotate(21.72 116.82 -107.419)" id="svg_33" fill="#ebebeb" rx="1.48" height="18.8" width="28.42" y="45.4509" x="748.04"/>
    <path id="svg_34" fill="#e0e0e0" d="m664.83,294.24091a2.78,2.78 0 0 1 0.1,-0.3l0.3,-0.82l1.17,-3.09c1,-2.67 2.5,-6.44 4.28,-11l0.11,0.27l-23.16,-9.17c-0.07,0 0.64,-0.27 0.34,-0.14l0,0l0,0l0,0l0,0.06l-0.05,0.13l-0.1,0.25l-0.2,0.5l-0.4,1c-0.27,0.66 -0.53,1.32 -0.79,2c-0.52,1.31 -1,2.6 -1.55,3.87l-2.92,7.29l-0.13,-0.31l16.56,6.72l4.76,2l1.28,0.54a4.59,4.59 0 0 1 0.45,0.21l-0.42,-0.14l-1.25,-0.47l-4.76,-1.82l-16.8,-6.57l-0.22,-0.08l0.09,-0.23c0.92,-2.32 1.88,-4.76 2.89,-7.3c0.5,-1.27 1,-2.56 1.54,-3.87c0.26,-0.66 0.52,-1.32 0.79,-2l0.39,-1l0.21,-0.5l0.1,-0.25l0.05,-0.13l0,-0.06l0,0l0,0l0.35,-0.15l23.13,9.2l0.19,0.08l-0.08,0.19c-1.88,4.6 -3.43,8.38 -4.52,11.07l-1.26,3l-0.33,0.77q-0.12,0.27 -0.14,0.25z"/>
    <path id="svg_35" fill="#e0e0e0" d="m665.33,282.56091a70.07,70.07 0 0 1 -8,-2.89a69.09,69.09 0 0 1 -7.77,-3.37a68.28,68.28 0 0 1 8,2.89a69.4,69.4 0 0 1 7.77,3.37z"/>
    <path id="svg_36" fill="#e0e0e0" d="m664.27,285.23091a67.54,67.54 0 0 1 -8,-2.89a71.17,71.17 0 0 1 -7.77,-3.37a69,69 0 0 1 8,2.89a70.12,70.12 0 0 1 7.77,3.37z"/>
    <path id="svg_37" fill="#e0e0e0" d="m663.25,287.80091a66.83,66.83 0 0 1 -8,-2.89a70.12,70.12 0 0 1 -7.77,-3.37a67.54,67.54 0 0 1 8,2.89a71.17,71.17 0 0 1 7.77,3.37z"/>
    <path id="svg_38" fill="#e0e0e0" d="m673.3,262.65091a81.26,81.26 0 0 1 -8.67,-3.17a83.2,83.2 0 0 1 -8.49,-3.66a79.24,79.24 0 0 1 8.68,3.17a82.37,82.37 0 0 1 8.48,3.66z"/>
    <path id="svg_39" fill="#fff" d="m632.09,294.37091a11.54,11.54 0 0 1 0.56,-1.66c0.43,-1.13 1,-2.63 1.7,-4.45c1.45,-3.75 3.49,-8.91 5.78,-14.6c1.15,-2.84 2.24,-5.55 3.25,-8a17.2,17.2 0 0 1 3.65,-6.08a7.67,7.67 0 0 1 4.25,-2.17a5.72,5.72 0 0 1 1.31,0a1.68,1.68 0 0 1 0.44,0.11a11.51,11.51 0 0 0 -1.72,0.1a7.79,7.79 0 0 0 -4,2.23a17.23,17.23 0 0 0 -3.47,6c-1,2.48 -2.07,5.19 -3.21,8c-2.28,5.69 -4.38,10.84 -5.92,14.55l-1.85,4.38a10.31,10.31 0 0 1 -0.77,1.59z"/>
    <path id="svg_40" fill="#fff" d="m663.71,312.46091a6.89,6.89 0 0 1 -1.1,-0.89c-0.34,-0.31 -0.77,-0.67 -1.28,-1.07s-1.06,-0.89 -1.73,-1.36a48.72,48.72 0 0 0 -4.77,-3.16a51.22,51.22 0 0 0 -6.29,-3a51.78,51.78 0 0 0 -6.67,-2.11a48.6,48.6 0 0 0 -5.63,-1c-0.81,-0.12 -1.55,-0.15 -2.19,-0.21s-1.21,-0.08 -1.66,-0.09a8.5,8.5 0 0 1 -1.42,-0.11a7,7 0 0 1 1.42,-0.1c0.46,0 1,0 1.67,0s1.4,0 2.21,0.13a44.07,44.07 0 0 1 5.71,0.88a49.63,49.63 0 0 1 6.76,2.09a48.63,48.63 0 0 1 6.34,3.13a44.75,44.75 0 0 1 4.75,3.28c0.65,0.49 1.2,1 1.69,1.43a16.15,16.15 0 0 1 1.22,1.14a7.63,7.63 0 0 1 0.97,1.02z"/>
    <rect transform="rotate(-25.7 -90.36 195.281)" id="svg_41" fill="#e0e0e0" rx="2.41" height="124.67" width="90.75" y="392.71091" x="-21.15"/>
    <rect transform="rotate(-25.7 -89.78 194.821)" id="svg_42" fill="#fafafa" height="116.04" width="80.62" y="395.07091" x="-16.22"/>
    <path id="svg_43" fill="#ebebeb" d="m115.2,320.35091a9.86,9.86 0 0 0 -10.33,-1.08l-2.23,-4.39a6.77,6.77 0 0 0 -9,-3.17l0,0a6.78,6.78 0 0 0 -3.17,9.06l2.23,4.63l-1.55,0.78a9.89,9.89 0 0 0 -5.45,8.7l0,2.3l31.63,-15.22l-2.13,-1.61zm-16.88,0.72a3.65,3.65 0 1 1 1.71,-4.88a3.65,3.65 0 0 1 -1.71,4.88z"/>
    <path id="svg_44" fill="#e0e0e0" d="m97.4,345.21091c0.07,0.13 -4.29,2.36 -9.73,5s-9.9,4.63 -10,4.5s4.29,-2.36 9.73,-5s9.94,-4.63 10,-4.5z"/>
    <path id="svg_45" fill="#e0e0e0" d="m88.8,353.44091a26.72,26.72 0 0 1 -4.63,2.52a26.47,26.47 0 0 1 -4.86,2a27,27 0 0 1 4.66,-2.47a27.92,27.92 0 0 1 4.83,-2.05z"/>
    <path id="svg_46" fill="#e0e0e0" d="m139.53,340.43091c0.06,0.12 -12.16,6.14 -27.3,13.42s-27.46,13.09 -27.52,13s12.16,-6.18 27.26,-13.47s27.5,-13.08 27.56,-12.95z"/>
    <path id="svg_47" fill="#e0e0e0" d="m142.05,345.65091c0.06,0.13 -12.16,6.14 -27.3,13.43s-27.46,13.09 -27.52,13s12.15,-6.14 27.3,-13.43s27.44,-13.13 27.52,-13z"/>
    <path id="svg_48" fill="#e0e0e0" d="m144.56,350.88091c0.07,0.13 -12.16,6.14 -27.29,13.43s-27.46,13.09 -27.53,13s12.16,-6.14 27.3,-13.43s27.46,-13.13 27.52,-13z"/>
    <path id="svg_49" fill="#e0e0e0" d="m147.08,356.11091c0.06,0.13 -12.16,6.14 -27.3,13.43s-27.46,13.08 -27.52,13s12.16,-6.14 27.3,-13.42s27.46,-13.14 27.52,-13.01z"/>
    <path id="svg_50" fill="#e0e0e0" d="m149.6,361.33091c0.06,0.13 -12.16,6.15 -27.3,13.43s-27.46,13.09 -27.52,13s12.19,-6.18 27.29,-13.47s27.46,-13.08 27.53,-12.96z"/>
    <path id="svg_51" fill="#e0e0e0" d="m152.11,366.56091c0.06,0.13 -12.16,6.14 -27.29,13.43s-27.47,13.09 -27.53,13s12.16,-6.14 27.3,-13.43s27.46,-13.13 27.52,-13z"/>
    <path id="svg_52" fill="#e0e0e0" d="m126.97,384.47091a5.06,5.06 0 0 1 -1,0.61l-2.9,1.49c-2.46,1.23 -5.88,2.91 -9.66,4.73s-7.23,3.45 -9.73,4.6l-3,1.34a4.85,4.85 0 0 1 -1.12,0.42a6.24,6.24 0 0 1 1,-0.61l2.9,-1.48c2.46,-1.24 5.88,-2.92 9.66,-4.74s7.23,-3.44 9.73,-4.59l3,-1.34a5.3,5.3 0 0 1 1.12,-0.43z"/>
    <path id="svg_53" fill="#e0e0e0" d="m135.62,326.23091a23.08,23.08 0 0 1 -4.28,2.35a22.79,22.79 0 0 1 -4.5,1.88a23.08,23.08 0 0 1 4.28,-2.35a22.79,22.79 0 0 1 4.5,-1.88z"/>
    <path id="svg_54" fill="#e0e0e0" d="m119.97,401.88091a58.76,58.76 0 0 1 -7,3.66a60.44,60.44 0 0 1 -7.23,3.19a58.76,58.76 0 0 1 7,-3.66a60.44,60.44 0 0 1 7.23,-3.19z"/>
    <path id="svg_55" fill="#e0e0e0" d="m122.75,406.38091a60.75,60.75 0 0 1 -7.12,3.71a61.44,61.44 0 0 1 -7.35,3.25a62.69,62.69 0 0 1 7.12,-3.72a62.27,62.27 0 0 1 7.35,-3.24z"/>
    <path id="svg_56" fill="#e0e0e0" d="m160.97,381.27091a13.69,13.69 0 0 1 -3.32,1.89a14,14 0 0 1 -3.56,1.42a14.57,14.57 0 0 1 3.33,-1.89a14.42,14.42 0 0 1 3.55,-1.42z"/>
    <path id="svg_57" fill="#e0e0e0" d="m163.24,385.43091a14.57,14.57 0 0 1 -3.33,1.89a14.42,14.42 0 0 1 -3.55,1.42a13.69,13.69 0 0 1 3.32,-1.89a14,14 0 0 1 3.56,-1.42z"/>
    <path id="svg_58" fill="#e0e0e0" d="m118.51,414.56091a13.4,13.4 0 0 1 -3.21,1.83a13.5,13.5 0 0 1 -3.44,1.37a13.62,13.62 0 0 1 3.21,-1.88a13.38,13.38 0 0 1 3.44,-1.32z"/>
    <path id="svg_59" fill="#e0e0e0" d="m165.87,390.30091a7.41,7.41 0 0 1 -2.37,1.43a8,8 0 0 1 -2.61,1a7.45,7.45 0 0 1 2.38,-1.44a7.58,7.58 0 0 1 2.6,-0.99z"/>
    <path id="svg_60" fill="#e0e0e0" d="m116.84,429.22091a1.75,1.75 0 0 1 0.28,-0.21l0.84,-0.56l3.23,-2.07l11.61,-7.29l0.23,-0.15l0.1,0.25a6.59,6.59 0 0 1 0.13,4.41a5.38,5.38 0 0 1 -3.2,3.46a5.32,5.32 0 0 1 -5,-0.55a4.65,4.65 0 0 1 -1.65,-4.87a4.31,4.31 0 0 1 1,-1.82a3.24,3.24 0 0 1 0.38,-0.36a2,2 0 0 1 0.45,-0.31a0.76,0.76 0 0 1 0.7,0a1.21,1.21 0 0 1 0.4,0.46a8.72,8.72 0 0 1 1,3.7a8.62,8.62 0 0 1 -0.57,3.65a5.53,5.53 0 0 1 -2.15,2.85a3.19,3.19 0 0 1 -3.38,-0.07a4.86,4.86 0 0 1 -2,-2.51a11.69,11.69 0 0 1 0,-5.65l0.06,-0.38l0.26,0.29a7.89,7.89 0 0 1 1.91,4.31a8.48,8.48 0 0 1 -0.34,3.55a7.56,7.56 0 0 1 -1,2c-0.16,0.21 -0.29,0.35 -0.38,0.45s-0.13,0.15 -0.14,0.14a9.31,9.31 0 0 0 1.33,-2.66a8.55,8.55 0 0 0 0.24,-3.45a7.55,7.55 0 0 0 -1.89,-4.1l0.32,-0.09a11.25,11.25 0 0 0 0,5.44a4.39,4.39 0 0 0 1.83,2.26a2.72,2.72 0 0 0 2.89,0.05a5.13,5.13 0 0 0 1.94,-2.61a8.38,8.38 0 0 0 0.52,-3.46a8.24,8.24 0 0 0 -1,-3.47a0.62,0.62 0 0 0 -0.21,-0.27a0.22,0.22 0 0 0 -0.22,0a2.46,2.46 0 0 0 -0.65,0.54a3.76,3.76 0 0 0 -0.84,1.59a4.14,4.14 0 0 0 1.46,4.33a4.83,4.83 0 0 0 4.46,0.5a4.9,4.9 0 0 0 2.92,-3.14a6.09,6.09 0 0 0 -0.09,-4.09l0.33,0.11l-11.71,7.13l-3.3,2l-0.87,0.5a1.33,1.33 0 0 1 -0.23,0.17z"/>
    <path id="svg_61" fill="#e0e0e0" d="m168.76,404.01091a3,3 0 0 1 -0.16,0.94a4,4 0 0 1 -0.46,1.06a2.24,2.24 0 0 1 -1.25,1a1.55,1.55 0 0 1 -1,0a2,2 0 0 1 -0.84,-0.65a19,19 0 0 1 -1.12,-1.9l-2.45,-4.58l0.45,-0.1c-0.08,2.29 -0.16,4.79 -0.26,7.41c0,0.63 0,1.24 -0.07,1.85l0,1l-0.45,-0.93c-1.37,-2.81 -2.64,-5.44 -3.76,-7.72l0.42,0a26.63,26.63 0 0 0 -1,7c0,1.71 0.11,2.68 0.06,2.69a2.31,2.31 0 0 1 -0.15,-0.7a19.78,19.78 0 0 1 -0.17,-2a24.39,24.39 0 0 1 0.78,-7.09l0.15,-0.58l0.26,0.54l3.83,7.69l-0.5,0.1c0,-0.6 0,-1.22 0.07,-1.85c0.11,-2.62 0.21,-5.12 0.3,-7.41l0,-0.9l0.41,0.79c0.88,1.65 1.69,3.19 2.42,4.57a20,20 0 0 0 1.05,1.89a1.34,1.34 0 0 0 1.45,0.61a2.56,2.56 0 0 0 1.63,-1.78a7.54,7.54 0 0 1 0.36,-0.95z"/>
    <path id="svg_62" fill="#e0e0e0" d="m168.66,400.27091c0.08,0.11 -4.05,3.06 -9.22,6.58s-9.43,6.27 -9.51,6.15s4,-3.06 9.22,-6.58s9.43,-6.27 9.51,-6.15z"/>
    <path id="svg_63" fill="#e0e0e0" d="m173.73,401.14091a78.85,78.85 0 0 1 -6.76,6.15a79.62,79.62 0 0 1 -7.1,5.76a80.85,80.85 0 0 1 6.76,-6.15a79.62,79.62 0 0 1 7.1,-5.76z"/>
    <path id="svg_64" fill="#f5f5f5" d="m210.31,185.71091l-4.21,0l-9.13,-12.83l0,-8.4s-6.51,-0.4 -5.74,10.6s-0.06,8.19 -0.06,8.19s-13.81,0.06 -15,1.26c-0.84,0.87 -1.21,14.59 -1.36,22a8.06,8.06 0 0 0 5.71,8.11a5.81,5.81 0 0 0 1.45,0.24c3.44,0 21,-2.8 21,-2.8l7.27,0l0.07,-26.37z"/>
    <polygon id="svg_65" fill="#f5f5f5" points="222.36000061035156,183.40090942382812 219.77000427246094,212.180908203125 212.55999755859375,212.180908203125 212.55999755859375,183.98089599609375 222.36000061035156,183.40090942382812 "/>
   </g>
   <g id="svg_13">
    <path id="svg_66" fill="#39A0ED" d="m534.97,188.26091c-1.08,-8.76 -8.49,-16.93 -17.32,-16.93c-5.21,0 -10.16,2.72 -13.72,6.52a36.6,36.6 0 0 0 -3.49,4.13a35.65,35.65 0 0 0 -2.6,-4.73c-2.74,-4.43 -7.06,-8.08 -12.17,-9.1c-8.65,-1.73 -17.52,4.81 -20.31,13.19s-0.47,17.77 4.12,25.31s12.48,17.39 27,22.28c10,-1.29 23.46,-10.18 29.44,-16.67s10.1,-15.25 9.05,-24z"/>
    <path id="svg_67" fill="#fafafa" d="m531.75,203.98091a1.29,1.29 0 0 1 -0.29,0l-0.85,-0.06l-3.27,-0.27l-12,-1.1l0.22,-0.13c-1.45,3.77 -3.14,8.19 -5,13l-0.3,0.78l-0.2,-0.82c-1.53,-6.32 -3.23,-13.41 -5,-20.88c-0.55,-2.31 -1.1,-4.59 -1.63,-6.81l0.51,0.1l-9.16,12.6l-0.09,0.12l-0.15,0l-21.08,-2.2l-6,-0.66l-1.58,-0.2a2.13,2.13 0 0 1 -0.54,-0.1a2.85,2.85 0 0 1 0.55,0l1.58,0.11l6,0.52l21.1,2l-0.23,0.1l9.12,-12.62l0.36,-0.51l0.14,0.61c0.54,2.22 1.08,4.49 1.64,6.81l5,20.89l-0.5,0c1.89,-4.83 3.62,-9.24 5.1,-13l0.05,-0.15l0.16,0l12,1.28l3.25,0.38l0.85,0.11a1,1 0 0 1 0.24,0.1z"/>
    <rect id="svg_68" fill="#39A0ED" height="29.59" width="6.6" y="242.93091" x="311.21"/>
    <rect transform="rotate(-90 176.66 561.261)" id="svg_69" fill="#39A0ED" height="29.59" width="6.6" y="684.31091" x="476.9"/>
    <path id="svg_70" fill="#39A0ED" d="m339.08,257.80091a3.35,3.35 0 0 1 -0.05,-0.4c0,-0.29 -0.05,-0.68 -0.08,-1.17c0,-0.26 0,-0.55 -0.06,-0.86s-0.1,-0.66 -0.16,-1a17.67,17.67 0 0 0 -0.52,-2.54a23.5,23.5 0 0 0 -2.74,-6.52a24.43,24.43 0 0 0 -29.37,-10.43a24.91,24.91 0 0 0 -3.19,1.4a25.77,25.77 0 0 0 -3,1.93a27.78,27.78 0 0 0 -2.77,2.35a28.36,28.36 0 0 0 -2.39,2.83a23.86,23.86 0 0 0 -3.49,6.72a24.19,24.19 0 0 0 0,15.41a23.72,23.72 0 0 0 3.49,6.72a26.26,26.26 0 0 0 2.39,2.83a26.61,26.61 0 0 0 2.77,2.36a25.77,25.77 0 0 0 3,1.93a26.39,26.39 0 0 0 3.19,1.4a24.51,24.51 0 0 0 29.37,-10.42a23.42,23.42 0 0 0 2.74,-6.53a17.29,17.29 0 0 0 0.52,-2.53c0.06,-0.38 0.13,-0.72 0.16,-1s0,-0.6 0.06,-0.86c0,-0.5 0.06,-0.88 0.08,-1.17a3,3 0 0 1 0.05,-0.4a2.38,2.38 0 0 1 0,0.4c0,0.29 0,0.68 0,1.17l0,0.87c0,0.32 -0.09,0.66 -0.13,1a18.45,18.45 0 0 1 -0.48,2.56a23.54,23.54 0 0 1 -2.69,6.63a24.85,24.85 0 0 1 -16.81,11.76a25,25 0 0 1 -13,-1.05a27.35,27.35 0 0 1 -3.25,-1.42a27.49,27.49 0 0 1 -5.89,-4.36a27.08,27.08 0 0 1 -2.44,-2.88a23.88,23.88 0 0 1 -3.57,-6.87a26.53,26.53 0 0 1 -1.29,-7.87a26.84,26.84 0 0 1 1.29,-7.86a24.08,24.08 0 0 1 3.57,-6.86a28.23,28.23 0 0 1 2.44,-2.89a28.87,28.87 0 0 1 2.83,-2.39a24.85,24.85 0 0 1 19.31,-4.43a24.85,24.85 0 0 1 16.71,11.77a23.61,23.61 0 0 1 2.69,6.62a18.84,18.84 0 0 1 0.48,2.57c0,0.37 0.11,0.72 0.13,1l0,0.86c0,0.5 0,0.89 0,1.18a2.47,2.47 0 0 1 0.1,0.44z"/>
   </g>
   <g id="svg_12">
    <path id="svg_71" fill="#39A0ED" d="m643.62,461.59091s29.26,-7 30.23,-8.21l-24.07,-62a45.35,45.35 0 0 0 -28.07,-27.36a79.53,79.53 0 0 0 -28.42,-4.39l-40.63,-2.15a80.47,80.47 0 0 0 -32.06,8.87a64.69,64.69 0 0 0 -30.09,33.17l-18.22,45.51l46,9.61l1.75,48.9l-6.93,67.47l126.86,0l-0.88,-106.94l0,0l4.53,-2.48z"/>
    <g id="svg_72" opacity="0.3">
     <path id="svg_73" fill="#fff" d="m668.84,445.28091c0,0.14 -7.55,2.62 -17,5.53s-17.07,5.17 -17.11,5s7.54,-2.62 17,-5.54s17.07,-5.13 17.11,-4.99z"/>
    </g>
    <path id="svg_74" fill="#263238" d="m536.07,401.70091a6.76,6.76 0 0 1 -0.78,-1.07c-0.46,-0.7 -1.17,-1.7 -2.09,-2.9a48.33,48.33 0 0 0 -3.45,-4a53,53 0 0 0 -4.76,-4.4a55.54,55.54 0 0 0 -5.31,-3.74a51.12,51.12 0 0 0 -4.67,-2.51c-1.36,-0.65 -2.49,-1.13 -3.28,-1.44a5.72,5.72 0 0 1 -1.21,-0.54a7.68,7.68 0 0 1 1.28,0.35a35.65,35.65 0 0 1 3.36,1.29a46.35,46.35 0 0 1 4.77,2.44a51.17,51.17 0 0 1 5.38,3.74a48.81,48.81 0 0 1 4.79,4.48a44.63,44.63 0 0 1 3.39,4.14a31.66,31.66 0 0 1 2,3a6,6 0 0 1 0.58,1.16z"/>
    <path id="svg_75" fill="#263238" d="m530.08,416.50091c0.14,0 -1.28,14.94 -3.17,33.34s-3.54,33.31 -3.68,33.29s1.27,-14.94 3.17,-33.34s3.57,-33.31 3.68,-33.29z"/>
    <path id="svg_76" fill="#263238" d="m629.97,388.88091a28.4,28.4 0 0 1 -0.65,-3a56.32,56.32 0 0 0 -2,-7.16a55.36,55.36 0 0 0 -3,-6.82a28.9,28.9 0 0 1 -1.42,-2.75s0.22,0.21 0.53,0.65s0.73,1.1 1.22,1.92a42.5,42.5 0 0 1 3.16,6.82a41.55,41.55 0 0 1 1.89,7.27c0.15,0.95 0.24,1.72 0.28,2.26a2.91,2.91 0 0 1 -0.01,0.81z"/>
    <path id="svg_77" fill="#263238" d="m632.53,441.03091a8.88,8.88 0 0 1 -0.24,-1.47c-0.13,-0.94 -0.28,-2.32 -0.45,-4c-0.33,-3.4 -0.68,-8.12 -0.86,-13.33s-0.17,-9.95 -0.08,-13.37c0.05,-1.71 0.1,-3.09 0.16,-4a7.38,7.38 0 0 1 0.15,-1.48a9.64,9.64 0 0 1 0.06,1.48l0,4.02c0,3.41 0.05,8.13 0.23,13.34s0.47,9.91 0.71,13.32c0.11,1.63 0.2,3 0.28,4a7.66,7.66 0 0 1 0.04,1.49z"/>
    <path id="svg_78" fill="#fff" d="m571.09,432.30091a208.48,208.48 0 0 1 -32,-0.6l0,4.18l32,0l0,-3.58z"/>
    <g id="svg_79" opacity="0.3">
     <path id="svg_80" fill="#fff" d="m602.97,363.16091a2.73,2.73 0 0 1 0.13,0.63l0.28,1.84c0.2,1.62 0.48,4 0.71,7c0.48,6 0.9,14.55 1,24.64l0,0.38l-0.35,-0.16c-6.38,-3.11 -13.53,-6.49 -21,-10.21l-36.37,-18.2l-11,-5.57l-3,-1.53l-0.76,-0.42a1.11,1.11 0 0 1 -0.26,-0.15a1.09,1.09 0 0 1 0.28,0.11l0.79,0.36l3,1.45l11.06,5.42l36.49,18.06c7.44,3.72 14.58,7.11 21,10.24l-0.34,0.21c-0.11,-10.07 -0.46,-18.61 -0.86,-24.62c-0.18,-3 -0.42,-5.37 -0.57,-7c-0.09,-0.78 -0.16,-1.4 -0.21,-1.85a6.07,6.07 0 0 1 -0.02,-0.63z"/>
    </g>
    <g id="svg_81" opacity="0.3">
     <path id="svg_82" fill="#fff" d="m526.52,449.54091a1.81,1.81 0 0 1 -0.53,-0.09l-1.49,-0.35l-5.47,-1.39c-4.62,-1.19 -11,-2.8 -18.06,-4.51s-13.48,-3.19 -18.13,-4.25l-5.5,-1.26l-1.49,-0.36a2.51,2.51 0 0 1 -0.51,-0.16a1.94,1.94 0 0 1 0.53,0l1.51,0.27c1.31,0.24 3.2,0.62 5.54,1.1c4.67,1 11.1,2.39 18.17,4.1s13.44,3.39 18,4.66c2.3,0.64 4.16,1.17 5.43,1.55l1.47,0.45a2.64,2.64 0 0 1 0.53,0.24z"/>
    </g>
    <path id="svg_83" fill="#263238" d="m597.34,355.59091c0,-0.15 2.75,1.29 5.4,5.22s5.06,10 6.43,17a69.93,69.93 0 0 1 1.17,10c0,1.54 0.07,3 0,4.37s-0.09,2.64 -0.21,3.8s-0.24,2.19 -0.34,3.12s-0.28,1.69 -0.39,2.33a7.1,7.1 0 0 1 -0.48,2a7.62,7.62 0 0 1 0.08,-2l0.21,-2.34c0.06,-0.93 0.12,-2 0.18,-3.11s0,-2.41 0.09,-3.76s-0.07,-2.8 -0.12,-4.31a78.05,78.05 0 0 0 -1.23,-9.8a53.34,53.34 0 0 0 -6,-16.77a23,23 0 0 0 -3.33,-4.24a19.34,19.34 0 0 1 -1.46,-1.51z"/>
    <path id="svg_84" fill="#263238" d="m551.87,355.88091a21.59,21.59 0 0 1 -2.11,3a42.85,42.85 0 0 0 -4.71,8.8a59.9,59.9 0 0 0 -3.49,14.37c-0.73,5.54 -1,11.74 -1.45,18.23s-0.35,12.67 -0.36,18.3s0,10.71 0,15s-0.11,7.73 -0.23,10.12a17.11,17.11 0 0 1 -0.37,3.7a17.42,17.42 0 0 1 -0.24,-3.71c-0.07,-2.43 -0.15,-5.87 -0.26,-10.1s-0.25,-9.34 -0.33,-15s-0.1,-11.86 0.24,-18.4s0.76,-12.71 1.58,-18.34a57.36,57.36 0 0 1 3.9,-14.6a36.65,36.65 0 0 1 5.25,-8.73a13.57,13.57 0 0 1 2.58,-2.64z"/>
    <path id="svg_85" fill="#263238" d="m619.11,439.47091a19,19 0 0 1 -0.2,-3.3c-0.06,-2.13 -0.11,-5.21 -0.15,-9c0,-1.91 0,-4 -0.06,-6.22s0,-4.64 -0.13,-7.1a11.75,11.75 0 0 0 -2.55,-7a9.64,9.64 0 0 0 -7,-3.34a11,11 0 0 0 -7.37,2.86a12.7,12.7 0 0 0 -3.72,6.49c-0.62,2.38 -0.88,4.77 -1.25,7l-1,6.14c-0.6,3.75 -1.11,6.79 -1.48,8.88a20.11,20.11 0 0 1 -0.68,3.24a18.69,18.69 0 0 1 0.28,-3.3c0.25,-2.11 0.64,-5.16 1.15,-8.93c0.26,-1.89 0.55,-3.95 0.85,-6.16s0.56,-4.59 1.18,-7.09a13.5,13.5 0 0 1 4,-7a12,12 0 0 1 7.99,-3.16a10.6,10.6 0 0 1 7.8,3.71a12.6,12.6 0 0 1 2.74,7.58c0.15,2.56 0,4.93 0,7.17s-0.05,4.32 -0.08,6.22c0,3.8 -0.11,6.88 -0.18,9a20.33,20.33 0 0 1 -0.14,3.31z"/>
    <path id="svg_86" fill="#263238" d="m609.46,393.75091c-0.33,3.5 -1.45,7.43 -3.88,10a14.06,14.06 0 0 1 6.45,0.12c-1.52,-3 -1.76,-6.7 -1.72,-10.09"/>
    <path id="svg_87" fill="#263238" d="m619.14,416.50091c-0.19,0 -0.3,-1.68 -1.58,-4a12.44,12.44 0 0 0 -2.91,-3.48a10.8,10.8 0 0 0 -4.92,-2.34a10.5,10.5 0 0 0 -5.42,0.54a11.83,11.83 0 0 0 -3.87,2.34c-1.94,1.76 -2.58,3.36 -2.75,3.27s0.3,-1.77 2.24,-3.8a11.64,11.64 0 0 1 4,-2.7a11,11 0 0 1 5.94,-0.68a11.2,11.2 0 0 1 5.36,2.64a11.94,11.94 0 0 1 2.94,3.87c1.23,2.56 1.06,4.35 0.97,4.34z"/>
    <path id="svg_88" fill="#ffbe9d" d="m645.9,529.78091c6,0 11.28,-4.29 14.08,-9.54s3.52,-11.36 3.79,-17.31a140.51,140.51 0 0 0 -5.72,-46.7l-26.08,4.55l7.11,70.29l6.82,-1.29z"/>
    <polygon id="svg_89" fill="#263238" points="540.3399658203125,538.5308837890625 625.3199462890625,535.44091796875 645.9299926757812,435.8609313964844 556.4199829101562,440.8309326171875 540.3399658203125,538.5308837890625 "/>
    <path id="svg_90" fill="#455a64" d="m584.08,439.12091l1.28,-2.54l6.78,-0.49s1.72,-4.45 11.42,-4.91c8.68,-0.4 9,4 9,4l4.68,0l0,2.13l-33.16,1.81z"/>
    <path id="svg_91" fill="#ffbe9d" d="m631.46,506.44091l6.44,-1.87a7.86,7.86 0 0 1 3.73,-0.17l0,0a7.86,7.86 0 0 1 4,2.11c2.13,2.1 5.57,5.57 6.06,6.61c0.72,1.51 0.72,4.13 0,5.09s1.58,5.93 1.29,7.58a10.32,10.32 0 0 1 -1.29,4c-0.58,0.69 0,3.05 -1.44,4.83a23.85,23.85 0 0 1 -2.73,2.88s-17.7,0.83 -19.42,0s-4.75,-4 -4.75,-4s-1.58,-2.89 0.86,-3.17l-10.07,-3.85a2.4,2.4 0 0 1 -1.46,-3a1.68,1.68 0 0 1 0.89,-1s-4.52,-1.43 -5.57,-1.89c-2.09,-0.92 -2.88,-5.78 1.45,-5.16c2.28,0.33 5.37,1 5.37,1s-1.65,-2.68 0.66,-4.28c1.4,-1 7.7,0.21 7.7,0.21l8.28,-5.91l0,-0.01z"/>
    <path id="svg_92" fill="#eb996e" d="m633.7,533.00091a14.89,14.89 0 0 1 -5.23,-0.78a13,13 0 0 1 -4.82,-2.18c0.07,-0.12 2.18,0.91 5,1.68s5.07,1.16 5.05,1.28z"/>
    <path id="svg_93" fill="#eb996e" d="m629.85,526.71091a68.26,68.26 0 0 1 -8.21,-1.83a65.84,65.84 0 0 1 -8.08,-2.33a136.92,136.92 0 0 1 16.29,4.16z"/>
    <path id="svg_94" fill="#eb996e" d="m631.97,520.45091a155.33,155.33 0 0 1 -17.56,-4.11a155.33,155.33 0 0 1 17.56,4.11z"/>
    <path id="svg_95" fill="#eb996e" d="m638.5,512.39091a11.58,11.58 0 0 1 -2.27,0.73l-2.5,0.64l-1.48,0.37a5.65,5.65 0 0 1 -1.7,0.16a9.43,9.43 0 0 1 -1.66,-0.27l-1.49,-0.34l-2.5,-0.6a11,11 0 0 1 -2.29,-0.69a10.73,10.73 0 0 1 2.36,0.33l2.54,0.49a30,30 0 0 0 3.07,0.56a11.22,11.22 0 0 0 3,-0.47l2.53,-0.54a11.12,11.12 0 0 1 2.39,-0.37z"/>
    <path id="svg_96" fill="#eb996e" d="m639.63,515.78091c0.06,0 0.3,0.18 0.49,0.66a2.93,2.93 0 0 1 0.07,2a3,3 0 0 1 -1.18,1.59c-0.43,0.28 -0.75,0.32 -0.78,0.26s1,-0.68 1.46,-2a5.56,5.56 0 0 0 -0.06,-2.51z"/>
    <path id="svg_97" fill="#eb996e" d="m639.27,522.62091c0.12,-0.06 0.52,0.65 0.46,1.62s-0.52,1.64 -0.64,1.56s0.08,-0.74 0.12,-1.59s-0.09,-1.54 0.06,-1.59z"/>
    <path id="svg_98" fill="#eb996e" d="m639.37,530.04091c0.13,-0.05 0.4,0.43 0.27,1.06s-0.55,1 -0.66,0.87s0.06,-0.48 0.15,-1s0.1,-0.89 0.24,-0.93z"/>
    <path id="svg_99" fill="#eb996e" d="m641.3,511.98091a5.46,5.46 0 0 1 -1.7,-0.08l-1.82,-0.24a7.1,7.1 0 0 0 -2.17,-0.11a5.41,5.41 0 0 0 -1.92,0.87c-0.56,0.37 -1,0.79 -1.51,1.06a2.87,2.87 0 0 1 -1.63,0.56c0,-0.09 0.61,-0.26 1.43,-0.87a8.71,8.71 0 0 1 3.56,-2.13a6.26,6.26 0 0 1 1.22,0c0.41,0 0.74,0.12 1.09,0.18l1.81,0.34a6,6 0 0 1 1.64,0.42z"/>
    <path id="svg_100" fill="#eb996e" d="m651.52,530.11091a8.72,8.72 0 0 1 0.45,-1.23a8.68,8.68 0 0 0 0.33,-6c-0.2,-0.88 -0.61,-1.76 -0.83,-2.81a8.81,8.81 0 0 1 0.22,-3.27a5.8,5.8 0 0 0 -0.58,-3.21a15,15 0 0 0 -1.84,-2.85c-0.69,-0.87 -1.36,-1.72 -2,-2.48a11.86,11.86 0 0 0 -4.19,-3.27a6.74,6.74 0 0 0 -3.52,-0.54c-0.84,0.12 -1.28,0.34 -1.3,0.3s0.1,-0.08 0.31,-0.19a4.91,4.91 0 0 1 1,-0.31a6.75,6.75 0 0 1 3.69,0.39a11.89,11.89 0 0 1 4.4,3.3c0.7,0.77 1.38,1.61 2.08,2.48a15.74,15.74 0 0 1 1.91,3a6.21,6.21 0 0 1 0.61,3.5a9,9 0 0 0 -0.25,3.11c0.19,1 0.59,1.89 0.78,2.79a10,10 0 0 1 0.33,2.57a9.16,9.16 0 0 1 -0.89,3.6a5,5 0 0 1 -0.71,1.12z"/>
    <path id="svg_101" fill="#ffbe9d" d="m592.03,480.88091l-69.77,11.08l3.1,-36.41l-38.8,-7.5l-4.72,53.91l-0.82,12.36a24.15,24.15 0 0 0 10.13,21.28l0,0a24.17,24.17 0 0 0 21.42,3.28l15,-4.89l73.12,-26"/>
    <path id="svg_102" fill="#ffbe9d" d="m634.25,473.35091a2,2 0 0 0 -2,-2.33c-3.93,0 -14.55,0 -18.3,1.11c-4.64,1.31 -21.93,8.73 -21.93,8.73l7.33,27l26.53,0.28s9.69,-4.45 9.81,-6.38a31.07,31.07 0 0 0 -0.24,-3.61l2.93,-1.57c4.36,-2.76 1.56,-8.07 1.56,-8.07s3,-1.68 3.16,-4.72a4.72,4.72 0 0 0 -2.34,-4.47s1.2,-4.28 -1,-5.43s-6,0.32 -6,0.32a1.55,1.55 0 0 0 0.49,-0.86z"/>
    <path id="svg_103" fill="#eb996e" d="m635.78,473.79091a2.74,2.74 0 0 1 -0.82,0.29c-0.53,0.15 -1.32,0.32 -2.29,0.49c-2,0.35 -4.66,0.64 -7.65,1a62,62 0 0 0 -7.58,1.16c-1.91,0.44 -3,1 -3,1a2.84,2.84 0 0 1 0.73,-0.47a12.87,12.87 0 0 1 2.2,-0.85a46.84,46.84 0 0 1 7.61,-1.32c3,-0.32 5.71,-0.55 7.65,-0.8s3.12,-0.57 3.15,-0.5z"/>
    <path id="svg_104" fill="#eb996e" d="m640.77,479.21091a6.38,6.38 0 0 1 -1.87,0.95a29.74,29.74 0 0 1 -4.83,1.41c-1.93,0.4 -3.68,0.66 -5,0.83a8.6,8.6 0 0 1 -2.07,0.16c0,-0.17 3.1,-0.73 6.92,-1.5a49.63,49.63 0 0 0 4.82,-1.24a11.89,11.89 0 0 1 2.03,-0.61z"/>
    <path id="svg_105" fill="#eb996e" d="m639.97,488.61091a28.77,28.77 0 0 1 -11.64,2.64c0,-0.16 2.64,-0.49 5.84,-1.22s5.8,-1.57 5.8,-1.42z"/>
    <path id="svg_106" fill="#eb996e" d="m638.39,496.63091a20,20 0 0 1 -9,2.17a731.72,731.72 0 0 0 9,-2.17z"/>
    <path id="svg_107" fill="#eb996e" d="m624.55,491.88091c0,0.06 -0.27,0.23 -0.81,0.28a3,3 0 0 1 -2,-0.55a3.07,3.07 0 0 1 -1.19,-1.71c-0.13,-0.53 -0.06,-0.86 0,-0.86s0.28,1.29 1.48,2.14a5.5,5.5 0 0 0 2.52,0.7z"/>
    <path id="svg_108" fill="#eb996e" d="m623.97,500.22091c0,0.14 -1,0.2 -1.95,-0.61s-1,-1.87 -0.83,-1.86s0.41,0.8 1.18,1.47s1.6,0.85 1.6,1z"/>
    <path id="svg_109" fill="#eb996e" d="m620.97,483.19091c0.06,0.14 -0.67,0.37 -1.35,-0.15s-0.66,-1.28 -0.51,-1.26s0.32,0.49 0.82,0.85s0.97,0.42 1.04,0.56z"/>
    <path id="svg_110" fill="#eb996e" d="m592.03,480.88091l0.21,-0.12l0.63,-0.29l2.46,-1.09c2.16,-0.93 5.29,-2.28 9.26,-3.91c2,-0.8 4.16,-1.69 6.56,-2.58a24.83,24.83 0 0 1 3.8,-1.18a40.21,40.21 0 0 1 4.22,-0.52c2.9,-0.23 6,-0.33 9.18,-0.37l2.43,0l1.24,0a2.63,2.63 0 0 1 1.32,0.28a2.12,2.12 0 0 1 1.13,2.41a0.74,0.74 0 0 1 -0.3,0.34l-0.3,0.19l-0.6,0.28a9.84,9.84 0 0 1 -1.26,0.44a0.26,0.26 0 0 1 -0.31,-0.18a0.25,0.25 0 0 1 0.18,-0.31a27.26,27.26 0 0 1 3.3,-0.74a12,12 0 0 1 3.5,-0.12a3.22,3.22 0 0 1 1.72,0.74a3.14,3.14 0 0 1 0.85,1.69a8.82,8.82 0 0 1 -0.23,3.65l-0.13,-0.31a4.91,4.91 0 0 1 1.47,1.3a5.21,5.21 0 0 1 0.76,4.73a7,7 0 0 1 -3,3.63l0.1,-0.35a8.27,8.27 0 0 1 0.84,4.62a5.31,5.31 0 0 1 -2.5,3.78l0,0l-2.92,1.57l0.13,-0.25c0.07,0.7 0.14,1.4 0.19,2.09c0,0.34 0,0.69 0.05,1c0,0.17 0,0.35 0,0.53a1.38,1.38 0 0 1 -0.21,0.57a6.4,6.4 0 0 1 -1.51,1.44c-0.54,0.4 -1.1,0.76 -1.65,1.1a72.38,72.38 0 0 1 -6.59,3.45l-0.09,0l-19.31,-0.3l-5.34,-0.11l-1.4,-0.05a2.2,2.2 0 0 1 -0.48,0a2.49,2.49 0 0 1 0.48,0l1.4,0l5.34,0l19.31,0.11l-0.09,0a70.49,70.49 0 0 0 6.53,-3.46c0.54,-0.33 1.09,-0.69 1.61,-1.08a5.76,5.76 0 0 0 1.38,-1.31a0.86,0.86 0 0 0 0.15,-0.35l0,-0.49c0,-0.34 0,-0.68 0,-1c-0.05,-0.68 -0.12,-1.37 -0.2,-2.06a0.23,0.23 0 0 1 0.13,-0.24l2.92,-1.58l0,0a4.81,4.81 0 0 0 2.27,-3.43a7.85,7.85 0 0 0 -0.8,-4.31a0.26,0.26 0 0 1 0.11,-0.34a6.52,6.52 0 0 0 2.8,-3.34a4.71,4.71 0 0 0 -0.69,-4.26a4.31,4.31 0 0 0 -1.29,-1.14a0.27,0.27 0 0 1 -0.13,-0.3a8.42,8.42 0 0 0 0.22,-3.41a2.26,2.26 0 0 0 -2.14,-2a11.36,11.36 0 0 0 -3.34,0.12a24.9,24.9 0 0 0 -3.24,0.71l-0.13,-0.49a8.63,8.63 0 0 0 1.18,-0.4c0.19,-0.08 0.39,-0.17 0.56,-0.26s0.35,-0.27 0.41,-0.25a2.13,2.13 0 0 0 -0.16,-1.05a1.84,1.84 0 0 0 -0.77,-0.77a2.08,2.08 0 0 0 -1.09,-0.22l-3.66,0c-3.2,0 -6.27,0.12 -9.16,0.33a41.41,41.41 0 0 0 -4.17,0.49a26,26 0 0 0 -3.75,1.14c-2.39,0.87 -4.58,1.74 -6.57,2.52l-9.31,3.77l-2.49,1l-0.65,0.26l-0.37,0.04z"/>
    <path id="svg_111" fill="#eb996e" d="m522.54,491.88091a27.55,27.55 0 0 0 -5.15,4.45a27.13,27.13 0 0 0 -3.44,5.88a5.64,5.64 0 0 1 0.52,-2a15.72,15.72 0 0 1 6.23,-7.49a5.79,5.79 0 0 1 1.84,-0.84z"/>
    <path id="svg_112" fill="#ffbe9d" d="m613.65,276.13091a35.24,35.24 0 0 0 -35.06,-32.48l-1.83,0c-19.68,1.11 -29.74,18.44 -28.08,38.09l3.39,78.75a3.57,3.57 0 0 0 2,3.06l44.18,20.73l-1.28,-41.33s18.93,-2.9 19.2,-21.82c0.08,-9.13 -1.2,-27.97 -2.52,-45z"/>
    <path id="svg_113" fill="#eb996e" d="m597.08,342.88091a45.82,45.82 0 0 1 -24.77,-7.3s5.8,13.62 24.68,12l0.09,-4.7z"/>
    <path id="svg_114" fill="#263238" d="m606.97,287.88091a2.71,2.71 0 0 1 -2.61,2.72a2.57,2.57 0 0 1 -2.78,-2.44a2.69,2.69 0 0 1 2.6,-2.72a2.59,2.59 0 0 1 2.79,2.44z"/>
    <path id="svg_115" fill="#263238" d="m609.57,285.38091c-0.34,0.35 -2.38,-1.17 -5.29,-1.17s-5,1.46 -5.35,1.1c-0.16,-0.16 0.18,-0.79 1.11,-1.47a7.45,7.45 0 0 1 4.29,-1.31a7.08,7.08 0 0 1 4.21,1.37c0.89,0.68 1.19,1.32 1.03,1.48z"/>
    <path id="svg_116" fill="#263238" d="m578.37,288.76091a2.69,2.69 0 0 1 -2.61,2.72a2.58,2.58 0 0 1 -2.78,-2.44a2.7,2.7 0 0 1 2.61,-2.72a2.58,2.58 0 0 1 2.78,2.44z"/>
    <path id="svg_117" fill="#263238" d="m580.97,285.88091c-0.33,0.35 -2.38,-1.16 -5.28,-1.16s-5,1.45 -5.36,1.09c-0.15,-0.16 0.19,-0.79 1.12,-1.46a7.38,7.38 0 0 1 4.29,-1.32a7.16,7.16 0 0 1 4.2,1.37c0.91,0.67 1.22,1.31 1.03,1.48z"/>
    <path id="svg_118" fill="#263238" d="m591.5,307.44091c0,-0.16 1.79,-0.47 4.72,-0.84c0.74,-0.08 1.45,-0.22 1.57,-0.73a3.74,3.74 0 0 0 -0.49,-2.2l-2.18,-5.66c-3,-8 -5.23,-14.67 -4.9,-14.79s3,6.31 6.08,14.37l2.09,5.69a4.28,4.28 0 0 1 0.38,2.91a1.85,1.85 0 0 1 -1.23,1.08a5.16,5.16 0 0 1 -1.26,0.18c-2.94,0.15 -4.77,0.16 -4.78,-0.01z"/>
    <path id="svg_119" fill="#263238" d="m582.97,309.44091c0.47,0 0.47,3.12 3.17,5.37s6.05,1.9 6.08,2.34c0,0.2 -0.75,0.62 -2.17,0.65a7.85,7.85 0 0 1 -5.08,-1.78a6.84,6.84 0 0 1 -2.45,-4.5c-0.15,-1.32 0.2,-2.1 0.45,-2.08z"/>
    <path id="svg_120" fill="#263238" d="m581.77,274.47091c-0.29,0.79 -3.19,0.41 -6.6,0.82s-6.17,1.33 -6.63,0.62c-0.2,-0.34 0.28,-1.09 1.4,-1.85a11.12,11.12 0 0 1 4.91,-1.71a11,11 0 0 1 5.16,0.62c1.25,0.51 1.88,1.13 1.76,1.5z"/>
    <path id="svg_121" fill="#263238" d="m608.52,276.97091c-0.52,0.65 -2.52,0 -4.93,-0.07s-4.44,0.43 -4.91,-0.26c-0.21,-0.33 0.12,-1 1,-1.62a7.14,7.14 0 0 1 7.92,0.26c0.86,0.68 1.14,1.36 0.92,1.69z"/>
    <path id="svg_122" fill="#ffbe9d" d="m551.51,295.74091c-0.32,-0.14 -13,-3.87 -12.6,9.07s13.29,9.87 13.3,9.5s-0.7,-18.57 -0.7,-18.57z"/>
    <path id="svg_123" fill="#eb996e" d="m549.25,309.53091c-0.06,0 -0.22,0.16 -0.6,0.35a2.26,2.26 0 0 1 -1.68,0.09c-1.38,-0.47 -2.6,-2.6 -2.73,-4.93a7.55,7.55 0 0 1 0.53,-3.24a2.6,2.6 0 0 1 1.65,-1.78a1.16,1.16 0 0 1 1.35,0.57c0.18,0.36 0.11,0.62 0.17,0.64s0.28,-0.22 0.16,-0.75a1.51,1.51 0 0 0 -0.54,-0.8a1.69,1.69 0 0 0 -1.25,-0.29a3.17,3.17 0 0 0 -2.3,2.07a7.65,7.65 0 0 0 -0.67,3.63c0.16,2.61 1.57,5 3.45,5.49a2.4,2.4 0 0 0 2,-0.41c0.44,-0.29 0.5,-0.62 0.46,-0.64z"/>
    <path id="svg_124" fill="#263238" d="m559.97,257.30091l53.92,1.19a24.58,24.58 0 0 0 -7.92,-9.16a42.07,42.07 0 0 0 -24.42,-8.79c-8.79,-0.16 -26.7,10.56 -33.07,16.62c-5.1,4.85 -5.06,9.05 -5.06,9.05c-0.81,7 3.1,14.94 4.66,21.81c0.8,3.54 2.35,14.25 2.35,14.25l0,0c3,0 4.07,-2.37 3.62,-5.31l-0.55,-11.53s10.1,-7.18 5.31,-20.32c-0.74,-1.05 -2.38,-5.85 1.16,-7.81z"/>
    <path id="svg_125" fill="#eb996e" d="m571.31,298.20091a0.33,0.33 0 0 1 -0.34,-0.32a0.34,0.34 0 0 1 0.24,-0.41a0.35,0.35 0 0 1 0.39,0.29a0.34,0.34 0 0 1 -0.29,0.44z"/>
    <path id="svg_126" fill="#eb996e" d="m576.87,296.95091c-0.18,0 -0.35,-0.11 -0.4,-0.33a0.38,0.38 0 0 1 0.24,-0.46a0.37,0.37 0 0 1 0.39,0.34a0.36,0.36 0 0 1 -0.23,0.45z"/>
    <path id="svg_127" fill="#eb996e" d="m580.61,296.88091c-0.18,0 -0.35,-0.19 -0.39,-0.48s0.08,-0.54 0.26,-0.56s0.34,0.19 0.38,0.48s-0.08,0.56 -0.25,0.56z"/>
    <path id="svg_128" fill="#eb996e" d="m574.03,301.69091c-0.17,0 -0.32,-0.09 -0.32,-0.2s0.15,-0.21 0.32,-0.21s0.32,0.1 0.32,0.21s-0.14,0.2 -0.32,0.2z"/>
    <path id="svg_129" fill="#eb996e" d="m579.13,300.52091a0.36,0.36 0 0 1 -0.06,-0.72a0.34,0.34 0 0 1 0.35,0.33a0.35,0.35 0 0 1 -0.29,0.39z"/>
    <path id="svg_130" fill="#eb996e" d="m605.64,297.41091a0.33,0.33 0 0 1 -0.38,-0.29a0.35,0.35 0 0 1 0.24,-0.42a0.35,0.35 0 0 1 0.39,0.29a0.34,0.34 0 0 1 -0.25,0.42z"/>
    <path id="svg_131" fill="#eb996e" d="m609.43,297.07091a0.41,0.41 0 1 1 0.28,-0.43a0.37,0.37 0 0 1 -0.28,0.43z"/>
    <path id="svg_132" fill="#eb996e" d="m602.3,297.50091a0.31,0.31 0 0 1 -0.37,-0.21a0.32,0.32 0 0 1 0.63,-0.13a0.31,0.31 0 0 1 -0.26,0.34z"/>
    <path id="svg_133" fill="#eb996e" d="m605.1,301.29091a0.38,0.38 0 1 1 0.14,-0.47a0.35,0.35 0 0 1 -0.14,0.47z"/>
    <path id="svg_134" fill="#eb996e" d="m608.33,300.65091a0.3,0.3 0 0 1 -0.24,-0.34a0.33,0.33 0 0 1 0.62,0.17a0.3,0.3 0 0 1 -0.38,0.17z"/>
    <path id="svg_135" fill="#263238" d="m548.15,257.88091a15.94,15.94 0 0 1 15.93,-19.82c2.52,0.1 5,0.81 7.52,0.54c4.67,-0.51 8.27,-4.25 12.6,-6.07a16.44,16.44 0 0 1 19.39,5.82c1.64,2.45 2.71,5.48 5.23,7c2.17,1.33 4.91,1.22 7.35,2c4.94,1.48 8.32,6.73 8.06,11.88a14.12,14.12 0 0 1 -8.61,11.88a17.28,17.28 0 0 1 -14.9,-1c-4.07,-2.27 -7.71,-6.13 -12.37,-6c-4.82,0.14 -9,4.68 -13.76,3.74c-2.48,-0.49 -4.39,-2.4 -6.21,-4.16s-3.9,-3.55 -6.43,-3.7s-3.84,3.32 -2.93,5.68l-10.87,-7.79"/>
    <path id="svg_136" fill="#455a64" d="m612.87,251.64091a1.66,1.66 0 0 1 -0.09,0.19a5.29,5.29 0 0 1 -0.31,0.52a9,9 0 0 1 -1.55,1.76a9.67,9.67 0 0 1 -3.21,1.86a9.18,9.18 0 0 1 -4.89,0.29a9.73,9.73 0 0 1 -5.16,-2.94c-1.47,-1.61 -2.35,-3.78 -3.72,-5.68a7.5,7.5 0 0 0 -2.61,-2.36a7.64,7.64 0 0 0 -3.58,-0.79a8.13,8.13 0 0 0 -3.67,1a6.89,6.89 0 0 0 -2.7,2.78c-0.65,1.19 -1.12,2.49 -1.9,3.64a4.46,4.46 0 0 1 -3.46,2.1a6.73,6.73 0 0 1 -3.76,-1.08a14.21,14.21 0 0 1 -2.86,-2.37c-1.67,-1.68 -3.31,-3.36 -5.35,-3.81a6.8,6.8 0 0 0 -5.42,1.27a9.3,9.3 0 0 0 -3,3.68a15.47,15.47 0 0 0 -1.12,3.47c-0.2,1 -0.29,1.76 -0.35,2.29a6.05,6.05 0 0 1 -0.12,0.81a0.72,0.72 0 0 1 0,-0.21c0,-0.14 0,-0.34 0,-0.61a18.76,18.76 0 0 1 0.27,-2.32a14.77,14.77 0 0 1 1,-3.55a9.55,9.55 0 0 1 3,-3.86a7.12,7.12 0 0 1 5.73,-1.39c2.21,0.47 3.92,2.23 5.58,3.89a14.26,14.26 0 0 0 2.78,2.28a6.24,6.24 0 0 0 3.48,1a4,4 0 0 0 3.06,-1.88c0.73,-1.08 1.2,-2.37 1.87,-3.6a7.39,7.39 0 0 1 2.91,-3a8.66,8.66 0 0 1 3.91,-1.05a8.17,8.17 0 0 1 3.82,0.86a8,8 0 0 1 2.77,2.52c1.41,2 2.25,4.12 3.65,5.68a9.38,9.38 0 0 0 4.92,2.86a8.82,8.82 0 0 0 4.72,-0.21a9.6,9.6 0 0 0 3.17,-1.73a12.1,12.1 0 0 0 2.19,-2.31z"/>
    <path id="svg_137" fill="#455a64" d="m622.64,251.88091a3,3 0 0 1 0.22,1a8.4,8.4 0 0 1 -0.27,2.89a10,10 0 0 1 -2,3.8a11.74,11.74 0 0 1 -4.26,3.11a17.47,17.47 0 0 1 -9.41,1.06a25.72,25.72 0 0 1 -2.82,-0.56a3.46,3.46 0 0 1 -1,-0.34c0,-0.08 1.47,0.28 3.87,0.53a18.19,18.19 0 0 0 9.15,-1.17a11.65,11.65 0 0 0 4.11,-2.94a10.09,10.09 0 0 0 2,-3.6a11.47,11.47 0 0 0 0.41,-3.78z"/>
    <path id="svg_138" fill="#e0e0e0" d="m530.61,460.19091a10.81,10.81 0 0 0 2.26,5.6c1.16,1.51 3.51,3 5.4,2.87a8.24,8.24 0 0 0 7.27,-3.65c2.31,-3.66 2.87,-11.29 1,-15.8c-1.27,-3.1 -4.13,-6 -7.48,-6.07c-4.4,-0.1 -7.16,3.08 -8.1,6.3"/>
    <path id="svg_139" fill="#263238" d="m530.97,449.44091a6.72,6.72 0 0 1 0.82,-2.16a8.65,8.65 0 0 1 1.65,-2.17a7.61,7.61 0 0 1 3.11,-1.82a7.88,7.88 0 0 1 2.09,-0.34a6.29,6.29 0 0 1 2.29,0.3a9,9 0 0 1 4.09,2.93a11.89,11.89 0 0 1 2.4,5a21.54,21.54 0 0 1 0.45,5.93c-0.21,3.13 -0.82,6.25 -2.56,8.63a7.68,7.68 0 0 1 -3.32,2.5a8.9,8.9 0 0 1 -3.75,0.63l0,0a5.68,5.68 0 0 1 -2.7,-0.66a9,9 0 0 1 -2,-1.42a10,10 0 0 1 -2.21,-3.28a10.2,10.2 0 0 1 -0.7,-2.43a5.25,5.25 0 0 1 -0.06,-0.66a0.52,0.52 0 0 1 0,-0.23a13.1,13.1 0 0 0 1,3.22a10.32,10.32 0 0 0 2.22,3.13a8.84,8.84 0 0 0 2,1.32a5.3,5.3 0 0 0 2.5,0.59l0,0a8,8 0 0 0 6.65,-3c1.61,-2.23 2.23,-5.3 2.43,-8.36c0.21,-4 -0.45,-7.94 -2.7,-10.6a8.74,8.74 0 0 0 -3.85,-2.82a6.19,6.19 0 0 0 -2.15,-0.31a7.53,7.53 0 0 0 -2,0.29a7.34,7.34 0 0 0 -3,1.69a8.87,8.87 0 0 0 -1.7,2.04a20,20 0 0 0 -1,2.06z"/>
    <path id="svg_140" fill="#e0e0e0" d="m528.27,460.39091a10.84,10.84 0 0 0 2.26,5.6c1.16,1.51 3.51,3 5.4,2.87a8.24,8.24 0 0 0 7.27,-3.65c2.3,-3.67 2.87,-11.29 1,-15.8c-1.27,-3.11 -4.12,-6 -7.47,-6.07a8.27,8.27 0 0 0 -8.1,6.29"/>
    <path id="svg_141" fill="#263238" d="m528.65,449.63091a6.73,6.73 0 0 1 0.82,-2.15a8.42,8.42 0 0 1 1.65,-2.17a7.68,7.68 0 0 1 5.2,-2.16a6.29,6.29 0 0 1 2.29,0.3a8.94,8.94 0 0 1 4.09,2.93a11.89,11.89 0 0 1 2.4,5a21.16,21.16 0 0 1 0.44,5.93c-0.2,3.13 -0.81,6.24 -2.55,8.63a7.68,7.68 0 0 1 -3.32,2.5a8.9,8.9 0 0 1 -3.75,0.63l0,0a5.68,5.68 0 0 1 -2.7,-0.67a8.44,8.44 0 0 1 -2,-1.41a9.94,9.94 0 0 1 -2.21,-3.29a9.58,9.58 0 0 1 -0.7,-2.42a5.25,5.25 0 0 1 -0.06,-0.66a0.52,0.52 0 0 1 0,-0.23a13.11,13.11 0 0 0 1,3.21a10.07,10.07 0 0 0 2.22,3.14a8.84,8.84 0 0 0 2,1.32a5.42,5.42 0 0 0 2.5,0.59l0,0a8,8 0 0 0 6.65,-3c1.61,-2.24 2.23,-5.3 2.42,-8.36c0.22,-4 -0.44,-7.94 -2.7,-10.6a8.58,8.58 0 0 0 -3.84,-2.82a6.19,6.19 0 0 0 -2.15,-0.31a7.67,7.67 0 0 0 -2,0.29a7.37,7.37 0 0 0 -3,1.69a8.87,8.87 0 0 0 -1.68,2.05a22,22 0 0 0 -1.02,2.04z"/>
    <path id="svg_142" fill="#e0e0e0" d="m532.51,448.51091a5.14,5.14 0 0 0 -5.37,3.09a8.92,8.92 0 0 0 0,6.53a8.26,8.26 0 0 0 1.67,2.94a4.44,4.44 0 0 0 3,1.45a5.2,5.2 0 0 0 4.16,-2.44a9.34,9.34 0 0 0 1.41,-7.67c-0.46,-1.74 -1.73,-3.51 -3.52,-3.56"/>
    <path id="svg_143" fill="#263238" d="m533.82,448.88091s0.13,0 0.39,0a2.72,2.72 0 0 1 1.09,0.37a5.3,5.3 0 0 1 2.29,3.44a9.5,9.5 0 0 1 -0.62,6.12a8,8 0 0 1 -2.24,2.94a4.35,4.35 0 0 1 -3.86,0.93a5.46,5.46 0 0 1 -3.09,-2.52a11.29,11.29 0 0 1 -1.28,-3.46a7.69,7.69 0 0 1 1,-6a5.37,5.37 0 0 1 3.49,-2.22a3.87,3.87 0 0 1 1.14,0c0.25,0.05 0.38,0.09 0.38,0.11a7.89,7.89 0 0 0 -1.49,0.09a5.33,5.33 0 0 0 -3.22,2.23a7.41,7.41 0 0 0 -0.83,5.73a11,11 0 0 0 1.25,3.29a4.94,4.94 0 0 0 2.79,2.28a3.81,3.81 0 0 0 3.4,-0.82a7.52,7.52 0 0 0 2.12,-2.74a9.24,9.24 0 0 0 0.7,-5.84a5.29,5.29 0 0 0 -2,-3.35a4.22,4.22 0 0 0 -1.41,-0.58z"/>
    <path id="svg_144" fill="#263238" d="m537.55,464.95091c-0.07,0 -0.18,-0.32 -0.53,-0.72a3.68,3.68 0 0 0 -1.7,-1.09a9.26,9.26 0 0 0 -2.1,-0.33c-0.56,0 -0.91,-0.09 -0.92,-0.16s0.34,-0.15 0.91,-0.21a5.86,5.86 0 0 1 2.26,0.2a3.27,3.27 0 0 1 1.85,1.38c0.32,0.52 0.29,0.92 0.23,0.93z"/>
    <path id="svg_145" fill="#263238" d="m538.34,447.15091s-0.15,0.35 -0.62,0.72a4.81,4.81 0 0 1 -2.11,0.92a4.92,4.92 0 0 1 -2.29,-0.12c-0.57,-0.19 -0.87,-0.41 -0.84,-0.47a11.83,11.83 0 0 0 3,0.08a12.49,12.49 0 0 0 2.86,-1.13z"/>
   </g>
   <g id="svg_11">
    <path id="svg_146" fill="#263238" d="m262.81,272.24091c0.12,-4.36 -3.9,-7.72 -8,-9.32s-8.56,-2.2 -12.18,-4.63c-3.2,-2.16 -5.35,-5.52 -8.06,-8.26a26.83,26.83 0 0 0 -45.12,12.31c-1.55,6.2 -0.49,13.53 4.4,17.66c5.68,4.78 14.09,3.72 21.36,2.23s15.51,-3 21.58,1.31c3.66,2.58 5.76,6.77 8,10.65s5,7.83 9.28,9.29s10,-1.06 10.15,-5.53"/>
    <path id="svg_147" fill="#263238" d="m262.52,274.63091c-0.48,3.65 2.16,6.92 4.79,9.5s5.6,5.31 6.07,9c0.54,4.27 -2.58,8.47 -1.67,12.68c0.57,2.67 2.65,4.72 3.91,7.15a15.24,15.24 0 0 1 0.77,11.19c-1.08,3.68 -2.81,11.89 -5.37,14.75c-7.07,7.9 -18.32,14.72 -28.65,17.09s-21.07,2.39 -31.65,1.74c-8.66,-0.53 -18.63,-0.13 -25.85,-12.05c-3.74,-6.18 -5.59,-14.38 -7.57,-21.32c-1.72,-6 -3.2,-12.37 -1.42,-18.33c1,-3.46 3.13,-6.55 4.15,-10c1.28,-4.34 0.81,-9 1.32,-13.47a30.91,30.91 0 0 1 44,-24.41"/>
    <path id="svg_148" fill="#ffbe9d" d="m185.5,289.60091c0.81,-12.43 9.08,-27.67 21.47,-26.33l38.66,9.86a7.31,7.31 0 0 1 6.51,7.41l-4.35,93.28l0.27,0.05s-8.81,26.31 -34.38,18.28c-5.07,-1.6 -7.39,-7.14 -8.39,-12.85l-0.26,0c0,-0.68 0,-1.31 0,-2a61.23,61.23 0 0 1 -0.15,-12.81l0,0c-0.07,-7.53 -0.06,-10.61 -0.07,-10.54s-15.88,-2.68 -19.12,-23.41c-1.65,-10.23 -1.09,-27.13 -0.19,-40.94z"/>
    <path id="svg_149" fill="#263238" d="m191.73,302.09091a2.65,2.65 0 0 0 2.55,2.69a2.55,2.55 0 0 0 2.75,-2.39a2.66,2.66 0 0 0 -2.56,-2.69a2.54,2.54 0 0 0 -2.74,2.39z"/>
    <path id="svg_150" fill="#263238" d="m189.14,298.40091c0.33,0.35 2.35,-1.14 5.21,-1.13s5,1.45 5.27,1.1c0.15,-0.15 -0.19,-0.78 -1.1,-1.44a7.21,7.21 0 0 0 -4.21,-1.31a7,7 0 0 0 -4.15,1.32c-0.88,0.68 -1.19,1.3 -1.02,1.46z"/>
    <path id="svg_151" fill="#263238" d="m219.84,302.09091a2.66,2.66 0 0 0 2.56,2.69a2.54,2.54 0 0 0 2.74,-2.39a2.65,2.65 0 0 0 -2.55,-2.69a2.54,2.54 0 0 0 -2.75,2.39z"/>
    <path id="svg_152" fill="#263238" d="m217.26,298.99091c0.33,0.35 2.35,-1.13 5.21,-1.12s4.95,1.45 5.26,1.1c0.15,-0.16 -0.18,-0.78 -1.1,-1.45a7.33,7.33 0 0 0 -4.21,-1.31a7,7 0 0 0 -4.14,1.33c-0.88,0.67 -1.18,1.34 -1.02,1.45z"/>
    <path id="svg_153" fill="#263238" d="m206.83,320.18091c0,-0.16 -1.76,-0.47 -4.64,-0.85c-0.73,-0.07 -1.42,-0.22 -1.55,-0.72a3.7,3.7 0 0 1 0.5,-2.16l2.17,-5.56c3,-7.91 5.2,-14.42 4.88,-14.53s-3,6.19 -6,14.11q-1.1,2.92 -2.08,5.59a4.2,4.2 0 0 0 -0.39,2.86a1.84,1.84 0 0 0 1.2,1.07a5.07,5.07 0 0 0 1.24,0.18c2.86,0.16 4.66,0.18 4.67,0.01z"/>
    <path id="svg_154" fill="#eb996e" d="m204.78,354.03091a52.68,52.68 0 0 0 27.77,-7.35s-7,14.33 -27.75,12.35l-0.02,-5z"/>
    <path id="svg_155" fill="#eb996e" d="m208.03,327.08091a5.13,5.13 0 0 1 4.62,-1.9a4.68,4.68 0 0 1 3.25,1.75a3,3 0 0 1 0.21,3.4a3.42,3.42 0 0 1 -3.75,0.94a10.87,10.87 0 0 1 -3.65,-2.19a2.94,2.94 0 0 1 -0.81,-0.84a1,1 0 0 1 0,-1.07"/>
    <path id="svg_156" fill="#263238" d="m215.24,322.18091c-0.46,0 -0.47,3.08 -3.14,5.27s-6,1.85 -6,2.29c0,0.19 0.74,0.6 2.13,0.64a7.71,7.71 0 0 0 5,-1.73a6.73,6.73 0 0 0 2.43,-4.42c0.14,-1.3 -0.2,-2.07 -0.42,-2.05z"/>
    <path id="svg_157" fill="#263238" d="m215.97,293.98091c0.28,0.78 3.14,0.42 6.49,0.83s6.07,1.33 6.52,0.64c0.2,-0.33 -0.27,-1.07 -1.37,-1.82a10.68,10.68 0 0 0 -4.82,-1.7a10.86,10.86 0 0 0 -5.08,0.58c-1.23,0.5 -1.85,1.1 -1.74,1.47z"/>
    <path id="svg_158" fill="#263238" d="m190.21,290.12091c0.51,0.65 2.48,0 4.85,0s4.37,0.44 4.84,-0.23c0.2,-0.33 -0.12,-1 -1,-1.6a7,7 0 0 0 -7.8,0.22c-0.83,0.63 -1.13,1.3 -0.89,1.61z"/>
    <path id="svg_159" fill="#263238" d="m260.1,341.32091a18.4,18.4 0 0 1 -21.89,-20.35c0.64,-5.09 3.39,-10.27 1.62,-15.09c-2.33,-6.37 -11.26,-8.33 -13.63,-14.69c-1.38,-3.69 -0.14,-8 -1.7,-11.63c-1.47,-3.41 -5.05,-5.37 -8.54,-6.63s-7.22,-2.13 -10.15,-4.4s-4.75,-6.57 -2.86,-9.76a196,196 0 0 1 45.28,11c3.39,1.26 6.94,2.78 8.94,5.79c2.12,3.18 2,7.29 1.84,11.11l-2.61,55.82"/>
    <path id="svg_160" fill="#455a64" d="m258.8,348.44091s0.13,-0.06 0.34,-0.21l0.92,-0.7c0.8,-0.63 2,-1.56 3.43,-2.85a35.42,35.42 0 0 0 4.87,-5.12a19.12,19.12 0 0 0 3.88,-8.54a13,13 0 0 0 -2.67,-10.9a41.64,41.64 0 0 0 -4.83,-4.12a11.21,11.21 0 0 1 -3.77,-5.12c-1.53,-4.22 -0.85,-9.11 -1.44,-14.11a28.06,28.06 0 0 0 -5.88,-14.28a19.29,19.29 0 0 0 -6.14,-5a37.51,37.51 0 0 0 -7.25,-2.44a16.91,16.91 0 0 1 -6.37,-3.14a25.26,25.26 0 0 1 -4.62,-5.09c-2.6,-3.7 -4.53,-7.64 -7,-10.93a23.43,23.43 0 0 0 -4.08,-4.33a15.65,15.65 0 0 0 -4.84,-2.64a10.34,10.34 0 0 0 -9.21,0.92a8.49,8.49 0 0 0 -3.27,6.2a6.22,6.22 0 0 0 1.25,4.27a4,4 0 0 0 0.84,0.81a1.44,1.44 0 0 0 0.34,0.22a2.27,2.27 0 0 0 -0.28,-0.29a4.59,4.59 0 0 1 -0.75,-0.85a6.1,6.1 0 0 1 -1,-4.13a8.13,8.13 0 0 1 3.21,-5.82a9.8,9.8 0 0 1 8.7,-0.72a15,15 0 0 1 4.61,2.57a23.85,23.85 0 0 1 3.92,4.24c2.4,3.23 4.29,7.17 6.93,11a25.72,25.72 0 0 0 4.76,5.29a17.55,17.55 0 0 0 6.57,3.25a36.76,36.76 0 0 1 7.09,2.4a18.49,18.49 0 0 1 5.86,4.8a27.19,27.19 0 0 1 5.72,13.8c0.61,4.83 -0.09,9.8 1.54,14.29a12.13,12.13 0 0 0 4,5.47a42.31,42.31 0 0 1 4.77,4a12.33,12.33 0 0 1 2.6,10.3a18.73,18.73 0 0 1 -3.64,8.33a38.32,38.32 0 0 1 -4.71,5.17c-1.41,1.32 -2.55,2.29 -3.31,3a12.09,12.09 0 0 0 -1.09,1z"/>
    <path id="svg_161" fill="#263238" d="m262.59,351.02091c4.26,-4.12 11.53,-0.54 15.11,4.18s6.11,10.82 11.54,13.2s12.48,0.33 17,4.11c6.28,5.22 2.75,17.31 9.55,21.85c2.69,1.8 6.25,1.74 9.13,3.22c6.79,3.5 6.71,13.08 5.66,20.65c-1.43,10.65 -3.05,21.65 -8.91,30.65s-17.27,15.29 -27.41,11.83c-9.75,-3.33 -14.76,-13.85 -18.73,-23.36q-8.22,-19.78 -16.46,-39.47c-3.17,-7.61 -6.38,-15.34 -7.41,-23.52s0.35,-17 5.56,-23.42"/>
    <path id="svg_162" fill="#39A0ED" d="m265.32,341.94091c3.09,-0.37 5.46,3.42 4.64,6.43s-3.7,5 -6.65,6a9.92,9.92 0 0 1 -5.13,0.59a5,5 0 0 1 -3.89,-3.13a2.94,2.94 0 0 1 1.42,-3.89c2,-1.27 3.23,-2.27 4.84,-3.16c2.46,-1.35 2.31,-1.53 4.77,-2.89"/>
    <polygon id="svg_163" fill="#39A0ED" points="194.08999633789062,375.2908935546875 206.11000061035156,366.180908203125 251.4199981689453,363.2808837890625 253.239990234375,369.36090087890625 238.5,461.3209228515625 250.1300048828125,571.0409545898438 186.9199981689453,571.0409545898438 194.08999633789062,375.2908935546875 "/>
    <g id="svg_164" opacity="0.3">
     <path id="svg_165" d="m242.6,532.12091c-1.45,-1.55 -3.82,-3.67 -5.93,-3.72c-15.14,-0.33 -30.59,-1.84 -45.73,-2.18l-1.21,44.84c3.62,-6.38 7.05,-13 8,-20.3c0.42,-3.18 1,-7 3.85,-8.34c1.64,-0.77 3.57,-0.47 5.34,-0.11c5.47,1.08 10.9,2.49 16.46,2.84s11.39,-0.47 16.06,-3.51a9.85,9.85 0 0 0 3.84,-4.15a5.09,5.09 0 0 0 -0.68,-5.37z"/>
    </g>
    <path id="svg_166" fill="#39A0ED" d="m203.89,377.15091l-1.41,-13.15a4.18,4.18 0 0 1 3.78,-4.6l41.7,-3.77a2,2 0 0 1 2.15,1.9l0.47,15.65l-12.08,20.49l-12.41,3.95l-15.18,0l-8.73,-9.32l1.71,-11.15z"/>
    <path id="svg_167" fill="#263238" d="m244.42,368.16091a14.19,14.19 0 0 1 -1.67,-0.17a30,30 0 0 0 -4.54,-0.08a44,44 0 0 0 -6.68,1c-2.49,0.52 -5.2,1.25 -8.07,1.95a52.52,52.52 0 0 1 -8.21,1.46a21.23,21.23 0 0 1 -6.81,-0.46a14.13,14.13 0 0 1 -4.24,-1.76a10,10 0 0 1 -1,-0.74c-0.22,-0.18 -0.33,-0.29 -0.31,-0.3s0.49,0.33 1.43,0.86a15.51,15.51 0 0 0 4.23,1.58a21.55,21.55 0 0 0 6.68,0.34a55.19,55.19 0 0 0 8.13,-1.49c2.86,-0.69 5.58,-1.41 8.09,-1.91a40.28,40.28 0 0 1 6.76,-0.86a24.22,24.22 0 0 1 4.59,0.24q0.81,0.14 1.23,0.24c0.25,0.04 0.4,0.08 0.39,0.1z"/>
    <g id="svg_168" opacity="0.3">
     <path id="svg_169" d="m204.88,370.23091c-1.12,3.07 -1.15,6.87 1.12,9.22c1.84,1.92 4.81,2.4 7.42,1.88a23.41,23.41 0 0 0 7.25,-3.26c5.74,-3.41 11.58,-6.95 18.1,-8.4a2.31,2.31 0 0 0 1.17,-0.49a0.77,0.77 0 0 0 0,-1.13a1.09,1.09 0 0 0 -0.54,-0.15c-5.77,-0.58 -11.5,1 -17.15,2.32s-11.7,2.17 -17.15,0.2"/>
    </g>
    <path id="svg_170" fill="#263238" d="m212.85,358.98091a3.83,3.83 0 0 0 -1.43,1.36c-0.66,1.06 -0.62,2.86 -0.57,4.8c0.11,3.89 0.75,7 0.6,7a6.8,6.8 0 0 1 -0.57,-2a31.51,31.51 0 0 1 -0.55,-5a23.11,23.11 0 0 1 0.06,-2.79a4.82,4.82 0 0 1 0.72,-2.21a2.89,2.89 0 0 1 1.17,-1.05c0.35,-0.14 0.56,-0.14 0.57,-0.11z"/>
    <path id="svg_171" fill="#263238" d="m223.87,370.41091a60.44,60.44 0 0 0 -0.3,-6.36c-0.48,-3.49 -1.64,-6.14 -1.48,-6.2a5.48,5.48 0 0 1 0.85,1.69a20.67,20.67 0 0 1 1.15,4.43a20.28,20.28 0 0 1 0.13,4.58a5.6,5.6 0 0 1 -0.35,1.86z"/>
    <path id="svg_172" fill="#263238" d="m237.3,356.74091a4.11,4.11 0 0 1 0.79,1.55a10.94,10.94 0 0 1 0.55,4.17a10.77,10.77 0 0 1 -1.1,4.07a4,4 0 0 1 -1,1.43a13.8,13.8 0 0 0 0.75,-11.22l0.01,0z"/>
    <path id="svg_173" fill="#ebebeb" d="m178.82,381.21091s-14.22,9.52 -18,26.72c-2.94,13.52 -11,84.94 -11,84.94l-14.09,27.42l9.2,21.88l0,0a33.64,33.64 0 0 0 22.1,-6.31l6.19,-4.5l11.35,-16.83l-5.75,-133.32z"/>
    <polygon id="svg_174" fill="#ebebeb" points="202.9199981689453,368.5909118652344 178.82000732421875,381.21087646484375 173.1300048828125,399.9009094238281 168.05999755859375,454.0909118652344 177.60000610351562,517.6209106445312 160.86000061035156,570.8508911132812 189.72999572753906,571.0609130859375 190.4199981689453,539.8609619140625 193.3000030517578,438.8609313964844 196.1300048828125,374.5209045410156 202.9199981689453,368.5909118652344 "/>
    <path id="svg_175" fill="#263238" d="m191.25,452.79091a5.52,5.52 0 0 1 -0.45,-0.76l-1.2,-2.21c-0.5,-1 -1,-2.22 -1.61,-3.64c-0.29,-0.72 -0.54,-1.51 -0.83,-2.34s-0.61,-1.71 -0.86,-2.65c-2.27,-7.49 -3.77,-18.3 -3.45,-30.22c0,-0.92 0.07,-1.83 0.13,-2.74l0,-0.16l0.15,-0.06l4.22,-1.78l-0.06,0.44l-4.22,-3.39l-0.09,-0.07l0,-0.1a36.47,36.47 0 0 1 1.92,-12.05c1.06,-3.53 2.22,-6.57 3.24,-9.07s1.91,-4.45 2.54,-5.77c0.32,-0.67 0.57,-1.18 0.74,-1.51a3.44,3.44 0 0 1 0.29,-0.51a2.43,2.43 0 0 1 -0.21,0.54l-0.67,1.55c-0.58,1.34 -1.42,3.31 -2.4,5.82s-2.1,5.55 -3.12,9.07a36.59,36.59 0 0 0 -1.83,11.89l-0.1,-0.17l4.23,3.37l0.33,0.27l-0.39,0.17l-4.22,1.78l0.16,-0.22c-0.06,0.89 -0.1,1.8 -0.13,2.72c-0.31,11.87 1.12,22.63 3.29,30.09c0.23,0.95 0.54,1.82 0.81,2.65s0.51,1.63 0.8,2.35c0.59,1.42 1,2.67 1.52,3.65l1.1,2.25a6.6,6.6 0 0 1 0.37,0.81z"/>
    <path id="svg_176" fill="#263238" d="m172.33,490.73091a7.45,7.45 0 0 1 -0.23,-0.78q-0.21,-0.85 -0.57,-2.28c-0.25,-1 -0.53,-2.2 -0.81,-3.61s-0.65,-3 -0.93,-4.83s-0.66,-3.76 -0.93,-5.88s-0.54,-4.4 -0.79,-6.79c-0.44,-4.8 -0.73,-10.09 -0.73,-15.65s0.33,-10.85 0.78,-15.64c0.27,-2.39 0.5,-4.67 0.83,-6.79s0.62,-4.09 0.94,-5.88s0.66,-3.4 1,-4.82s0.58,-2.63 0.83,-3.61s0.43,-1.71 0.58,-2.27a5.73,5.73 0 0 1 0.23,-0.79a4.61,4.61 0 0 1 -0.13,0.81l-0.48,2.29c-0.22,1 -0.49,2.21 -0.74,3.63s-0.61,3 -0.88,4.83s-0.62,3.75 -0.87,5.87s-0.53,4.39 -0.78,6.77c-0.42,4.79 -0.72,10.06 -0.74,15.61s0.28,10.81 0.68,15.6c0.25,2.38 0.45,4.66 0.75,6.77s0.57,4.09 0.86,5.88s0.6,3.41 0.85,4.83s0.51,2.64 0.73,3.63s0.36,1.72 0.47,2.29a3.82,3.82 0 0 1 0.08,0.81z"/>
    <path id="svg_177" fill="#263238" d="m178.85,539.51091a10.3,10.3 0 0 1 -1.17,2.43a39.31,39.31 0 0 1 -3.69,5.35a38.72,38.72 0 0 1 -4.52,4.67a10.84,10.84 0 0 1 -2.15,1.63a19.24,19.24 0 0 1 1.9,-1.9a58.29,58.29 0 0 0 4.37,-4.73a57.55,57.55 0 0 0 3.78,-5.21a19.3,19.3 0 0 1 1.48,-2.24z"/>
    <path id="svg_178" fill="#ebebeb" d="m289.63,379.66091a33.17,33.17 0 0 1 20.34,23.6c7.89,34.76 21.38,81 21.6,95.93c0.26,19 -8,32 -18.89,34.4c-8.58,1.9 -86.32,-2.36 -86.32,-2.36l-3.64,-29l63,-9.27l-8.62,-48.08l8.53,-66.72l4,1.5z"/>
    <path id="svg_179" fill="#ebebeb" d="m285.63,378.11091l-17.41,-7.11l-18.35,-10.76l-0.11,3.15l0,0a18.46,18.46 0 0 1 2.21,12.76l-15.3,79.66l3.46,58.21l7.11,57l55.21,0l-25.35,-59.65l8.95,-80.39l-0.42,-52.87z"/>
    <path id="svg_180" fill="#263238" d="m301.76,534.08091l-0.38,0.05l-1.11,0.11c-1,0.1 -2.43,0.09 -4.31,0.14c-3.74,0 -9.18,-0.08 -15.95,-0.3c-13.53,-0.45 -32.36,-1.36 -53.63,-2.59l-0.21,0l0,-0.22c-0.43,-3.45 -0.89,-7.09 -1.35,-10.78c-0.79,-6.25 -1.55,-12.35 -2.28,-18.18l0,-0.25l0.24,0l48.08,-7l14.12,-2l3.79,-0.51l1,-0.13l0.34,0l-0.33,0.07l-1,0.17l-3.78,0.6l-14.09,2.15l-48,7.17l0.21,-0.29c0.74,5.84 1.51,11.93 2.29,18.18c0.47,3.7 0.92,7.34 1.35,10.79l-0.24,-0.22c21.26,1.24 40.1,2.21 53.62,2.76c6.76,0.26 12.19,0.41 15.93,0.46c1.87,0 3.33,0 4.3,-0.06l1.11,-0.06l0.28,-0.06z"/>
    <path id="svg_181" fill="#263238" d="m276.59,439.96091a2.06,2.06 0 0 1 0.14,0.54c0.08,0.41 0.18,0.91 0.3,1.54c0.26,1.41 0.61,3.34 1,5.69c0.85,4.88 2,11.49 3.28,18.8s2.32,13.94 3.14,18.83c0.37,2.36 0.67,4.29 0.89,5.71c0.09,0.63 0.16,1.15 0.22,1.56a2.28,2.28 0 0 1 0,0.55a1.91,1.91 0 0 1 -0.15,-0.53c-0.08,-0.41 -0.18,-0.92 -0.31,-1.54c-0.26,-1.42 -0.62,-3.34 -1.06,-5.69c-0.87,-4.81 -2,-11.45 -3.28,-18.8s-2.36,-14 -3.13,-18.83c-0.36,-2.36 -0.66,-4.3 -0.88,-5.72q-0.12,-0.94 -0.21,-1.56a2.53,2.53 0 0 1 0.05,-0.55z"/>
    <path id="svg_182" fill="#263238" d="m257.88,365.88091s0,0.07 0.07,0.2l0.16,0.58c0.13,0.52 0.35,1.27 0.56,2.27a72.7,72.7 0 0 1 1.32,8.57a95.88,95.88 0 0 1 0.33,13.08c-0.17,5 -0.69,10.47 -1.44,16.3l0,0.18l-0.18,0l-5.73,1.06l0.19,-0.35c0.33,0.88 0.66,1.82 0.92,2.79a35.45,35.45 0 0 1 -0.65,19.31a60.46,60.46 0 0 1 -6.68,14.4c-2.38,3.86 -4.52,6.82 -6,8.87l-1.73,2.34c-0.18,0.25 -0.34,0.44 -0.46,0.6a0.81,0.81 0 0 1 -0.17,0.2s0,-0.08 0.13,-0.23l0.42,-0.63c0.4,-0.58 1,-1.38 1.64,-2.4c1.43,-2.08 3.53,-5.07 5.85,-8.94a61.72,61.72 0 0 0 6.54,-14.34c1.65,-5.67 2.43,-12.41 0.61,-19a28.38,28.38 0 0 0 -0.9,-2.74l-0.11,-0.29l0.31,-0.06l5.69,-1.05l-0.21,0.22c0.76,-5.81 1.31,-11.29 1.5,-16.25a100.51,100.51 0 0 0 -0.21,-13a79.75,79.75 0 0 0 -1.17,-8.57c-0.18,-1 -0.38,-1.76 -0.47,-2.28c-0.05,-0.24 -0.09,-0.43 -0.12,-0.59a0.66,0.66 0 0 1 -0.01,-0.25z"/>
    <path id="svg_183" fill="#39A0ED" d="m257.88,447.57091l0,-12.69s0.16,-3.13 -2.48,-2.47s-2.15,5.61 -2.15,5.61s-0.49,19.31 0.66,19.15s1.6,-1.65 1.6,-1.65l0,-7.43l2.37,-0.52z"/>
    <path id="svg_184" fill="#263238" d="m268.86,448.36091a43.86,43.86 0 0 1 -6.81,0.26a43.86,43.86 0 0 1 -6.81,-0.26a45.4,45.4 0 0 1 6.81,-0.26a45.4,45.4 0 0 1 6.81,0.26z"/>
    <path id="svg_185" fill="#263238" d="m293.97,387.20091a9.4,9.4 0 0 1 -1.42,0.53a32.07,32.07 0 0 0 -3.78,1.63a29.39,29.39 0 0 0 -10.22,8.71a21.82,21.82 0 0 0 -2,3.27a21.2,21.2 0 0 0 -1.2,3.36a33.11,33.11 0 0 0 -1,6c-0.14,1.73 -0.17,3.15 -0.18,4.12a12.92,12.92 0 0 1 0,1.52a6.11,6.11 0 0 1 -0.2,-1.46a36.48,36.48 0 0 1 0,-4.15a30.9,30.9 0 0 1 0.91,-6.1a21,21 0 0 1 1.21,-3.46a22.22,22.22 0 0 1 2.05,-3.36a28.24,28.24 0 0 1 10.48,-8.73a26.08,26.08 0 0 1 3.87,-1.5a7.49,7.49 0 0 1 1.48,-0.38z"/>
    <polygon id="svg_186" fill="#263238" points="69.90999603271484,492.87091064453125 160.86000061035156,526.5509033203125 237.52999877929688,538.2709350585938 146.3699951171875,493.8309326171875 69.90999603271484,492.87091064453125 "/>
    <path id="svg_187" fill="#ffbe9d" d="m108.83,529.19091a38.71,38.71 0 0 0 -4.86,-13.78a10,10 0 0 1 -1.24,-2.59a2.94,2.94 0 0 1 0.51,-2.71c1.17,-1.27 3.3,-0.71 4.74,0.25a16.66,16.66 0 0 1 6.12,8.58a49.8,49.8 0 0 1 2,10.51"/>
    <path id="svg_188" fill="#ffbe9d" d="m144.28,520.53091l-4.52,0a8.86,8.86 0 0 0 -4,-2.28a3.14,3.14 0 0 0 -3,1.17c2,-3.33 4.2,-7 4.62,-8c0.81,-1.95 -1,-3.41 -3.91,-3.41s-15.79,18.23 -15.79,18.23s8,-14.67 8.77,-16.91c1.94,-5.6 -4.19,-6 -6.41,-3.31c-2.76,3.35 -13.91,20.22 -13.91,20.22s-2.12,3.42 -0.66,6.67s5.7,2 5.7,2a5.46,5.46 0 0 0 3,4.52c3.26,1.82 7.56,-0.29 7.56,-0.29l16.67,3.74l6,-0.6a18.48,18.48 0 0 0 16.44,-15.68l0,0l-16.56,-6.07z"/>
    <path id="svg_189" fill="#eb996e" d="m133.07,519.16091c0.19,0.12 -2,3.6 -4.9,7.78c-1.44,2.09 -2.77,4 -3.76,5.3a13.26,13.26 0 0 1 -1.68,2.1a13.57,13.57 0 0 1 1.38,-2.31c0.91,-1.39 2.19,-3.3 3.63,-5.39s2.76,-4 3.72,-5.32l1.16,-1.59a4.07,4.07 0 0 1 0.45,-0.57z"/>
    <path id="svg_190" fill="#eb996e" d="m132.07,537.72091a16.46,16.46 0 0 1 1.48,-2.72c1,-1.64 2.38,-3.87 3.92,-6.35c0.77,-1.23 1.51,-2.41 2.11,-3.5a4.05,4.05 0 0 0 0.37,-3.09a7.68,7.68 0 0 0 -1.42,-2.65s0.27,0.14 0.64,0.54a5.18,5.18 0 0 1 1.13,2a4.33,4.33 0 0 1 -0.29,3.41c-0.6,1.13 -1.33,2.32 -2.09,3.56c-1.55,2.48 -3,4.68 -4.06,6.27a21.86,21.86 0 0 1 -1.79,2.53z"/>
    <path id="svg_191" fill="#eb996e" d="m140.82,539.38091a9.32,9.32 0 0 1 0.89,-2.59l1.19,-2.72a22.25,22.25 0 0 0 1.22,-3.35a3.94,3.94 0 0 0 -0.53,-3.25a3.07,3.07 0 0 0 -1.19,-0.85a3.29,3.29 0 0 0 -1.24,-0.35a5,5 0 0 0 -1.79,0.63a2.13,2.13 0 0 1 -0.68,0.28s0.19,-0.19 0.58,-0.46a8.19,8.19 0 0 1 0.75,-0.45a2.94,2.94 0 0 1 1.14,-0.37a3.69,3.69 0 0 1 1.42,0.32a3.38,3.38 0 0 1 1.38,0.94a4.29,4.29 0 0 1 0.66,3.67a19.14,19.14 0 0 1 -1.29,3.44c-0.47,1 -0.92,1.91 -1.29,2.67a25.75,25.75 0 0 1 -1.22,2.44z"/>
    <path id="svg_192" fill="#eb996e" d="m143.89,523.64091a1.78,1.78 0 0 1 0.7,0.21a8.17,8.17 0 0 1 1.74,1a9.48,9.48 0 0 1 2.69,12.06a8.15,8.15 0 0 1 -1.13,1.67c-0.32,0.35 -0.53,0.51 -0.55,0.49s0.66,-0.82 1.35,-2.32a9.64,9.64 0 0 0 -2.59,-11.61a24.06,24.06 0 0 0 -2.21,-1.5z"/>
    <path id="svg_193" fill="#eb996e" d="m114.59,514.07091a48.84,48.84 0 0 1 -3.77,6a48,48 0 0 1 -4.19,5.81a48,48 0 0 1 3.76,-6a48.68,48.68 0 0 1 4.2,-5.81z"/>
    <path id="svg_194" fill="#ffbe9d" d="m222.49,503.35091l-10.4,-2.35l-10,-9.41a7.15,7.15 0 0 0 -4.46,-1.92l-18.17,-1a7.06,7.06 0 0 0 -5,1.66l-13,11l56.71,27.55l7.78,0.69l-3.46,-26.22z"/>
    <path id="svg_195" fill="#eb996e" d="m191.68,498.50091c0,0.08 -1.34,-0.16 -3.5,-0.44s-5.24,-0.53 -8.23,0.86a21.24,21.24 0 0 0 -3.92,2.45c-1.15,0.86 -2.18,1.66 -3.09,2.27a16.44,16.44 0 0 1 -2.25,1.31a3.24,3.24 0 0 1 -0.89,0.33c0,-0.08 1.19,-0.63 2.93,-1.94c0.87,-0.64 1.87,-1.47 3,-2.36a20.63,20.63 0 0 1 4,-2.54a11.77,11.77 0 0 1 4.64,-1a20.68,20.68 0 0 1 3.85,0.3c1.09,0.17 2,0.37 2.54,0.52a2.79,2.79 0 0 1 0.92,0.24z"/>
    <path id="svg_196" fill="#eb996e" d="m195.41,508.62091c0,0.08 -0.74,-0.25 -2,-0.37a10.35,10.35 0 0 0 -4.67,0.65a24,24 0 0 0 -4.28,2.19a8.94,8.94 0 0 1 -1.77,1a7.29,7.29 0 0 1 1.56,-1.3a18.46,18.46 0 0 1 4.31,-2.37a9.56,9.56 0 0 1 4.9,-0.53a3.71,3.71 0 0 1 1.95,0.73z"/>
    <path id="svg_197" fill="#eb996e" d="m218.8,510.30091c-0.13,0.08 -1.59,-2.1 -3.52,-4.68s-3.59,-4.61 -3.48,-4.71a23.35,23.35 0 0 1 3.89,4.4a22.94,22.94 0 0 1 3.11,4.99z"/>
    <path id="svg_198" fill="#39A0ED" d="m190.18,489.70091l23,-21.45a2.2,2.2 0 0 0 -0.16,-3.36l0,0a2.2,2.2 0 0 0 -2.81,0.11l-27,24.22"/>
    <g id="svg_199" opacity="0.3">
     <path id="svg_200" d="m190.18,489.70091l23,-21.45a2.2,2.2 0 0 0 -0.16,-3.36l0,0a2.2,2.2 0 0 0 -2.81,0.11l-27,24.22"/>
    </g>
   </g>
   <g id="svg_10">
    <path id="svg_201" fill="#b78876" d="m378.41,282.96091c-0.36,-0.14 -14.31,-3.8 -13.47,10.31s14.83,10.35 14.84,9.94s-1.37,-20.25 -1.37,-20.25z"/>
    <path id="svg_202" fill="#aa6550" d="m375.15,298.13091c-0.07,-0.05 -0.24,0.18 -0.64,0.4a2.44,2.44 0 0 1 -1.84,0.14c-1.52,-0.45 -2.92,-2.74 -3.14,-5.28a8.24,8.24 0 0 1 0.44,-3.51a2.84,2.84 0 0 1 1.74,-2a1.25,1.25 0 0 1 1.49,0.59c0.21,0.38 0.14,0.67 0.21,0.69s0.29,-0.26 0.14,-0.83a1.52,1.52 0 0 0 -0.61,-0.85a1.82,1.82 0 0 0 -1.38,-0.28a3.45,3.45 0 0 0 -2.43,2.34a8.22,8.22 0 0 0 -0.62,4c0.26,2.84 1.88,5.41 3.95,5.88a2.64,2.64 0 0 0 2.23,-0.51c0.45,-0.44 0.51,-0.76 0.46,-0.78z"/>
    <path id="svg_203" fill="#263238" d="m413.63,232.57091c7.17,0 14.47,0 23.44,4.69c5.66,3 9.18,7.63 12.13,13.29a30.6,30.6 0 0 1 3.34,14.89c-0.26,4.88 -0.28,8.29 -2.23,12.77"/>
    <path id="svg_204" fill="#b78876" d="m410.76,233.68091a38,38 0 0 1 40.65,35.94c0.92,17.67 1.73,36.78 1.54,46.4c-0.42,20.66 -21.11,23.71 -21.11,23.71s0.46,6.12 1,13.72a27.22,27.22 0 0 1 -26.12,29l0,0a27.2,27.2 0 0 1 -28.22,-26.18l-3.07,-83.26a38,38 0 0 1 35.36,-39.35l-0.03,0.02z"/>
    <path id="svg_205" fill="#aa6550" d="m431.84,339.73091s-12.7,0.66 -26.5,-8.17c0,0 6.25,15 26.87,13.34l-0.37,-5.17z"/>
    <path id="svg_206" fill="#263238" d="m443.49,281.11091a2.94,2.94 0 0 1 -2.86,3a2.81,2.81 0 0 1 -3,-2.68a3,3 0 0 1 2.86,-3a2.82,2.82 0 0 1 3,2.68z"/>
    <path id="svg_207" fill="#263238" d="m446.36,276.93091c-0.37,0.38 -2.59,-1.29 -5.77,-1.31s-5.51,1.56 -5.85,1.17c-0.17,-0.18 0.21,-0.87 1.23,-1.6a8,8 0 0 1 4.69,-1.4a7.68,7.68 0 0 1 4.58,1.52c0.97,0.75 1.3,1.45 1.12,1.62z"/>
    <path id="svg_208" fill="#263238" d="m412.36,281.11091a2.94,2.94 0 0 1 -2.87,3a2.82,2.82 0 0 1 -3,-2.68a3,3 0 0 1 2.87,-3a2.83,2.83 0 0 1 3,2.68z"/>
    <path id="svg_209" fill="#263238" d="m415.15,277.28091c-0.37,0.38 -2.6,-1.29 -5.77,-1.31s-5.51,1.55 -5.86,1.16c-0.16,-0.17 0.21,-0.87 1.24,-1.6a8.09,8.09 0 0 1 4.69,-1.4a7.82,7.82 0 0 1 4.58,1.52c0.94,0.76 1.3,1.45 1.12,1.63z"/>
    <path id="svg_210" fill="#263238" d="m426.48,300.88091c0,-0.18 2,-0.5 5.16,-0.89c0.81,-0.08 1.58,-0.23 1.72,-0.78a4.06,4.06 0 0 0 -0.52,-2.41c-0.74,-2 -1.53,-4 -2.35,-6.19c-3.26,-8.82 -5.61,-16.06 -5.25,-16.19s3.29,6.91 6.54,15.73c0.79,2.17 1.54,4.24 2.25,6.23a4.69,4.69 0 0 1 0.4,3.18a2.09,2.09 0 0 1 -1.35,1.18a6.15,6.15 0 0 1 -1.37,0.18c-3.22,0.17 -5.22,0.17 -5.23,-0.04z"/>
    <path id="svg_211" fill="#263238" d="m417.12,303.03091c0.52,0 0.49,3.42 3.42,5.89s6.61,2.12 6.63,2.6c0,0.22 -0.83,0.67 -2.38,0.7a8.6,8.6 0 0 1 -5.53,-2a7.53,7.53 0 0 1 -2.65,-4.94c-0.12,-1.4 0.27,-2.27 0.51,-2.25z"/>
    <path id="svg_212" fill="#263238" d="m416.06,264.88091c-0.32,0.86 -3.48,0.43 -7.21,0.85s-6.75,1.41 -7.24,0.63c-0.21,-0.37 0.32,-1.18 1.54,-2a12.63,12.63 0 0 1 11,-1.12c1.37,0.51 2.05,1.19 1.91,1.64z"/>
    <path id="svg_213" fill="#263238" d="m445.91,265.63091c-0.56,0.72 -2.74,-0.05 -5.37,-0.1s-4.86,0.44 -5.37,-0.32c-0.22,-0.37 0.13,-1.09 1.11,-1.76a7.77,7.77 0 0 1 8.66,0.34c0.92,0.75 1.22,1.49 0.97,1.84z"/>
    <path id="svg_214" fill="#263238" d="m375.64,279.48091s0.9,4.78 1.14,6.93c0.09,0.79 0,9.54 2.11,10c1.83,0.38 5.46,-1.29 7.08,-4.91s4.7,-12.31 4.36,-16.26c-0.45,-5.38 -0.7,-10.86 0.38,-16.16s3.61,-10.46 7.86,-13.8s10.4,-4.49 15.24,-2.07c3,1.5 5.21,4.15 8,6a12.41,12.41 0 0 0 8.52,2.21a8,8 0 0 0 6.59,-5.4c0.88,-3.15 -0.74,-6.6 -3.27,-8.69s-5.78,-3.05 -9,-3.69a48.39,48.39 0 0 0 -26.82,1.88c-8.47,3.29 -16,9.61 -19.6,17.94c-4.18,9.63 -3.7,15.54 -2.59,26"/>
    <path id="svg_215" fill="#263238" d="m422.86,281.24091a24.26,24.26 0 0 0 -0.54,-3.4a14,14 0 0 0 -5.11,-7.61a13.74,13.74 0 0 0 -5.83,-2.56a13.93,13.93 0 0 0 -7.26,0.61a12.84,12.84 0 0 0 -3.48,1.89a12.69,12.69 0 0 0 -2.92,2.93a13.76,13.76 0 0 0 0,16.29a13.09,13.09 0 0 0 2.92,2.93a12.8,12.8 0 0 0 3.48,1.88a13.94,13.94 0 0 0 7.26,0.62a13.7,13.7 0 0 0 5.83,-2.57a14,14 0 0 0 5.12,-7.6a24.94,24.94 0 0 0 0.53,-3.41a0.6,0.6 0 0 1 0,0.23l0,0.67a5.74,5.74 0 0 1 -0.09,1.09a9.24,9.24 0 0 1 -0.26,1.46a14,14 0 0 1 -5.09,7.86a14.17,14.17 0 0 1 -13.47,2.1a13.2,13.2 0 0 1 -3.62,-1.93a13.4,13.4 0 0 1 -3,-3a14.23,14.23 0 0 1 0,-16.9a14.42,14.42 0 0 1 6.65,-5a14.38,14.38 0 0 1 7.49,-0.59a14.12,14.12 0 0 1 6,2.7a14,14 0 0 1 5.09,7.85a9.34,9.34 0 0 1 0.26,1.47a5.64,5.64 0 0 1 0.09,1.08l0,0.67c-0.03,0.17 -0.04,0.24 -0.05,0.24z"/>
    <path id="svg_216" fill="#263238" d="m459.23,281.24091a26.34,26.34 0 0 0 -0.54,-3.4a14,14 0 0 0 -5.12,-7.61a13.69,13.69 0 0 0 -5.83,-2.56a13.89,13.89 0 0 0 -7.25,0.61a13.89,13.89 0 0 0 -6.4,4.82a13.72,13.72 0 0 0 0,16.29a13.05,13.05 0 0 0 2.91,2.93a12.71,12.71 0 0 0 3.49,1.88a13.9,13.9 0 0 0 7.25,0.62a13.7,13.7 0 0 0 5.83,-2.57a14,14 0 0 0 5.12,-7.6a26.31,26.31 0 0 0 0.54,-3.41a2.07,2.07 0 0 1 0,0.23c0,0.18 0,0.4 0,0.67a6.56,6.56 0 0 1 -0.08,1.09a9.36,9.36 0 0 1 -0.27,1.46a13.9,13.9 0 0 1 -5.09,7.86a14.07,14.07 0 0 1 -6,2.69a14.21,14.21 0 0 1 -7.5,-0.59a14.15,14.15 0 0 1 -6.64,-5a14.19,14.19 0 0 1 0,-16.9a13.31,13.31 0 0 1 3,-3a13.51,13.51 0 0 1 3.62,-1.94a14.41,14.41 0 0 1 7.5,-0.59a14.08,14.08 0 0 1 6,2.7a13.91,13.91 0 0 1 5.09,7.85a9.46,9.46 0 0 1 0.27,1.47a6.45,6.45 0 0 1 0.08,1.08c0,0.27 0,0.49 0,0.67a1.85,1.85 0 0 1 0.02,0.25z"/>
    <path id="svg_217" fill="#263238" d="m431.48,279.74091c0,0.08 -0.51,-0.18 -1.3,-0.44a8.38,8.38 0 0 0 -3.21,-0.42a8.74,8.74 0 0 0 -3.1,0.82c-0.75,0.37 -1.17,0.69 -1.22,0.62s0.3,-0.47 1,-0.94a7.22,7.22 0 0 1 6.6,-0.44c0.87,0.38 1.27,0.76 1.23,0.8z"/>
    <path id="svg_218" fill="#263238" d="m437.11,244.88091c0.21,-1.07 -0.15,-1.67 0.46,-2.11s2,0.82 2.46,1.34c0.16,0.17 0.64,-0.49 0.83,-0.61a3.65,3.65 0 0 0 0.36,-1.37c-0.09,-0.75 -1.26,-1 -1.81,-1.46a5.56,5.56 0 0 0 -1.95,-1.11a1.88,1.88 0 0 0 -1.86,0.11a1.83,1.83 0 0 0 -0.42,1.4a3.83,3.83 0 0 0 0.28,1.46a2,2 0 0 0 1,1.06"/>
    <path id="svg_219" fill="#ebebeb" d="m374.87,268.50091s10.13,3.71 15.4,5.95l-0.3,-5.18l-14.73,-5.83s-0.38,3.85 -0.37,5.06z"/>
    <path id="svg_220" fill="#ebebeb" d="m375.82,260.45091a58.3,58.3 0 0 1 7.17,2.75a56.51,56.51 0 0 1 7,3.23a58.3,58.3 0 0 1 -7.17,-2.75a56.51,56.51 0 0 1 -7,-3.23z"/>
    <path id="svg_221" fill="#39A0ED" d="m378.87,369.57091l-0.78,-24.51s4.87,22.43 30.38,22.14c24.37,-0.28 23.93,-19.76 23.93,-19.76l0.87,9.88l0,39.91l-15.9,65.11l-20.31,2.54l-22.44,-89l4.25,-6.31z"/>
    <path id="svg_222" fill="#263238" d="m430.13,361.73091a2.5,2.5 0 0 1 -0.29,0.52a14.74,14.74 0 0 1 -1,1.42a21,21 0 0 1 -4.54,4.4a26.12,26.12 0 0 1 -8.48,4a29.88,29.88 0 0 1 -11.45,0.79a37.1,37.1 0 0 1 -11,-3.31a47.88,47.88 0 0 1 -8,-4.84a56.57,56.57 0 0 1 -4.86,-4c-0.55,-0.5 -0.95,-0.92 -1.23,-1.2a2.7,2.7 0 0 1 -0.4,-0.44a2.76,2.76 0 0 1 0.47,0.37l1.3,1.12c1.12,1 2.78,2.33 4.94,3.88a49.87,49.87 0 0 0 8,4.7a37.31,37.31 0 0 0 10.85,3.22a29.9,29.9 0 0 0 11.25,-0.73a26.84,26.84 0 0 0 8.4,-3.82a22.52,22.52 0 0 0 4.59,-4.22c0.96,-1.2 1.41,-1.89 1.45,-1.86z"/>
    <path id="svg_223" fill="#ebebeb" d="m412.43,570.99091l-0.37,-115.7l-32.86,-84.41l-1.1,-25.41l-20,15.14s-29.13,100.27 -29.62,96.81s0,113.57 0,113.57l83.95,0z"/>
    <path id="svg_224" fill="#263238" d="m411.64,570.67091c-0.14,0 -0.26,-26.07 -0.26,-58.23s0.12,-58.23 0.26,-58.23s0.26,26.07 0.26,58.23s-0.12,58.23 -0.26,58.23z"/>
    <polygon id="svg_225" fill="#e0e0e0" points="358.3699951171875,377.0909118652344 362.42999267578125,380.1708984375 359.5799865722656,398.8908996582031 407.5400085449219,449.13092041015625 363.9800109863281,391.9208984375 367.69000244140625,377.0909118652344 358.3699951171875,377.0909118652344 "/>
    <path id="svg_226" fill="#ebebeb" d="m414.23,511.72091l-73.61,-21.58l-2.44,-55.91l20.19,-73.66s-48.12,24.01 -51.4,39.31s-11.17,52.42 -12,79.27c-0.75,24 -0.86,40 4.62,47.71c15.7,21.94 119.14,25.86 160.46,0"/>
    <path id="svg_227" fill="#263238" d="m408.47,450.34091s-0.09,-0.08 -0.24,-0.27s-0.39,-0.48 -0.66,-0.82l-2.5,-3.2c-2.18,-2.82 -5.29,-6.86 -9.12,-11.84l-29.93,-39.17l-2.25,-3l-0.08,-0.1l0,-0.12c1.28,-5.12 2.53,-10.09 3.72,-14.83l0.24,0.32l-9.32,0l-0.24,0l0,-0.24c0,-6 0,-11.6 0,-16.52l0,-0.1l0.08,-0.06l14.47,-11l4,-3l1,-0.77a1.9,1.9 0 0 1 0.37,-0.24l-0.33,0.29l-1,0.81l-3.91,3.06l-14.36,11.14l0.08,-0.16c0,4.92 0,10.47 0,16.52l-0.24,-0.23l9.32,0l0.4,0l-0.08,0.32l-3.7,14.83l-0.05,-0.22l2.26,2.95l29.8,39.27l9,11.93c1,1.4 1.85,2.49 2.42,3.26c0.26,0.36 0.46,0.65 0.62,0.86l0.23,0.33z"/>
    <path id="svg_228" fill="#ebebeb" d="m441.28,356.21091c-5.87,-10.26 -8.92,-9.2 -8.92,-9.2l0.31,3.66l0,7.69l-2.79,33l-17.83,71.69l0.37,107.94l67.41,0l8.39,-131.76l-0.76,-56.77l-46.18,-26.25z"/>
    <path id="svg_229" fill="#ebebeb" d="m487.47,382.46091s17.45,12.88 19,33.61c1.23,16.83 4,62.92 4.55,72.95c0.8,15.62 -11.37,52.21 -43.05,41.85c-19,-6.22 -89.18,-30.07 -89.18,-30.07l4.67,-29.81l83.3,5l1.66,-69.48l19.05,-24.05z"/>
    <path id="svg_230" fill="#b78876" d="m382.47,474.42091s-23.58,-2.55 -29,-1.23c-5.25,1.27 -12.72,7.69 -12.72,7.69l0.11,9.31l37.93,10.61l3.68,-26.38z"/>
    <path id="svg_231" fill="#263238" d="m412.06,452.27091a1.69,1.69 0 0 1 0.11,-0.32c0.08,-0.23 0.2,-0.54 0.35,-0.92c0.33,-0.84 0.81,-2 1.41,-3.52l5.28,-12.92l7.88,-19.14c0.75,-1.79 1.49,-3.66 2.42,-5.49s1.94,-3.66 3,-5.49a122.5,122.5 0 0 1 7.48,-10.8c1.36,-1.75 2.73,-3.46 4.15,-5.1l0,0.27l-2.94,-7.47l-0.1,-0.25l0.25,-0.09l12.27,-4.15l-0.13,0.34c-5.7,-9.52 -10.51,-17.56 -13.93,-23.26c-1.68,-2.82 -3.12,-5.08 -4.65,-6a6.31,6.31 0 0 0 -1.86,-0.75a6.37,6.37 0 0 1 -0.69,-0.17a5.79,5.79 0 0 1 0.7,0.09a5.93,5.93 0 0 1 1.93,0.71a8.53,8.53 0 0 1 2.36,2.29a40.44,40.44 0 0 1 2.45,3.68l14.1,23.18l0.15,0.25l-0.28,0.09l-12.27,4.21l0.15,-0.33l2.95,7.47l0.06,0.14l-0.11,0.12c-1.4,1.62 -2.77,3.33 -4.12,5.08a123.23,123.23 0 0 0 -7.46,10.72c-1.07,1.82 -2.12,3.61 -3,5.44s-1.66,3.65 -2.41,5.45c-3,7.18 -5.72,13.65 -8,19.1s-4.14,9.79 -5.43,12.85c-0.64,1.49 -1.15,2.66 -1.5,3.49c-0.17,0.38 -0.3,0.67 -0.41,0.9a1.26,1.26 0 0 1 -0.16,0.3z"/>
    <path id="svg_232" fill="#263238" d="m497.04,525.07091a1.92,1.92 0 0 1 -0.29,0.31l-0.9,0.87a25.89,25.89 0 0 1 -3.83,2.9a25.56,25.56 0 0 1 -7,2.94a28.17,28.17 0 0 1 -10,0.64a31.62,31.62 0 0 1 -5.75,-1.22c-2,-0.62 -3.92,-1.39 -6,-2.11c-4.11,-1.5 -8.53,-3 -13.17,-4.68c-9.3,-3.26 -19.55,-6.74 -30.35,-10.29c-21.6,-7.09 -41.3,-13.07 -55.58,-17.34l-16.92,-5l-4.6,-1.37l-1.19,-0.36a2.32,2.32 0 0 1 -0.4,-0.15l0.42,0.09l1.2,0.32l4.63,1.27c4,1.12 9.81,2.77 17,4.85c14.3,4.17 34,10.1 55.63,17.2c10.81,3.54 21.06,7 30.35,10.32c4.64,1.65 9.05,3.22 13.16,4.73c2.06,0.74 4,1.52 6,2.14a31,31 0 0 0 5.67,1.23a28.15,28.15 0 0 0 9.92,-0.55a26.31,26.31 0 0 0 7,-2.83a28.36,28.36 0 0 0 3.86,-2.81l0.93,-0.83a2.28,2.28 0 0 1 0.21,-0.27z"/>
    <path id="svg_233" fill="#263238" d="m340.82,490.36091c0,0.11 -1.33,-0.18 -3.44,-0.09a15.12,15.12 0 0 0 -3.64,0.6a16.56,16.56 0 0 0 -4.1,1.87a19.16,19.16 0 0 0 -5.71,5.86c-1.11,1.8 -1.6,3 -1.69,3a3.52,3.52 0 0 1 0.28,-0.89a15.41,15.41 0 0 1 1.1,-2.3a17.86,17.86 0 0 1 5.74,-6.11a16.13,16.13 0 0 1 4.25,-1.89a14.7,14.7 0 0 1 3.76,-0.51a12.27,12.27 0 0 1 2.54,0.23a3.42,3.42 0 0 1 0.91,0.23z"/>
    <path id="svg_234" fill="#263238" d="m317.63,483.06091s0,-0.1 0.09,-0.27a2.64,2.64 0 0 1 0.46,-0.65a4.73,4.73 0 0 1 2.62,-1.3a13.29,13.29 0 0 1 4.32,0a24.5,24.5 0 0 1 5.13,1.25a22.52,22.52 0 0 1 8.13,5a17,17 0 0 1 1.89,2.21a4.38,4.38 0 0 1 0.55,0.91c-0.09,0.07 -0.91,-1.21 -2.69,-2.85a23.87,23.87 0 0 0 -8.06,-4.75a27.09,27.09 0 0 0 -5,-1.27a14.07,14.07 0 0 0 -4.2,-0.12a4.82,4.82 0 0 0 -2.53,1.08c-0.5,0.43 -0.67,0.78 -0.71,0.76z"/>
    <path id="svg_235" fill="#263238" d="m345.11,418.88091a7.85,7.85 0 0 1 -0.34,-1.51c-0.15,-0.48 -0.36,-1.05 -0.59,-1.71s-0.63,-1.38 -1.09,-2.14a30.61,30.61 0 0 0 -3.75,-5a40.79,40.79 0 0 0 -5.75,-5.06a34.66,34.66 0 0 0 -12.57,-5.77a26.24,26.24 0 0 0 -4.19,-0.54a9.39,9.39 0 0 1 -1.55,-0.12a8.71,8.71 0 0 1 1.56,-0.08a21.3,21.3 0 0 1 4.25,0.38a33,33 0 0 1 12.8,5.71a37.86,37.86 0 0 1 5.8,5.15a28.75,28.75 0 0 1 3.72,5.14c0.45,0.79 0.74,1.56 1,2.21s0.4,1.28 0.52,1.77a10.55,10.55 0 0 1 0.18,1.57z"/>
    <path id="svg_236" fill="#263238" d="m484.86,504.34091a1.77,1.77 0 0 1 0,-0.36l0,-1.05c0,-0.92 -0.07,-2.27 -0.2,-4a56.1,56.1 0 0 0 -3,-14.41a20.39,20.39 0 0 0 -2,-4.4a8.63,8.63 0 0 0 -3.9,-3.31c-3.35,-1.44 -7.38,-1.25 -11.48,-1.48l-26.84,-1.13c-22.18,-1 -41.91,-1.8 -54.31,-2.46l0.17,-0.14c-0.75,4.56 -1.35,8.17 -1.76,10.68c-0.21,1.21 -0.37,2.15 -0.49,2.82c-0.05,0.3 -0.1,0.54 -0.13,0.73l-0.06,0.24a1.17,1.17 0 0 1 0,-0.25l0.1,-0.73c0.09,-0.67 0.23,-1.62 0.4,-2.84c0.38,-2.51 0.92,-6.13 1.61,-10.7l0,-0.14l0.15,0l54.31,2.26l26.84,1.21c2.06,0.1 4.07,0.15 6,0.31a17.39,17.39 0 0 1 5.6,1.26a9.07,9.07 0 0 1 4.1,3.43a20.36,20.36 0 0 1 2,4.5a54,54 0 0 1 2.84,14.5c0.11,1.74 0.11,3.1 0.1,4q0,0.66 0,1.05c-0.04,0.28 -0.05,0.41 -0.05,0.41z"/>
    <path id="svg_237" fill="#263238" d="m468.97,439.12091c0.14,0 0.26,8.07 0.26,18s-0.12,18 -0.26,18s-0.26,-8.07 -0.26,-18s0.12,-18 0.26,-18z"/>
    <path id="svg_238" fill="#263238" d="m307.55,398.05091s-0.06,0.23 -0.2,0.66s-0.39,1.08 -0.6,2c-0.49,1.73 -1.11,4.31 -1.8,7.68c-1.39,6.74 -3.1,16.6 -5,28.94c-0.95,6.18 -2,13 -3,20.31c-0.51,3.67 -0.83,7.49 -1.09,11.45s-0.47,8 -0.63,12.24c-0.3,8.41 -0.48,17.29 -0.24,26.54c0.08,2.31 0.16,4.65 0.35,7c0.06,1.18 0.26,2.34 0.4,3.51a29.59,29.59 0 0 0 0.85,3.46a19.71,19.71 0 0 0 3.32,6.33a14.2,14.2 0 0 0 5.68,4.38l0,0a86.94,86.94 0 0 0 14.83,5.66c5.17,1.55 10.51,2.8 15.93,3.91a219.06,219.06 0 0 0 35.8,4.36a166.27,166.27 0 0 0 17.09,-0.44c5.57,-0.39 11,-1 16.25,-1.75a170.93,170.93 0 0 0 29.16,-6.78a148.6,148.6 0 0 0 23.58,-10.12l0,0.33l-32.26,-11.47l-8.71,-3.11l-2.25,-0.82c-0.51,-0.19 -0.76,-0.3 -0.76,-0.3l0.77,0.25l2.27,0.77l8.74,3l32.4,11.3l0.39,0.13l-0.36,0.2a148.91,148.91 0 0 1 -23.63,10.21a170.73,170.73 0 0 1 -29.23,6.85c-5.26,0.79 -10.7,1.38 -16.28,1.77a167.18,167.18 0 0 1 -17.14,0.46a218.76,218.76 0 0 1 -35.89,-4.36c-5.44,-1.12 -10.79,-2.37 -16,-3.92a88.49,88.49 0 0 1 -14.92,-5.71l0,0a14.72,14.72 0 0 1 -5.92,-4.54a20.22,20.22 0 0 1 -3.39,-6.5a29.16,29.16 0 0 1 -0.87,-3.52c-0.15,-1.2 -0.34,-2.38 -0.4,-3.56c-0.19,-2.36 -0.27,-4.71 -0.34,-7c-0.24,-9.28 0,-18.16 0.28,-26.58q0.24,-6.3 0.65,-12.25c0.27,-4 0.6,-7.8 1.12,-11.47c1,-7.35 2.06,-14.14 3,-20.31c2,-12.34 3.74,-22.19 5.19,-28.92c0.72,-3.37 1.36,-5.95 1.88,-7.68c0.22,-0.87 0.5,-1.51 0.64,-1.94s0.34,-0.65 0.34,-0.65z"/>
    <path id="svg_239" fill="#e0e0e0" d="m340.71,483.45091c12.31,-13.63 11.77,-37.86 4.7,-55.05c-0.65,18.62 -2.85,35.14 -4.53,53.24"/>
    <path id="svg_240" fill="#263238" d="m345.44,431.88091a2.77,2.77 0 0 1 0,0.6c0,0.45 -0.06,1 -0.11,1.7c-0.12,1.55 -0.28,3.67 -0.49,6.25c-0.44,5.34 -1,12.59 -1.69,20.61l-1.62,20.62c-0.19,2.58 -0.35,4.7 -0.47,6.25l-0.15,1.69a4,4 0 0 1 -0.08,0.59a2,2 0 0 1 0,-0.59c0,-0.45 0,-1 0.05,-1.71c0.05,-1.48 0.16,-3.62 0.3,-6.26c0.31,-5.28 0.81,-12.58 1.47,-20.63s1.32,-15.33 1.85,-20.6c0.27,-2.58 0.49,-4.69 0.65,-6.24c0.09,-0.69 0.16,-1.25 0.21,-1.69a2.2,2.2 0 0 1 0.08,-0.59z"/>
    <path id="svg_241" fill="#263238" d="m375.78,407.26091a105.27,105.27 0 0 1 0.26,10.57a105.44,105.44 0 0 1 -0.26,10.57c-0.14,0 -0.26,-4.74 -0.26,-10.57s0.12,-10.57 0.26,-10.57z"/>
    <path id="svg_242" fill="#e0e0e0" d="m367.76,442.37091a10.82,10.82 0 0 0 2.27,5.6c1.16,1.51 3.51,3 5.4,2.87a8.24,8.24 0 0 0 7.27,-3.65c2.3,-3.66 2.87,-11.29 1,-15.8c-1.27,-3.1 -4.12,-6 -7.47,-6.07c-4.4,-0.1 -7.16,3.08 -8.1,6.3"/>
    <path id="svg_243" fill="#263238" d="m368.15,431.62091a6.82,6.82 0 0 1 0.81,-2.16a8.9,8.9 0 0 1 1.65,-2.17a7.72,7.72 0 0 1 3.12,-1.82a7.81,7.81 0 0 1 2.09,-0.34a6.29,6.29 0 0 1 2.29,0.3a9,9 0 0 1 4.08,2.93a11.79,11.79 0 0 1 2.41,5a21.94,21.94 0 0 1 0.44,5.93c-0.2,3.13 -0.82,6.25 -2.55,8.63a7.8,7.8 0 0 1 -3.32,2.5a8.92,8.92 0 0 1 -3.76,0.63l0,0a5.61,5.61 0 0 1 -2.69,-0.66a9.05,9.05 0 0 1 -2,-1.42a10.13,10.13 0 0 1 -2.2,-3.28a9.33,9.33 0 0 1 -0.7,-2.43a5.25,5.25 0 0 1 -0.06,-0.66a0.68,0.68 0 0 1 0,-0.23a14.12,14.12 0 0 0 1,3.22a10.15,10.15 0 0 0 2.22,3.13a8.84,8.84 0 0 0 2,1.32a5.3,5.3 0 0 0 2.5,0.59l0,0a8,8 0 0 0 6.65,-3c1.61,-2.23 2.23,-5.3 2.42,-8.36c0.22,-4 -0.45,-7.94 -2.7,-10.6a8.66,8.66 0 0 0 -3.88,-2.79a6.19,6.19 0 0 0 -2.15,-0.31a7.61,7.61 0 0 0 -2,0.29a7.48,7.48 0 0 0 -3,1.69a9.07,9.07 0 0 0 -1.67,2.05a20,20 0 0 0 -1,2.02z"/>
    <path id="svg_244" fill="#e0e0e0" d="m365.42,442.57091a10.85,10.85 0 0 0 2.27,5.6c1.15,1.51 3.51,3 5.4,2.87a8.25,8.25 0 0 0 7.27,-3.65c2.3,-3.67 2.87,-11.29 1,-15.8c-1.27,-3.11 -4.12,-6 -7.47,-6.07a8.27,8.27 0 0 0 -8.1,6.29"/>
    <path id="svg_245" fill="#263238" d="m365.81,431.81091a6.82,6.82 0 0 1 0.81,-2.15a8.9,8.9 0 0 1 1.65,-2.17a7.72,7.72 0 0 1 5.21,-2.16a6.32,6.32 0 0 1 2.29,0.3a9,9 0 0 1 4.08,2.93a11.66,11.66 0 0 1 2.4,5a21.54,21.54 0 0 1 0.45,5.93c-0.2,3.13 -0.82,6.24 -2.55,8.63a7.8,7.8 0 0 1 -3.32,2.5a8.92,8.92 0 0 1 -3.76,0.63l0,0a5.61,5.61 0 0 1 -2.69,-0.67a8.71,8.71 0 0 1 -2,-1.41a9.9,9.9 0 0 1 -2.2,-3.29a9.28,9.28 0 0 1 -0.7,-2.42c0,-0.29 -0.06,-0.51 -0.07,-0.66a0.82,0.82 0 0 1 0,-0.23a14.14,14.14 0 0 0 1,3.21a9.9,9.9 0 0 0 2.22,3.14a8.84,8.84 0 0 0 2,1.32a5.42,5.42 0 0 0 2.5,0.59l0,0a8,8 0 0 0 6.64,-3c1.62,-2.24 2.24,-5.3 2.43,-8.36c0.22,-4 -0.45,-7.94 -2.7,-10.6a8.56,8.56 0 0 0 -3.85,-2.82a6.14,6.14 0 0 0 -2.14,-0.31a7.54,7.54 0 0 0 -5,2a9.07,9.07 0 0 0 -1.67,2.05a18.06,18.06 0 0 0 -1.03,2.02z"/>
    <path id="svg_246" fill="#e0e0e0" d="m369.67,430.69091a5.13,5.13 0 0 0 -5.37,3.09a8.87,8.87 0 0 0 0,6.53a8.11,8.11 0 0 0 1.67,2.94a4.4,4.4 0 0 0 3,1.45a5.22,5.22 0 0 0 4.13,-2.44a9.34,9.34 0 0 0 1.41,-7.67c-0.46,-1.74 -1.74,-3.51 -3.53,-3.56"/>
    <path id="svg_247" fill="#263238" d="m370.97,431.03091s0.14,0 0.4,0a2.72,2.72 0 0 1 1.09,0.37a5.33,5.33 0 0 1 2.28,3.44a9.37,9.37 0 0 1 -0.62,6.12a7.76,7.76 0 0 1 -2.24,2.94a4.34,4.34 0 0 1 -3.86,0.93a5.4,5.4 0 0 1 -3.08,-2.52a11.29,11.29 0 0 1 -1.28,-3.46a7.69,7.69 0 0 1 1,-6a5.38,5.38 0 0 1 3.48,-2.22a3.93,3.93 0 0 1 1.15,0c0.25,0.05 0.38,0.09 0.38,0.11a7.87,7.87 0 0 0 -1.49,0.09a5.31,5.31 0 0 0 -3.22,2.23a7.37,7.37 0 0 0 -0.83,5.73a10.77,10.77 0 0 0 1.25,3.29a4.89,4.89 0 0 0 2.78,2.28a3.83,3.83 0 0 0 3.41,-0.82a7.63,7.63 0 0 0 2.12,-2.74a9.16,9.16 0 0 0 0.69,-5.84a5.24,5.24 0 0 0 -2,-3.35a4.14,4.14 0 0 0 -1.41,-0.58z"/>
    <path id="svg_248" fill="#263238" d="m374.71,447.13091c-0.08,0 -0.19,-0.32 -0.53,-0.72a3.72,3.72 0 0 0 -1.71,-1.09a8.59,8.59 0 0 0 -2.1,-0.33c-0.55,0 -0.91,-0.09 -0.91,-0.16s0.34,-0.15 0.91,-0.21a5.87,5.87 0 0 1 2.26,0.2a3.27,3.27 0 0 1 1.85,1.38c0.31,0.52 0.29,0.92 0.23,0.93z"/>
    <path id="svg_249" fill="#263238" d="m375.5,429.33091s-0.16,0.35 -0.62,0.72a4.81,4.81 0 0 1 -2.11,0.92a5,5 0 0 1 -2.3,-0.12c-0.56,-0.19 -0.86,-0.41 -0.83,-0.47a11.75,11.75 0 0 0 3,0.08a12.49,12.49 0 0 0 2.86,-1.13z"/>
    <path id="svg_250" fill="#263238" d="m444.21,357.70091s0.12,0 0.33,0.12a8.72,8.72 0 0 1 0.89,0.46a17.6,17.6 0 0 1 3,2.14a21.45,21.45 0 0 1 6.44,10.18a65.11,65.11 0 0 1 2.45,11.86c0.18,1.54 0.27,2.79 0.33,3.65a6.06,6.06 0 0 1 0,1.35a7.62,7.62 0 0 1 -0.22,-1.33c-0.13,-0.95 -0.3,-2.17 -0.49,-3.62a76.59,76.59 0 0 0 -2.59,-11.76a22.16,22.16 0 0 0 -6.18,-10.06a33.53,33.53 0 0 0 -3.96,-2.99z"/>
    <path id="svg_251" fill="#263238" d="m431.75,467.77091c2.9,-0.11 5.22,-3 8.12,-2.84a4,4 0 1 1 -0.68,8c-3.05,-0.35 -4.83,-3.92 -7.81,-4.6"/>
    <path id="svg_252" fill="#263238" d="m456.33,470.24091a17.15,17.15 0 0 1 -2.71,-0.22l0.16,-1c3.58,0.57 6.59,0 8.94,-1.75c3,-2.17 4.87,-6.06 5.67,-11.56l0,-0.21c0.33,-2.18 0.78,-44.95 0.78,-53.07c0,-12.69 -11.13,-14.42 -11.61,-14.49s-10.57,-1.77 -15.94,12.08c-5.62,14.51 -14.61,42.47 -15.2,45.75c-0.08,0.4 -0.19,0.9 -0.31,1.47c-0.94,4.2 -2.88,12.93 2.94,17.95c6.49,5.61 11.61,3.44 11.82,3.35l0.41,0.91c-0.24,0.1 -5.88,2.55 -12.88,-3.5c-6.28,-5.42 -4.25,-14.54 -3.27,-18.93c0.13,-0.56 0.23,-1 0.3,-1.43c0.6,-3.3 9.62,-31.38 15.26,-45.93s16.92,-12.73 17,-12.7s12.44,1.9 12.44,15.47c0,6.69 -0.44,50.9 -0.79,53.22l0,0.2c-0.84,5.78 -2.88,9.89 -6.07,12.23a11.51,11.51 0 0 1 -6.94,2.16z"/>
    <path id="svg_253" fill="#263238" d="m469.7,410.62091a18.42,18.42 0 0 0 -2.08,-5a17.21,17.21 0 0 0 -3.95,-4.28a17,17 0 0 0 -6.43,-3a18.79,18.79 0 0 0 -12.65,1.65a22.62,22.62 0 0 0 -4.41,3.15a1.44,1.44 0 0 1 0.23,-0.3a6.94,6.94 0 0 1 0.75,-0.8a15,15 0 0 1 3.25,-2.37a18.58,18.58 0 0 1 12.95,-1.84a17.18,17.18 0 0 1 6.6,3.16a16.6,16.6 0 0 1 4,4.47a13,13 0 0 1 1.54,3.72a8.18,8.18 0 0 1 0.21,1.08c0,0.22 0.01,0.36 -0.01,0.36z"/>
    <path id="svg_254" fill="#263238" d="m495.17,490.56091a35.2,35.2 0 0 0 -1.38,-4.26a18.56,18.56 0 0 0 -6.78,-8.14a14.73,14.73 0 0 0 -5.5,-2a47.32,47.32 0 0 0 -4.85,-0.5l-3.29,-0.23a5.76,5.76 0 0 1 -1.2,-0.16a5,5 0 0 1 1.21,0l3.3,0.06a41.48,41.48 0 0 1 4.9,0.4a14.71,14.71 0 0 1 5.71,2a18.09,18.09 0 0 1 6.84,8.44a16,16 0 0 1 0.92,3.19a4.57,4.57 0 0 1 0.12,1.2z"/>
    <path id="svg_255" fill="#b78876" d="m444.72,473.88091s9.84,-14.89 12.35,-16.84s24,-11.65 26.49,-10.09s1,4.94 1,4.94s9.08,-3.18 10.05,-1.93a4.49,4.49 0 0 1 0,5.12s5,-0.77 5,0.78a6.37,6.37 0 0 1 -2.9,5.22c-2.32,1.74 -17.41,11.78 -18.62,14.56l-4.89,-0.3l-28.48,-1.46z"/>
    <path id="svg_256" fill="#aa6550" d="m473.02,469.61091a4.26,4.26 0 0 1 0.45,-0.94a18.2,18.2 0 0 1 1.62,-2.32a27,27 0 0 1 7.13,-6a53.93,53.93 0 0 1 8.44,-4c1.11,-0.43 2,-0.75 2.65,-1a4.36,4.36 0 0 1 1,-0.28a3.8,3.8 0 0 1 -0.93,0.47l-2.59,1.11a68.53,68.53 0 0 0 -8.3,4.07a29.81,29.81 0 0 0 -7.12,5.79c-1.56,1.85 -2.26,3.15 -2.35,3.1z"/>
    <path id="svg_257" fill="#aa6550" d="m460.55,469.37091a5.07,5.07 0 0 1 0.48,-1.09c0.34,-0.69 0.83,-1.68 1.51,-2.88a27.53,27.53 0 0 1 2.71,-4a12.49,12.49 0 0 1 2.06,-2.05c0.83,-0.56 1.7,-1.08 2.61,-1.62a71.09,71.09 0 0 1 9.6,-4.78a25.88,25.88 0 0 1 3.08,-1a5.73,5.73 0 0 1 1.18,-0.21c0,0.09 -1.63,0.47 -4.12,1.59a90.38,90.38 0 0 0 -9.48,4.89c-0.9,0.53 -1.77,1.06 -2.58,1.59a12.49,12.49 0 0 0 -2,1.93a29.19,29.19 0 0 0 -2.76,3.9l-1.66,2.78a5.32,5.32 0 0 1 -0.63,0.95z"/>
   </g>
   <g id="svg_9">
    <path id="svg_258" fill="#263238" d="m722.97,571.26091c0,0.14 -150.87,0.26 -336.94,0.26s-337,-0.12 -337,-0.26s150.84,-0.26 337,-0.26s336.94,0.12 336.94,0.26z"/>
   </g>
  </g>
 </g>
</svg>