<svg width="69" height="69" viewBox="0 0 69 69" fill="none" xmlns="http://www.w3.org/2000/svg">
<path d="M46.9375 25.875C46.9375 29.1736 45.6271 32.3372 43.2946 34.6696C40.9622 37.0021 37.7986 38.3125 34.5 38.3125C31.2014 38.3125 28.0378 37.0021 25.7054 34.6696C23.3729 32.3372 22.0625 29.1736 22.0625 25.875C22.0625 22.5764 23.3729 19.4128 25.7054 17.0804C28.0378 14.7479 31.2014 13.4375 34.5 13.4375C37.7986 13.4375 40.9622 14.7479 43.2946 17.0804C45.6271 19.4128 46.9375 22.5764 46.9375 25.875Z" fill="#06D6A0" stroke="#06D6A0"/>
<path fill-rule="evenodd" clip-rule="evenodd" d="M0 34.5C0 25.35 3.63481 16.5748 10.1048 10.1048C16.5748 3.63481 25.35 0 34.5 0C43.65 0 52.4252 3.63481 58.8952 10.1048C65.3652 16.5748 69 25.35 69 34.5C69 43.65 65.3652 52.4252 58.8952 58.8952C52.4252 65.3652 43.65 69 34.5 69C25.35 69 16.5748 65.3652 10.1048 58.8952C3.63481 52.4252 0 43.65 0 34.5V34.5ZM34.5 4.3125C28.8152 4.3128 23.246 5.91831 18.4334 8.94424C13.6208 11.9702 9.76041 16.2935 7.2966 21.4167C4.83278 26.5399 3.86567 32.2546 4.50656 37.9032C5.14744 43.5518 7.37029 48.9047 10.9193 53.3456C13.9811 48.4121 20.7216 43.125 34.5 43.125C48.2784 43.125 55.0146 48.4078 58.0808 53.3456C61.6297 48.9047 63.8526 43.5518 64.4934 37.9032C65.1343 32.2546 64.1672 26.5399 61.7034 21.4167C59.2396 16.2935 55.3792 11.9702 50.5666 8.94424C45.754 5.91831 40.1848 4.3128 34.5 4.3125V4.3125Z" fill="#06D6A0"/>
</svg>
