<svg width="459" height="183" viewBox="0 0 459 183" fill="none" xmlns="http://www.w3.org/2000/svg">
<g filter="url(#filter0_d)">
<path d="M4.00414 40.9357C4.00414 38.5089 4.46768 36.2321 5.39476 34.1052C6.32184 31.9784 7.57613 30.1242 9.15763 28.5427C10.7664 26.934 12.6342 25.6661 14.761 24.739C16.8879 23.8119 19.1647 23.3483 21.5915 23.3483H48.5041V35.0869H21.5915C20.7734 35.0869 20.01 35.2368 19.301 35.5368C18.5921 35.8367 17.9649 36.2593 17.4196 36.8047C16.9015 37.3228 16.4925 37.9363 16.1926 38.6452C15.8926 39.3542 15.7426 40.1176 15.7426 40.9357C15.7426 41.7537 15.8926 42.5308 16.1926 43.267C16.4925 43.9759 16.9015 44.6031 17.4196 45.1484C17.9649 45.6665 18.5921 46.0755 19.301 46.3755C20.01 46.6754 20.7734 46.8254 21.5915 46.8254H33.33C35.7567 46.8254 38.0335 47.2889 40.1604 48.216C42.3145 49.1158 44.1823 50.3701 45.7638 51.9789C47.3726 53.5604 48.6268 55.4282 49.5267 57.5823C50.4537 59.7091 50.9173 61.9859 50.9173 64.4127C50.9173 66.8395 50.4537 69.1163 49.5267 71.2431C48.6268 73.3699 47.3726 75.2377 45.7638 76.8465C44.1823 78.428 42.3145 79.6823 40.1604 80.6094C38.0335 81.5365 35.7567 82 33.33 82H7.2762V70.2615H33.33C34.148 70.2615 34.9115 70.1115 35.6204 69.8116C36.3294 69.5116 36.9429 69.1026 37.4609 68.5846C38.0063 68.0392 38.4289 67.4121 38.7289 66.7031C39.0288 65.9942 39.1788 65.2307 39.1788 64.4127C39.1788 63.5947 39.0288 62.8312 38.7289 62.1222C38.4289 61.4133 38.0063 60.7998 37.4609 60.2817C36.9429 59.7364 36.3294 59.3137 35.6204 59.0138C34.9115 58.7138 34.148 58.5639 33.33 58.5639H21.5915C19.1647 58.5639 16.8879 58.1003 14.761 57.1733C12.6342 56.2462 10.7664 54.9919 9.15763 53.4104C7.57613 51.8016 6.32184 49.9338 5.39476 47.807C4.46768 45.6529 4.00414 43.3624 4.00414 40.9357ZM70.386 35.0869V58.5639H82.1245C83.7333 58.5639 85.2466 58.2639 86.6645 57.6641C88.0824 57.0369 89.3231 56.1916 90.3865 55.1282C91.4499 54.0648 92.2816 52.8241 92.8814 51.4062C93.5086 49.9611 93.8222 48.4341 93.8222 46.8254C93.8222 45.2166 93.5086 43.7033 92.8814 42.2854C92.2816 40.8402 91.4499 39.5859 90.3865 38.5225C89.3231 37.4591 88.0824 36.6274 86.6645 36.0276C85.2466 35.4004 83.7333 35.0869 82.1245 35.0869H70.386ZM70.386 82H58.6475V23.3483H82.1245C84.2786 23.3483 86.351 23.6346 88.3415 24.2073C90.332 24.7526 92.1861 25.5433 93.904 26.5795C95.6491 27.5884 97.2305 28.8154 98.6484 30.2606C100.094 31.6785 101.321 33.26 102.33 35.0051C103.366 36.7502 104.156 38.618 104.702 40.6085C105.274 42.599 105.561 44.6713 105.561 46.8254C105.561 50.0429 104.947 53.0832 103.72 55.9462C102.493 58.782 100.816 61.2633 98.6893 63.3902C96.5625 65.517 94.0676 67.1939 91.2045 68.421C88.3687 69.648 85.3421 70.2615 82.1245 70.2615H70.386V82Z" fill="#364958"/>
<path d="M194.152 82H182.454V40.1176C182.454 39.2996 182.29 38.5362 181.963 37.8272C181.663 37.1183 181.241 36.5047 180.695 35.9867C180.177 35.4413 179.564 35.0187 178.855 34.7187C178.146 34.4188 177.382 34.2688 176.564 34.2688C175.746 34.2688 174.983 34.4188 174.274 34.7187C173.565 35.0187 172.938 35.4413 172.392 35.9867C171.874 36.5047 171.465 37.1183 171.165 37.8272C170.866 38.5362 170.716 39.2996 170.716 40.1176V82H158.977V40.1176C158.977 39.2996 158.827 38.5362 158.527 37.8272C158.227 37.1183 157.805 36.5047 157.259 35.9867C156.741 35.4413 156.128 35.0187 155.419 34.7187C154.71 34.4188 153.946 34.2688 153.128 34.2688C152.31 34.2688 151.547 34.4188 150.838 34.7187C150.129 35.0187 149.502 35.4413 148.956 35.9867C148.438 36.5047 148.029 37.1183 147.729 37.8272C147.429 38.5362 147.279 39.2996 147.279 40.1176V82H135.541V40.1176C135.541 37.6909 135.991 35.4141 136.891 33.2872C137.818 31.1331 139.072 29.2653 140.653 27.6838C142.262 26.0751 144.13 24.8208 146.257 23.921C148.411 22.9939 150.701 22.5303 153.128 22.5303C155.31 22.5303 157.409 22.9257 159.427 23.7164C161.445 24.4799 163.258 25.5979 164.867 27.0703C166.475 25.5979 168.275 24.4799 170.266 23.7164C172.283 22.9257 174.383 22.5303 176.564 22.5303C178.991 22.5303 181.268 22.9939 183.395 23.921C185.549 24.8208 187.417 26.0751 188.998 27.6838C190.607 29.2653 191.861 31.1331 192.761 33.2872C193.688 35.4141 194.152 37.6909 194.152 40.1176V82ZM220.41 71.284C220.846 71.4203 221.282 71.5158 221.719 71.5703C222.155 71.5976 222.591 71.6112 223.028 71.6112C224.118 71.6112 225.168 71.4612 226.177 71.1613C227.186 70.8614 228.127 70.4387 228.999 69.8934C229.899 69.3208 230.69 68.6391 231.371 67.8483C232.08 67.0303 232.653 66.1305 233.089 65.1489L241.269 73.3699C240.233 74.8424 239.033 76.1648 237.67 77.3373C236.334 78.5098 234.875 79.5051 233.294 80.3231C231.739 81.1411 230.09 81.7546 228.345 82.1636C226.627 82.5999 224.854 82.818 223.028 82.818C219.946 82.818 217.042 82.2454 214.316 81.1002C211.616 79.955 209.244 78.3598 207.199 76.3148C205.181 74.2698 203.586 71.843 202.414 69.0345C201.241 66.1987 200.655 63.0902 200.655 59.7091C200.655 56.2462 201.241 53.0832 202.414 50.2201C203.586 47.3571 205.181 44.9167 207.199 42.8989C209.244 40.8811 211.616 39.3133 214.316 38.1953C217.042 37.0774 219.946 36.5184 223.028 36.5184C224.854 36.5184 226.64 36.7365 228.386 37.1728C230.131 37.6091 231.78 38.2362 233.335 39.0542C234.916 39.8722 236.388 40.8811 237.752 42.0809C239.115 43.2534 240.315 44.5758 241.351 46.0483L220.41 71.284ZM226.136 48.2569C225.618 48.066 225.1 47.9433 224.582 47.8888C224.091 47.8343 223.573 47.807 223.028 47.807C221.501 47.807 220.055 48.0933 218.692 48.6659C217.356 49.2112 216.184 50.002 215.175 51.0381C214.193 52.0743 213.416 53.3286 212.843 54.801C212.271 56.2462 211.984 57.8822 211.984 59.7091C211.984 60.1181 211.998 60.5816 212.025 61.0997C212.08 61.6178 212.148 62.1495 212.23 62.6949C212.339 63.2129 212.462 63.7174 212.598 64.2082C212.734 64.699 212.911 65.1353 213.13 65.517L226.136 48.2569ZM289 82H286.301L281.966 75.9876C280.902 76.9419 279.771 77.8418 278.571 78.687C277.398 79.5051 276.158 80.2276 274.849 80.8548C273.54 81.4547 272.19 81.9318 270.8 82.2863C269.436 82.6408 268.046 82.818 266.628 82.818C263.547 82.818 260.643 82.2454 257.916 81.1002C255.216 79.9277 252.844 78.3189 250.799 76.2739C248.781 74.2016 247.186 71.7612 246.014 68.9527C244.841 66.1169 244.255 63.0357 244.255 59.7091C244.255 56.4098 244.841 53.3422 246.014 50.5064C247.186 47.6706 248.781 45.2166 250.799 43.1443C252.844 41.072 255.216 39.4496 257.916 38.2771C260.643 37.1046 263.547 36.5184 266.628 36.5184C267.609 36.5184 268.618 36.6002 269.654 36.7638C270.718 36.9274 271.74 37.2001 272.722 37.5818C273.731 37.9363 274.672 38.4134 275.544 39.0133C276.417 39.6132 277.153 40.3494 277.753 41.222V20.7716H289V82ZM277.753 59.7091C277.753 58.1821 277.453 56.7097 276.853 55.2918C276.28 53.8467 275.49 52.5787 274.481 51.4881C273.472 50.3701 272.286 49.4839 270.922 48.8295C269.586 48.1478 268.155 47.807 266.628 47.807C265.101 47.807 263.656 48.0797 262.292 48.625C260.956 49.1703 259.784 49.9611 258.775 50.9972C257.793 52.0061 257.016 53.2468 256.443 54.7192C255.871 56.1916 255.585 57.8549 255.585 59.7091C255.585 61.3179 255.871 62.8448 256.443 64.29C257.016 65.7351 257.793 67.0031 258.775 68.0937C259.784 69.1844 260.956 70.0434 262.292 70.6705C263.656 71.2976 265.101 71.6112 266.628 71.6112C268.155 71.6112 269.586 71.284 270.922 70.6296C272.286 69.9479 273.472 69.0617 274.481 67.971C275.49 66.8531 276.28 65.5852 276.853 64.1673C277.453 62.7221 277.753 61.2361 277.753 59.7091ZM310.719 26.2932C310.719 27.3293 310.514 28.2973 310.105 29.1971C309.724 30.097 309.192 30.8877 308.51 31.5694C307.828 32.2238 307.024 32.7555 306.097 33.1645C305.197 33.5463 304.229 33.7371 303.193 33.7371C302.157 33.7371 301.175 33.5463 300.248 33.1645C299.348 32.7555 298.558 32.2238 297.876 31.5694C297.222 30.8877 296.69 30.097 296.281 29.1971C295.899 28.2973 295.708 27.3293 295.708 26.2932C295.708 25.2843 295.899 24.33 296.281 23.4301C296.69 22.5031 297.222 21.7123 297.876 21.0579C298.558 20.3762 299.348 19.8445 300.248 19.4628C301.175 19.0538 302.157 18.8493 303.193 18.8493C304.229 18.8493 305.197 19.0538 306.097 19.4628C307.024 19.8445 307.828 20.3762 308.51 21.0579C309.192 21.7123 309.724 22.5031 310.105 23.4301C310.514 24.33 310.719 25.2843 310.719 26.2932ZM308.796 82H297.549V38.1953H308.796V82ZM355.628 46.9072L347.448 55.1282C347.039 53.983 346.48 52.9605 345.771 52.0607C345.062 51.1336 344.257 50.3565 343.358 49.7293C342.485 49.1022 341.531 48.625 340.494 48.2978C339.458 47.9706 338.395 47.807 337.304 47.807C335.777 47.807 334.332 48.1206 332.969 48.7477C331.633 49.3748 330.46 50.261 329.451 51.4062C328.47 52.5242 327.693 53.8603 327.12 55.4145C326.547 56.9687 326.261 58.6866 326.261 60.568C326.261 62.095 326.547 63.5265 327.12 64.8626C327.693 66.1987 328.47 67.3712 329.451 68.3801C330.46 69.3889 331.633 70.1797 332.969 70.7523C334.332 71.3249 335.777 71.6112 337.304 71.6112C338.395 71.6112 339.445 71.4612 340.454 71.1613C341.462 70.8614 342.403 70.4387 343.276 69.8934C344.176 69.3208 344.966 68.6391 345.648 67.8483C346.357 67.0303 346.93 66.1305 347.366 65.1489L355.546 73.3699C354.51 74.8424 353.31 76.1648 351.947 77.3373C350.611 78.5098 349.152 79.5051 347.57 80.3231C346.016 81.1411 344.366 81.7546 342.621 82.1636C340.904 82.5999 339.131 82.818 337.304 82.818C334.223 82.818 331.319 82.2454 328.592 81.1002C325.893 79.9277 323.521 78.3326 321.476 76.3148C319.458 74.297 317.863 71.9384 316.69 69.239C315.518 66.5395 314.932 63.6492 314.932 60.568C314.932 57.2142 315.518 54.0784 316.69 51.1608C317.863 48.2433 319.458 45.7074 321.476 43.5533C323.521 41.3719 325.893 39.6541 328.592 38.3998C331.319 37.1455 334.223 36.5184 337.304 36.5184C339.131 36.5184 340.917 36.7502 342.662 37.2137C344.435 37.6772 346.112 38.3589 347.693 39.2587C349.302 40.1313 350.774 41.2083 352.11 42.4899C353.474 43.7714 354.646 45.2439 355.628 46.9072ZM402.868 82H400.169L395.833 75.9876C394.77 76.9419 393.638 77.8418 392.438 78.687C391.266 79.5051 390.025 80.2276 388.716 80.8548C387.408 81.4547 386.058 81.9318 384.667 82.2863C383.304 82.6408 381.913 82.818 380.495 82.818C377.414 82.818 374.51 82.2999 371.784 81.2638C369.084 80.2276 366.712 78.7279 364.667 76.7647C362.649 74.7742 361.054 72.3474 359.881 69.4844C358.709 66.6213 358.123 63.3629 358.123 59.7091C358.123 56.3007 358.709 53.1786 359.881 50.3428C361.054 47.4798 362.649 45.0257 364.667 42.9807C366.712 40.9357 369.084 39.3542 371.784 38.2362C374.51 37.091 377.414 36.5184 380.495 36.5184C381.913 36.5184 383.318 36.6956 384.708 37.0501C386.099 37.4046 387.449 37.8954 388.757 38.5225C390.066 39.1497 391.307 39.8859 392.479 40.7312C393.679 41.5764 394.797 42.4899 395.833 43.4715L400.169 38.2771H402.868V82ZM391.62 59.7091C391.62 58.1821 391.32 56.7097 390.721 55.2918C390.148 53.8467 389.357 52.5787 388.348 51.4881C387.339 50.3701 386.153 49.4839 384.79 48.8295C383.454 48.1478 382.022 47.807 380.495 47.807C378.968 47.807 377.523 48.066 376.16 48.5841C374.824 49.1022 373.651 49.8657 372.642 50.8745C371.661 51.8834 370.884 53.1377 370.311 54.6374C369.739 56.1098 369.452 57.8004 369.452 59.7091C369.452 61.6178 369.739 63.322 370.311 64.8217C370.884 66.2941 371.661 67.5348 372.642 68.5437C373.651 69.5525 374.824 70.316 376.16 70.8341C377.523 71.3522 378.968 71.6112 380.495 71.6112C382.022 71.6112 383.454 71.284 384.79 70.6296C386.153 69.9479 387.339 69.0617 388.348 67.971C389.357 66.8531 390.148 65.5852 390.721 64.1673C391.32 62.7221 391.62 61.2361 391.62 59.7091ZM422.664 82H411.416V20.7716H422.664V82Z" fill="white"/>
<path d="M55.9445 111.6V148.707C55.9445 157.14 53.6549 163.45 49.0758 167.638C44.4966 171.882 37.9071 174.004 29.3073 174.004C24.8398 174.004 20.6516 173.502 16.7426 172.496C12.8336 171.491 9.5109 170.011 6.77459 168.057L12.5544 156.916C14.3972 158.424 16.7147 159.597 19.5068 160.434C22.3548 161.328 25.147 161.775 27.8833 161.775C32.0715 161.775 35.1429 160.853 37.0974 159.01C39.0519 157.168 40.0292 154.431 40.0292 150.801V149.294C36.9578 152.868 32.4624 154.655 26.5431 154.655C22.5224 154.655 18.8088 153.761 15.4024 151.974C11.9959 150.131 9.28753 147.563 7.27718 144.268C5.26682 140.917 4.26165 137.064 4.26165 132.708C4.26165 128.408 5.26682 124.611 7.27718 121.316C9.28753 117.966 11.9959 115.397 15.4024 113.61C18.8088 111.767 22.5224 110.846 26.5431 110.846C33.0209 110.846 37.7675 112.94 40.7831 117.128V111.6H55.9445ZM30.3125 142.006C33.1605 142.006 35.5059 141.141 37.3487 139.409C39.2474 137.678 40.1967 135.445 40.1967 132.708C40.1967 129.972 39.2753 127.766 37.4325 126.091C35.5896 124.36 33.2163 123.494 30.3125 123.494C27.4086 123.494 25.0074 124.36 23.1087 126.091C21.2659 127.766 20.3445 129.972 20.3445 132.708C20.3445 135.445 21.2938 137.678 23.1925 139.409C25.0911 141.141 27.4645 142.006 30.3125 142.006ZM77.9811 117.044C79.6006 114.978 81.6947 113.442 84.2635 112.437C86.8881 111.376 89.8757 110.846 93.2263 110.846V125.169C91.7744 125.002 90.5738 124.918 89.6244 124.918C86.218 124.918 83.5375 125.84 81.583 127.682C79.6844 129.525 78.735 132.345 78.735 136.143V157H62.8197V111.6H77.9811V117.044ZM118.818 157.754C113.96 157.754 109.576 156.749 105.667 154.738C101.758 152.728 98.6869 149.936 96.4532 146.362C94.2753 142.788 93.1864 138.739 93.1864 134.216C93.1864 129.749 94.2753 125.728 96.4532 122.154C98.6869 118.58 101.73 115.816 105.584 113.861C109.493 111.851 113.904 110.846 118.818 110.846C123.733 110.846 128.144 111.851 132.053 113.861C135.962 115.816 139.006 118.58 141.184 122.154C143.361 125.672 144.45 129.693 144.45 134.216C144.45 138.739 143.361 142.788 141.184 146.362C139.006 149.936 135.962 152.728 132.053 154.738C128.144 156.749 123.733 157.754 118.818 157.754ZM118.818 145.105C121.611 145.105 123.9 144.156 125.687 142.257C127.474 140.303 128.368 137.622 128.368 134.216C128.368 130.865 127.474 128.241 125.687 126.342C123.9 124.443 121.611 123.494 118.818 123.494C116.026 123.494 113.737 124.443 111.95 126.342C110.163 128.241 109.269 130.865 109.269 134.216C109.269 137.622 110.163 140.303 111.95 142.257C113.737 144.156 116.026 145.105 118.818 145.105ZM196.218 111.6V157H181.057V152.142C179.382 153.984 177.371 155.381 175.026 156.33C172.68 157.279 170.195 157.754 167.571 157.754C161.707 157.754 157.016 156.023 153.498 152.56C150.036 149.098 148.305 143.905 148.305 136.98V111.6H164.22V134.384C164.22 137.79 164.862 140.275 166.147 141.839C167.431 143.402 169.302 144.184 171.759 144.184C174.272 144.184 176.31 143.318 177.874 141.587C179.493 139.8 180.303 137.092 180.303 133.462V111.6H196.218ZM231.683 110.846C235.815 110.846 239.557 111.823 242.907 113.777C246.314 115.676 248.994 118.412 250.949 121.986C252.959 125.504 253.964 129.609 253.964 134.3C253.964 138.991 252.959 143.123 250.949 146.697C248.994 150.215 246.314 152.951 242.907 154.906C239.557 156.805 235.815 157.754 231.683 157.754C226.378 157.754 222.162 156.162 219.034 152.979V173.25H203.119V111.6H218.28V116.123C221.24 112.605 225.708 110.846 231.683 110.846ZM228.332 145.105C231.124 145.105 233.414 144.156 235.201 142.257C236.988 140.303 237.881 137.65 237.881 134.3C237.881 130.949 236.988 128.325 235.201 126.426C233.414 124.471 231.124 123.494 228.332 123.494C225.54 123.494 223.251 124.471 221.464 126.426C219.677 128.325 218.783 130.949 218.783 134.3C218.783 137.65 219.677 140.303 221.464 142.257C223.251 144.156 225.54 145.105 228.332 145.105Z" fill="white"/>
<rect x="304.65" y="165.435" width="60.7294" height="26.312" rx="13.156" transform="rotate(-90 304.65 165.435)" fill="#364958"/>
<rect x="267.953" y="165.435" width="60.7294" height="26.312" rx="13.156" transform="rotate(-90 267.953 165.435)" fill="#39A0ED"/>
<path fill-rule="evenodd" clip-rule="evenodd" d="M387.514 165.435C385.431 163.212 384.164 160.277 384.164 157.059V147.635H377.586C370.32 147.635 364.43 142.01 364.43 135.071C364.43 128.131 370.32 122.506 377.586 122.506H384.164V113.082C384.164 109.864 385.431 106.929 387.514 104.706H355.165C345.75 104.706 338.118 112.338 338.118 121.753V148.389C338.118 157.803 345.75 165.435 355.165 165.435H387.514ZM407.126 165.435H437.283C446.697 165.435 454.329 157.803 454.329 148.389V121.753C454.329 112.338 446.697 104.706 437.283 104.706H407.126C409.209 106.929 410.476 109.864 410.476 113.082V122.506H414.861C422.127 122.506 428.017 128.131 428.017 135.071C428.017 142.01 422.127 147.635 414.861 147.635H410.476V157.059C410.476 160.277 409.209 163.212 407.126 165.435Z" fill="white"/>
</g>
<defs>
<filter id="filter0_d" x="0.00415039" y="18.8493" width="458.325" height="163.155" filterUnits="userSpaceOnUse" color-interpolation-filters="sRGB">
<feFlood flood-opacity="0" result="BackgroundImageFix"/>
<feColorMatrix in="SourceAlpha" type="matrix" values="0 0 0 0 0 0 0 0 0 0 0 0 0 0 0 0 0 0 127 0"/>
<feOffset dy="4"/>
<feGaussianBlur stdDeviation="2"/>
<feColorMatrix type="matrix" values="0 0 0 0 0 0 0 0 0 0 0 0 0 0 0 0 0 0 0.25 0"/>
<feBlend mode="normal" in2="BackgroundImageFix" result="effect1_dropShadow"/>
<feBlend mode="normal" in="SourceGraphic" in2="effect1_dropShadow" result="shape"/>
</filter>
</defs>
</svg>
