<svg width="59" height="70" viewBox="0 0 59 70" fill="none" xmlns="http://www.w3.org/2000/svg">
<path d="M0 35C0 35.9283 0.316071 36.8185 0.87868 37.4749C1.44129 38.1312 2.20435 38.5 3 38.5H34.77L27.87 46.515C27.5888 46.8404 27.3656 47.2275 27.2133 47.654C27.061 48.0805 26.9826 48.538 26.9826 49C26.9826 49.462 27.061 49.9195 27.2133 50.346C27.3656 50.7725 27.5888 51.1596 27.87 51.485C28.1489 51.813 28.4807 52.0734 28.8463 52.2511C29.2118 52.4288 29.604 52.5203 30 52.5203C30.396 52.5203 30.7882 52.4288 31.1537 52.2511C31.5193 52.0734 31.8511 51.813 32.13 51.485L44.13 37.485C44.4031 37.1521 44.6172 36.7596 44.76 36.33C45.0601 35.4779 45.0601 34.5221 44.76 33.67C44.6172 33.2404 44.4031 32.8479 44.13 32.515L32.13 18.515C31.8503 18.1887 31.5182 17.9298 31.1527 17.7532C30.7873 17.5766 30.3956 17.4857 30 17.4857C29.6044 17.4857 29.2127 17.5766 28.8473 17.7532C28.4818 17.9298 28.1497 18.1887 27.87 18.515C27.5903 18.8413 27.3684 19.2288 27.217 19.6551C27.0656 20.0815 26.9877 20.5385 26.9877 21C26.9877 21.4615 27.0656 21.9185 27.217 22.3449C27.3684 22.7713 27.5903 23.1587 27.87 23.485L34.77 31.5H3C2.20435 31.5 1.44129 31.8688 0.87868 32.5251C0.316071 33.1815 0 34.0717 0 35ZM50 0H22C19.6131 0 17.3239 1.10625 15.636 3.07538C13.9482 5.04451 13 7.71523 13 10.5V12C13 12.9283 13.3161 13.8185 13.8787 14.4749C14.4413 15.1312 15.2044 15.5 16 15.5C16.7956 15.5 17.5587 15.1312 18.1213 14.4749C18.6839 13.8185 19 12.9283 19 12V10.5C19 9.57174 19.3161 8.6815 19.8787 8.02513C20.4413 7.36875 21.2044 7 22 7H50C50.7956 7 51.5587 7.36875 52.1213 8.02513C52.6839 8.6815 53 9.57174 53 10.5V59.5C53 60.4283 52.6839 61.3185 52.1213 61.9749C51.5587 62.6313 50.7956 63 50 63H24C23.2044 63 22.4413 62.6313 21.8787 61.9749C21.3161 61.3185 21 60.4283 21 59.5V55C21 54.0717 20.6839 53.1815 20.1213 52.5251C19.5587 51.8688 18.7956 51.5 18 51.5C17.2044 51.5 16.4413 51.8688 15.8787 52.5251C15.3161 53.1815 15 54.0717 15 55V59.5C15 62.2848 15.9482 64.9555 17.636 66.9246C19.3239 68.8938 21.6131 70 24 70H50C52.3869 70 54.6761 68.8938 56.364 66.9246C58.0518 64.9555 59 62.2848 59 59.5V10.5C59 7.71523 58.0518 5.04451 56.364 3.07538C54.6761 1.10625 52.3869 0 50 0Z" fill="white"/>
</svg>
